<svg xmlns="http://www.w3.org/2000/svg" xmlns:xlink="http://www.w3.org/1999/xlink" xmlns:lucid="lucid" width="2320" height="2089.96"><g transform="translate(0 0)" lucid:page-tab-id="hGi1DW6LPzsb"><path d="M0 0h2320v2089.96H0z" fill="#fff"/><path d="M556.27 140c27.1 0 49.06 17.9 49.06 40s-21.96 40-49.06 40h-147.2c-27.1 0-49.07-17.9-49.07-40s21.97-40 49.07-40z" stroke="#000" stroke-opacity="0" fill="#ff80df"/><use xlink:href="#a" transform="matrix(1,0,0,1,365,145) translate(1.5802469135802824 39.44444444444444)"/><path d="M477.55 423.13c2.82-1.73 7.4-1.73 10.24 0l169.75 103.74c2.82 1.73 2.82 4.53 0 6.26L487.8 636.87c-2.84 1.73-7.43 1.73-10.25 0L307.8 533.13c-2.84-1.73-2.84-4.53 0-6.26z" stroke="#3a414a" fill="#fcfcca"/><use xlink:href="#b" transform="matrix(1,0,0,1,307.66666666666663,425) translate(23.791268807870438 100.95421006944444)"/><use xlink:href="#c" transform="matrix(1,0,0,1,307.66666666666663,425) translate(37.82830584490747 100.95421006944444)"/><use xlink:href="#d" transform="matrix(1,0,0,1,307.66666666666663,425) translate(137.04445167824076 100.95421006944444)"/><use xlink:href="#e" transform="matrix(1,0,0,1,307.66666666666663,425) translate(153.5804759837963 100.95421006944444)"/><use xlink:href="#f" transform="matrix(1,0,0,1,307.66666666666663,425) translate(194.9205367476852 100.95421006944444)"/><use xlink:href="#g" transform="matrix(1,0,0,1,307.66666666666663,425) translate(211.45656105324073 100.95421006944444)"/><use xlink:href="#h" transform="matrix(1,0,0,1,307.66666666666663,425) translate(310.672706886574 100.95421006944444)"/><use xlink:href="#i" transform="matrix(1,0,0,1,307.66666666666663,425) translate(55.61382378472226 117.30707465277777)"/><use xlink:href="#j" transform="matrix(1,0,0,1,307.66666666666663,425) translate(146.56195746527777 117.30707465277777)"/><use xlink:href="#k" transform="matrix(1,0,0,1,307.66666666666663,425) translate(163.09798177083334 117.30707465277777)"/><use xlink:href="#f" transform="matrix(1,0,0,1,307.66666666666663,425) translate(187.90201822916666 117.30707465277777)"/><use xlink:href="#l" transform="matrix(1,0,0,1,307.66666666666663,425) translate(204.4380425347222 117.30707465277777)"/><path d="M482.67 220.5v22.62" stroke="#3a414a" fill="none"/><path d="M483.17 220.5h-1v-.5h1z" stroke="#3a414a" stroke-width=".05" fill="#3a414a"/><path d="M482.67 257.88l-4.64-14.26h9.27z" stroke="#3a414a" fill="#3a414a"/><path d="M302.67 266c0-3.3 2.68-6 6-6h348c3.3 0 6 2.7 6 6v108c0 3.3-2.7 6-6 6h-348c-3.32 0-6-2.7-6-6z" stroke="#3a414a" fill="#ced4db"/><use xlink:href="#m" transform="matrix(1,0,0,1,314.66666666666663,272) translate(9.57421875 52.796875)"/><use xlink:href="#n" transform="matrix(1,0,0,1,314.66666666666663,272) translate(115.19140625 52.796875)"/><use xlink:href="#o" transform="matrix(1,0,0,1,314.66666666666663,272) translate(134.39453125 52.796875)"/><use xlink:href="#p" transform="matrix(1,0,0,1,314.66666666666663,272) translate(259.21484375 52.796875)"/><use xlink:href="#q" transform="matrix(1,0,0,1,314.66666666666663,272) translate(278.41796875 52.796875)"/><path d="M640 605.33c0-4.4 3.58-8 8-8h444c4.42 0 8 3.6 8 8V732c0 4.42-3.58 8-8 8H648c-4.42 0-8-3.58-8-8z" stroke="#333" fill="#ced4db"/><use xlink:href="#r" transform="matrix(1,0,0,1,652,609.3333333333334) translate(0 30.963541666666664)"/><use xlink:href="#s" transform="matrix(1,0,0,1,652,609.3333333333334) translate(36.01 30.963541666666664)"/><use xlink:href="#t" transform="matrix(1,0,0,1,652,609.3333333333334) translate(72.01 30.963541666666664)"/><use xlink:href="#u" transform="matrix(1,0,0,1,652,609.3333333333334) translate(331.2521875 30.963541666666664)"/><use xlink:href="#s" transform="matrix(1,0,0,1,652,609.3333333333334) translate(396.01 30.963541666666664)"/><use xlink:href="#v" transform="matrix(1,0,0,1,652,609.3333333333334) translate(432.01 30.963541666666664)"/><use xlink:href="#w" transform="matrix(1,0,0,1,652,609.3333333333334) translate(36.01 53.185763888888886)"/><use xlink:href="#x" transform="matrix(1,0,0,1,652,609.3333333333334) translate(112.82249999999999 53.185763888888886)"/><use xlink:href="#y" transform="matrix(1,0,0,1,652,609.3333333333334) translate(218.4396875 53.185763888888886)"/><use xlink:href="#z" transform="matrix(1,0,0,1,652,609.3333333333334) translate(247.244375 53.185763888888886)"/><use xlink:href="#A" transform="matrix(1,0,0,1,652,609.3333333333334) translate(314.4553125 53.185763888888886)"/><use xlink:href="#B" transform="matrix(1,0,0,1,652,609.3333333333334) translate(362.463125 53.185763888888886)"/><use xlink:href="#v" transform="matrix(1,0,0,1,652,609.3333333333334) translate(432.01 53.185763888888886)"/><use xlink:href="#C" transform="matrix(1,0,0,1,652,609.3333333333334) translate(36.01 75.40798611111111)"/><use xlink:href="#D" transform="matrix(1,0,0,1,652,609.3333333333334) translate(36.01 97.63020833333334)"/><use xlink:href="#E" transform="matrix(1,0,0,1,652,609.3333333333334) translate(74.41624999999999 97.63020833333334)"/><use xlink:href="#n" transform="matrix(1,0,0,1,652,609.3333333333334) translate(189.635 97.63020833333334)"/><use xlink:href="#F" transform="matrix(1,0,0,1,652,609.3333333333334) translate(208.838125 97.63020833333334)"/><path d="M1588 1160c17.67 0 32 17.9 32 40s-14.33 40-32 40h-96c-17.67 0-32-17.9-32-40s14.33-40 32-40z" stroke="#000" stroke-opacity="0" fill="#ff741d"/><use xlink:href="#G" transform="matrix(1,0,0,1,1465,1165) translate(61.19753086419753 38.55555555555556)"/><path d="M1553.6 40c27.1 0 49.07 17.9 49.07 40s-21.97 40-49.07 40h-147.2c-27.1 0-49.07-17.9-49.07-40s21.97-40 49.07-40z" stroke="#000" stroke-opacity="0" fill="#ff80df"/><use xlink:href="#H" transform="matrix(1,0,0,1,1362.3333333333335,45) translate(49.049382716049394 39.44444444444444)"/><path d="M1480 120.5v64.21" stroke="#333" fill="none"/><path d="M1480.5 120.5h-1v-.5h1z" stroke="#333" stroke-width=".05" fill="#333"/><path d="M1480 199.48l-4.64-14.27h9.28z" stroke="#333" fill="#333"/><path d="M1474.4 382.17c3.1-1.2 8.1-1.2 11.2 0l168.8 65.66c3.1 1.2 3.1 3.14 0 4.34l-168.8 65.66c-3.1 1.2-8.1 1.2-11.2 0l-168.8-65.66c-3.1-1.2-3.1-3.14 0-4.34z" stroke="#3a414a" fill="#fcfcca"/><use xlink:href="#I" transform="matrix(1,0,0,1,1305,385) translate(108.2890625 69.796875)"/><path d="M1655.06 552.25l3.2.42 3 1.24 2.6 2 2 2.6 1.25 3 .43 3.2v18.42h-1v-18.34l-.4-3.02L1665 559l-1.84-2.38-2.4-1.84-2.75-1.14-3-.4h-56.8v-1zm-136.77-8.52l1.14 2.76 1.83 2.38 2.4 1.83 2.75 1.15 3 .4h56.8v1h-56.85l-3.2-.42-3-1.25-2.6-2-2-2.6-1.25-3-.42-3.2v-34.3h1v34.23z" stroke="#333" stroke-width=".05" fill="#333"/><path d="M1517.9 506.5h-1v-.3l1-.4z" fill="#333"/><path d="M1517.92 506.53h-1.05v-.36l1.05-.4zm-1-.33v.28h.95v-.65z" stroke="#333" stroke-width=".05" fill="#333"/><path d="M1667.03 597.88l-4.64-14.26h9.26z" fill="#333"/><path d="M1667.03 599.5l-5.33-16.38h10.65zm-3.95-15.38l3.95 12.14 3.95-12.14z" stroke="#333" stroke-width=".05" fill="#333"/><use xlink:href="#J" transform="matrix(1,0,0,1,1586.2138056883414,541.9461828336273) translate(0.004999999999999893 14.4)"/><path d="M1868.22 510.8l3.16.4 2.96 1.24 2.56 1.96 1.96 2.56 1.23 2.96.4 3.13-1 .13-.4-3-1.1-2.7-1.82-2.36-2.35-1.8-2.7-1.13-2.98-.4h-134.02v-1zm-291.06-8.52l1.15 2.76 1.84 2.4 2.4 1.82 2.74 1.14 3.02.4h133.83v1h-133.9l-3.2-.42-3-1.24-2.6-2-2-2.6-1.24-3-.43-3.2V483.6h1v15.67z" stroke="#333" stroke-width=".05" fill="#333"/><path d="M1576.77 483.6h-1v-.3l1-.4z" fill="#333"/><path d="M1576.8 483.64h-1.06v-.36l1.05-.4zm-1-.33v.3h.94v-.66z" stroke="#333" stroke-width=".05" fill="#333"/><path d="M1880 537.88l-4.64-14.26h9.28z" fill="#333"/><path d="M1880 539.5l-5.32-16.38h10.64zm-3.95-15.38l3.95 12.14 3.95-12.14z" stroke="#333" stroke-width=".05" fill="#333"/><use xlink:href="#K" transform="matrix(1,0,0,1,1722.1341286454035,500.4994112083105) translate(0.004999999999999893 14.4)"/><path d="M1309.43 515.5h-21.25l-2.98.58-2.4 1.58-1.64 2.36-.66 2.94v.16h-1v-.27l.73-3.24 1.86-2.66 2.72-1.8 3.26-.65h21.35zM1403.2 503l-.4 3.2-1.26 3-2 2.6-2.6 2-3 1.25-3.2.42h-17.46v-1h17.4l3-.4 2.76-1.15 2.4-1.83 1.83-2.4 1.14-2.75.4-3v-12h1z" stroke="#333" stroke-width=".05" fill="#333"/><path d="M1403.2 490.67v.32h-1v-.72z" fill="#333"/><path d="M1403.23 490.66v.36h-1.05v-.77zm-1 .3h.95v-.27l-.95-.38z" stroke="#333" stroke-width=".05" fill="#333"/><path d="M1280 537.88l-4.64-14.26h9.28z" fill="#333"/><path d="M1280 539.5l-5.32-16.38h10.64zm-3.95-15.38l3.95 12.14 3.95-12.14z" stroke="#333" stroke-width=".05" fill="#333"/><use xlink:href="#L" transform="matrix(1,0,0,1,1309.4280423294208,504.1888665374549) translate(0.004999999999999005 14.4)"/><path d="M1437.42 704.7h-1v-81.46h1zm0-103.06h-1v-97.36h1z" stroke="#333" stroke-width=".05" fill="#333"/><path d="M1437.42 503.98v.32h-1v-.7z" fill="#333"/><path d="M1437.45 503.96v.36h-1.05v-.77zm-1 .3h.95V504l-.95-.37z" stroke="#333" stroke-width=".05" fill="#333"/><path d="M1436.92 719.48l-4.63-14.27h9.26z" fill="#333"/><path d="M1436.92 721.1l-5.32-16.4h10.65zm-3.94-15.4l3.94 12.16 3.95-12.15z" stroke="#333" stroke-width=".05" fill="#333"/><use xlink:href="#M" transform="matrix(1,0,0,1,1431.44976956593,601.6407880500628) translate(0.004999999999999893 14.4)"/><path d="M1580 608c0-4.42 3.58-8 8-8h144c4.42 0 8 3.58 8 8v104c0 4.42-3.58 8-8 8h-144c-4.42 0-8-3.58-8-8z" stroke="#333" fill="#ced4db"/><use xlink:href="#N" transform="matrix(1,0,0,1,1592,612) translate(5.58984375 52.796875)"/><use xlink:href="#n" transform="matrix(1,0,0,1,1592,612) translate(63.19921875 52.796875)"/><use xlink:href="#O" transform="matrix(1,0,0,1,1592,612) translate(82.40234375 52.796875)"/><path d="M1800 548c0-4.42 3.58-8 8-8h144c4.42 0 8 3.58 8 8v104c0 4.42-3.58 8-8 8h-144c-4.42 0-8-3.58-8-8z" stroke="#333" fill="#ced4db"/><use xlink:href="#N" transform="matrix(1,0,0,1,1812,552) translate(10.390625 52.796875)"/><use xlink:href="#n" transform="matrix(1,0,0,1,1812,552) translate(68 52.796875)"/><use xlink:href="#P" transform="matrix(1,0,0,1,1812,552) translate(87.203125 52.796875)"/><path d="M1200 548c0-4.42 3.58-8 8-8h144c4.42 0 8 3.58 8 8v104c0 4.42-3.58 8-8 8h-144c-4.42 0-8-3.58-8-8z" stroke="#333" fill="#ced4db"/><use xlink:href="#Q" transform="matrix(1,0,0,1,1212,552) translate(0.7890625 52.796875)"/><use xlink:href="#n" transform="matrix(1,0,0,1,1212,552) translate(106.40625 52.796875)"/><use xlink:href="#R" transform="matrix(1,0,0,1,1212,552) translate(125.609375 52.796875)"/><path d="M1436.92 720.6v.5" stroke="#333" fill="none"/><path d="M1437.42 721.08l-1 .04v-.54h1z" stroke="#333" stroke-width=".05" fill="#333"/><path d="M1436.92 714.1l4.64 14.27h-9.27z" stroke="#333" fill="#333"/><path d="M1431.48 722.5c3-1.37 7.88-1.37 10.9 0l119.1 55c3 1.37 3 3.63 0 5l-119.1 55c-3.02 1.37-7.9 1.37-10.9 0l-119.1-55c-3.02-1.37-3.02-3.63 0-5z" stroke="#3a414a" fill="#fcfcca"/><use xlink:href="#S" transform="matrix(1,0,0,1,1311.9247695659299,725) translate(22.009375000000006 58.6)"/><use xlink:href="#T" transform="matrix(1,0,0,1,1311.9247695659299,725) translate(35.95937500000001 58.6)"/><path d="M1474.55 202.5c3-1.37 7.9-1.37 10.9 0l119.1 55c3 1.37 3 3.63 0 5l-119.1 55c-3 1.37-7.9 1.37-10.9 0l-119.1-55c-3-1.37-3-3.63 0-5z" stroke="#3a414a" fill="#fcfcca"/><use xlink:href="#S" transform="matrix(1,0,0,1,1355.0000000000002,205) translate(22.009375000000006 58.6)"/><use xlink:href="#T" transform="matrix(1,0,0,1,1355.0000000000002,205) translate(35.95937500000001 58.6)"/><path d="M1480.5 364.55h-1v-3.83h1zm0-25.43h-1V319.4h1z" stroke="#008a0e" stroke-width=".05" fill="#008a0e"/><path d="M1480.5 319.42h-1v-.5l1-.04z" fill="#008a0e"/><path d="M1480.53 319.44h-1.06v-.54l1.06-.04zm-1-.5v.45h.94v-.5z" stroke="#008a0e" stroke-width=".05" fill="#008a0e"/><path d="M1480 379.3l-4.64-14.25h9.28z" fill="#008a0e"/><path d="M1480 380.93l-5.32-16.38h10.64zm-3.95-15.38l3.95 12.15 3.95-12.15z" stroke="#008a0e" stroke-width=".05" fill="#008a0e"/><use xlink:href="#U" transform="matrix(1,0,0,1,1465.3250000000003,339.11759140910345) translate(0.005000000000000782 14.4)"/><path d="M1437.42 883.12h-1V880h1zm0-24.72h-1v-19h1z" stroke="#008a0e" stroke-width=".05" fill="#008a0e"/><path d="M1437.42 839.42h-1v-.5l1-.04z" fill="#008a0e"/><path d="M1437.45 839.44h-1.05v-.54l1.05-.04zm-1-.5v.45h.95v-.5z" stroke="#008a0e" stroke-width=".05" fill="#008a0e"/><path d="M1436.92 897.88l-4.63-14.26h9.26z" fill="#008a0e"/><path d="M1436.92 899.5l-5.32-16.38h10.65zm-3.94-15.38l3.94 12.14 3.95-12.14z" stroke="#008a0e" stroke-width=".05" fill="#008a0e"/><use xlink:href="#U" transform="matrix(1,0,0,1,1422.24976956593,858.4017115736822) translate(0.005000000000000782 14.4)"/><path d="M1285.6 908c0-4.42 3.57-8 8-8h286.66c4.42 0 8 3.58 8 8v104c0 4.42-3.58 8-8 8H1293.6c-4.43 0-8-3.58-8-8z" stroke="#333" fill="#ced4db"/><g><use xlink:href="#V" transform="matrix(1,0,0,1,1297.5914362325966,912) translate(-4.5234375 52.796875)"/></g><path d="M1293.48 780.5h-35.86l-3 .4-2.77 1.14-2.4 1.83-1.82 2.4-1.14 2.75-.4 3v256.45l.4 3 1.13 2.77 1.83 2.4 2.4 1.82 2.75 1.14 3.02.4h167.27l3-.4 2.76-1.14 2.4-1.83 1.83-2.4 1.13-2.75.4-3V1021h1v27.53l-.43 3.2-1.24 3-2 2.6-2.6 2-3 1.25-3.2.42h-167.4l-3.2-.42-3-1.24-2.6-2-2-2.6-1.25-3-.4-3.2V791.96l.4-3.2 1.26-3 2-2.6 2.6-2 3-1.25 3.2-.42h35.92z" stroke="#333" stroke-width=".05" fill="#333"/><path d="M1437.42 1021h-1v-.5h1z" fill="#333"/><path d="M1437.45 1021.04h-1.05v-.56h1.05zm-1-.5v.45h.95v-.48z" stroke="#333" stroke-width=".05" fill="#333"/><path d="M1308.25 780l-14.27 4.64v-9.28z" fill="#333"/><path d="M1309.87 780l-16.4 5.32v-10.64zm-15.4 3.95l12.16-3.95-12.15-3.95z" stroke="#333" stroke-width=".05" fill="#333"/><path d="M1280.5 669.53l-.42 3.2-1.24 3-2 2.6-2.6 2-3 1.25-3.2.42h-76l-3.02.4-2.76 1.14-2.4 1.83-1.82 2.4-1.14 2.75-.4 3v424.45l.4 3 1.14 2.77 1.83 2.4 2.4 1.82 2.75 1.14 3 .4h336l3.22.42 3 1.24 2.6 2 2 2.6 1.24 3 .42 3.2v1.66h-1v-1.6l-.4-3-1.14-2.76-1.83-2.4-2.4-1.82-2.75-1.14-3-.4h-336l-3.22-.42-3-1.24-2.6-2-2-2.6-1.24-3-.42-3.2V693.46l.42-3.2 1.24-3 2-2.6 2.6-2 3-1.25 3.2-.42h76l3.02-.4 2.76-1.14 2.4-1.83 1.82-2.4 1.14-2.75.4-3V661h1z" stroke="#333" stroke-width=".05" fill="#333"/><path d="M1280.5 661h-1v-.5h1z" fill="#333"/><path d="M1280.53 661.04h-1.06v-.56h1.06zm-1-.5v.45h.94v-.48z" stroke="#333" stroke-width=".05" fill="#333"/><path d="M1540 1158.38l-4.64-14.26h9.28z" fill="#333"/><path d="M1540 1160l-5.32-16.38h10.64zm-3.95-15.38l3.95 12.14 3.95-12.14z" stroke="#333" stroke-width=".05" fill="#333"/><path d="M1660.5 1078.03l-.42 3.2-1.24 3-2 2.6-2.6 2-3 1.25-3.2.42h-96l-3.02.4-2.76 1.14-2.4 1.83-1.82 2.4-1.14 2.75-.4 3v41.6h-1v-41.65l.42-3.2 1.24-3 2-2.6 2.6-2 3-1.25 3.2-.42h96l3.02-.4 2.76-1.14 2.4-1.83 1.82-2.4 1.14-2.75.4-3V721h1z" stroke="#333" stroke-width=".05" fill="#333"/><path d="M1660.5 721h-1v-.5h1z" fill="#333"/><path d="M1660.53 721.04h-1.06v-.56h1.06zm-1-.5v.45h.94v-.48z" stroke="#333" stroke-width=".05" fill="#333"/><path d="M1540 1158.38l-4.64-14.26h9.28z" fill="#333"/><path d="M1540 1160l-5.32-16.38h10.64zm-3.95-15.38l3.95 12.14 3.95-12.14z" stroke="#333" stroke-width=".05" fill="#333"/><path d="M1880.5 1098.03l-.42 3.2-1.24 3-2 2.6-2.6 2-3 1.25-3.2.42h-316l-3.02.4-2.76 1.14-2.4 1.83-1.82 2.4-1.14 2.75-.4 3v21.6h-1v-21.65l.42-3.2 1.24-3 2-2.6 2.6-2 3-1.25 3.2-.42h316l3.02-.4 2.76-1.14 2.4-1.83 1.82-2.4 1.14-2.75.4-3V661h1z" stroke="#333" stroke-width=".05" fill="#333"/><path d="M1880.5 661h-1v-.5h1z" fill="#333"/><path d="M1880.53 661.04h-1.06v-.56h1.06zm-1-.5v.45h.94v-.48z" stroke="#333" stroke-width=".05" fill="#333"/><path d="M1540 1158.38l-4.64-14.26h9.28z" fill="#333"/><path d="M1540 1160l-5.32-16.38h10.64zm-3.95-15.38l3.95 12.14 3.95-12.14z" stroke="#333" stroke-width=".05" fill="#333"/><path d="M1620.5 1058.03l-.42 3.2-1.24 3-2 2.6-2.6 2-3 1.25-3.2.42h-56l-3.02.4-2.76 1.14-2.4 1.83-1.82 2.4-1.14 2.75-.4 3v61.6h-1v-61.65l.42-3.2 1.24-3 2-2.6 2.6-2 3-1.25 3.2-.42h56l3.02-.4 2.76-1.14 2.4-1.83 1.82-2.4 1.14-2.75.4-3v-65.2h1zm-9.26-278.1l3 1.23 2.6 2 2 2.6 1.24 3 .42 3.2V971.2h-1V792.02l-.4-3-1.14-2.77-1.83-2.4-2.4-1.82-2.75-1.14-3-.4h-43.5v-1h43.55z" stroke="#e81313" stroke-width=".05" fill="#e81313"/><path d="M1564.5 780.5h-.68l.33-1h.35z" fill="#e81313"/><path d="M1564.52 780.52h-.73l.33-1.04h.4zm-.36-1l-.3.96h.6v-.96z" stroke="#e81313" stroke-width=".05" fill="#e81313"/><path d="M1540 1158.38l-4.64-14.26h9.28z" fill="#e81313"/><path d="M1540 1160l-5.32-16.38h10.64zm-3.95-15.38l3.95 12.14 3.95-12.14z" stroke="#e81313" stroke-width=".05" fill="#e81313"/><g><use xlink:href="#W" transform="matrix(1,0,0,1,1608.525,971.1917252453529) translate(0.005000000000000782 14.4)"/></g><path d="M1990.5 1118.03l-.42 3.2-1.24 3-2 2.6-2.6 2-3 1.25-3.2.42h-426l-3.02.4-2.76 1.14-2.4 1.83-1.82 2.4-1.14 2.75-.4 3v1.6h-1v-1.65l.42-3.2 1.24-3 2-2.6 2.6-2 3-1.25 3.2-.42h426l3.02-.4 2.76-1.14 2.4-1.83 1.82-2.4 1.14-2.75.4-3V874.4h1zm-9.26-668.1l3 1.23 2.6 2 2 2.6 1.24 3 .42 3.2V852.8h-1V462.03l-.4-3-1.14-2.77-1.83-2.4-2.4-1.82-2.75-1.14-3-.4H1657.7v-1h320.33z" stroke="#e81313" stroke-width=".05" fill="#e81313"/><path d="M1657.7 450.5h-.9l.6-.76-.3-.24h.6z" fill="#e81313"/><path d="M1657.73 450.52h-.98l.6-.77-.3-.27h.68zm-.55-1l.25.22-.57.74h.82v-.96z" stroke="#e81313" stroke-width=".05" fill="#e81313"/><path d="M1540 1158.38l-4.64-14.26h9.28z" fill="#e81313"/><path d="M1540 1160l-5.32-16.38h10.64zm-3.95-15.38l3.95 12.14 3.95-12.14z" stroke="#e81313" stroke-width=".05" fill="#e81313"/><g><use xlink:href="#W" transform="matrix(1,0,0,1,1978.525,852.7980513592579) translate(0.005000000000000782 14.4)"/></g><path d="M1981.24 259.92l3 1.24 2.6 2 2 2.6 1.24 3 .42 3.2v171.07h-1v-171l-.4-3-1.14-2.77-1.83-2.4-2.4-1.82-2.75-1.14-3-.4h-68.27v-1h68.33zm-373.68.58v-1h279.2v1z" stroke="#e81313" stroke-width=".05" fill="#e81313"/><path d="M1607.57 260.5h-.67l.32-1h.35z" fill="#e81313"/><path d="M1607.6 260.52h-.74l.34-1.04h.4zm-.36-1l-.3.96h.6v-.96z" stroke="#e81313" stroke-width=".05" fill="#e81313"/><path d="M1990 457.8l-4.64-14.27h9.28z" fill="#e81313"/><path d="M1990 459.42l-5.32-16.4h10.64zm-3.95-15.4l3.95 12.16 3.95-12.15z" stroke="#e81313" stroke-width=".05" fill="#e81313"/><g><use xlink:href="#W" transform="matrix(1,0,0,1,1886.7618827426222,249.2) translate(0.005000000000000782 14.4)"/></g><defs><path fill="#3a414a" d="M206 0h-36l-40-164L89 0H53L-1-190h32L70-26l43-164h34l41 164 42-164h31" id="X"/><path fill="#3a414a" d="M114-163C36-179 61-72 57 0H25l-1-190h30c1 12-1 29 2 39 6-27 23-49 58-41v29" id="Y"/><path fill="#3a414a" d="M24-231v-30h32v30H24zM24 0v-190h32V0H24" id="Z"/><path fill="#3a414a" d="M59-47c-2 24 18 29 38 22v24C64 9 27 4 27-40v-127H5v-23h24l9-43h21v43h35v23H59v120" id="aa"/><path fill="#3a414a" d="M100-194c63 0 86 42 84 106H49c0 40 14 67 53 68 26 1 43-12 49-29l28 8c-11 28-37 45-77 45C44 4 14-33 15-96c1-61 26-98 85-98zm52 81c6-60-76-77-97-28-3 7-6 17-6 28h103" id="ab"/><path fill="#3a414a" d="M115-194c53 0 69 39 70 98 0 66-23 100-70 100C84 3 66-7 56-30L54 0H23l1-261h32v101c10-23 28-34 59-34zm-8 174c40 0 45-34 45-75 0-40-5-75-45-74-42 0-51 32-51 76 0 43 10 73 51 73" id="ac"/><path fill="#3a414a" d="M87 75C49 33 22-17 22-94c0-76 28-126 65-167h31c-38 41-64 92-64 168S80 34 118 75H87" id="ad"/><path fill="#3a414a" d="M135-143c-3-34-86-38-87 0 15 53 115 12 119 90S17 21 10-45l28-5c4 36 97 45 98 0-10-56-113-15-118-90-4-57 82-63 122-42 12 7 21 19 24 35" id="ae"/><path fill="#3a414a" d="M108 0H70L1-190h34L89-25l56-165h34" id="af"/><path fill="#3a414a" d="M100-194c62-1 85 37 85 99 1 63-27 99-86 99S16-35 15-95c0-66 28-99 85-99zM99-20c44 1 53-31 53-75 0-43-8-75-51-75s-53 32-53 75 10 74 51 75" id="ag"/><path fill="#3a414a" d="M68-38c1 34 0 65-14 84H32c9-13 17-26 17-46H33v-38h35" id="ah"/><path fill="#3a414a" d="M141-36C126-15 110 5 73 4 37 3 15-17 15-53c-1-64 63-63 125-63 3-35-9-54-41-54-24 1-41 7-42 31l-33-3c5-37 33-52 76-52 45 0 72 20 72 64v82c-1 20 7 32 28 27v20c-31 9-61-2-59-35zM48-53c0 20 12 33 32 33 41-3 63-29 60-74-43 2-92-5-92 41" id="ai"/><path fill="#3a414a" d="M117-194c89-4 53 116 60 194h-32v-121c0-31-8-49-39-48C34-167 62-67 57 0H25l-1-190h30c1 10-1 24 2 32 11-22 29-35 61-36" id="aj"/><path fill="#3a414a" d="M177-190C167-65 218 103 67 71c-23-6-38-20-44-43l32-5c15 47 100 32 89-28v-30C133-14 115 1 83 1 29 1 15-40 15-95c0-56 16-97 71-98 29-1 48 16 59 35 1-10 0-23 2-32h30zM94-22c36 0 50-32 50-73 0-42-14-75-50-75-39 0-46 34-46 75s6 73 46 73" id="ak"/><path fill="#3a414a" d="M24 0v-261h32V0H24" id="al"/><path fill="#3a414a" d="M33-261c38 41 65 92 65 168S71 34 33 75H2C39 34 66-17 66-93S39-220 2-261h31" id="am"/><g id="a"><use transform="matrix(0.06172839506172839,0,0,0.06172839506172839,0,0)" xlink:href="#X"/><use transform="matrix(0.06172839506172839,0,0,0.06172839506172839,15.987654320987653,0)" xlink:href="#Y"/><use transform="matrix(0.06172839506172839,0,0,0.06172839506172839,23.333333333333332,0)" xlink:href="#Z"/><use transform="matrix(0.06172839506172839,0,0,0.06172839506172839,28.209876543209873,0)" xlink:href="#aa"/><use transform="matrix(0.06172839506172839,0,0,0.06172839506172839,34.382716049382715,0)" xlink:href="#ab"/><use transform="matrix(0.06172839506172839,0,0,0.06172839506172839,46.72839506172839,0)" xlink:href="#ac"/><use transform="matrix(0.06172839506172839,0,0,0.06172839506172839,59.07407407407407,0)" xlink:href="#ab"/><use transform="matrix(0.06172839506172839,0,0,0.06172839506172839,71.41975308641975,0)" xlink:href="#aa"/><use transform="matrix(0.06172839506172839,0,0,0.06172839506172839,77.59259259259258,0)" xlink:href="#aa"/><use transform="matrix(0.06172839506172839,0,0,0.06172839506172839,83.76543209876542,0)" xlink:href="#ab"/><use transform="matrix(0.06172839506172839,0,0,0.06172839506172839,96.1111111111111,0)" xlink:href="#Y"/><use transform="matrix(0.06172839506172839,0,0,0.06172839506172839,103.45679012345678,0)" xlink:href="#ad"/><use transform="matrix(0.06172839506172839,0,0,0.06172839506172839,110.80246913580247,0)" xlink:href="#ae"/><use transform="matrix(0.06172839506172839,0,0,0.06172839506172839,121.91358024691358,0)" xlink:href="#ab"/><use transform="matrix(0.06172839506172839,0,0,0.06172839506172839,134.25925925925927,0)" xlink:href="#Y"/><use transform="matrix(0.06172839506172839,0,0,0.06172839506172839,141.60493827160494,0)" xlink:href="#af"/><use transform="matrix(0.06172839506172839,0,0,0.06172839506172839,152.71604938271605,0)" xlink:href="#ag"/><use transform="matrix(0.06172839506172839,0,0,0.06172839506172839,165.06172839506172,0)" xlink:href="#ah"/><use transform="matrix(0.06172839506172839,0,0,0.06172839506172839,171.23456790123456,0)" xlink:href="#ai"/><use transform="matrix(0.06172839506172839,0,0,0.06172839506172839,183.58024691358023,0)" xlink:href="#aj"/><use transform="matrix(0.06172839506172839,0,0,0.06172839506172839,195.9259259259259,0)" xlink:href="#ak"/><use transform="matrix(0.06172839506172839,0,0,0.06172839506172839,208.27160493827157,0)" xlink:href="#al"/><use transform="matrix(0.06172839506172839,0,0,0.06172839506172839,213.1481481481481,0)" xlink:href="#ab"/><use transform="matrix(0.06172839506172839,0,0,0.06172839506172839,225.49382716049377,0)" xlink:href="#am"/></g><path fill="#3a414a" d="M101-234c-31-9-42 10-38 44h38v23H63V0H32v-167H5v-23h27c-7-52 17-82 69-68v24" id="an"/><g id="b"><use transform="matrix(0.03703703703703702,0,0,0.03703703703703702,0,0)" xlink:href="#Z"/><use transform="matrix(0.03703703703703702,0,0,0.03703703703703702,2.9259259259259247,0)" xlink:href="#an"/></g><path fill="#24292f" d="M891-1484c-201 251-362 514-362 954 0 441 161 704 362 955H701C500 176 342-90 342-532c0-440 159-704 359-952h190" id="ao"/><path fill="#24292f" d="M865-914c-3-187-2-380-2-570h180v1261c0 76 1 155 6 223H877c-8-49-9-116-10-174h-5C801-44 708 26 530 26c-135 0-234-46-297-139s-95-232-95-419c0-377 131-566 392-566 176 0 271 63 335 184zm-286-51c-222 0-255 197-255 427 0 229 31 425 253 425 237 0 286-195 286-441 0-238-52-411-284-411" id="ap"/><path fill="#24292f" d="M745-142h380V0H143v-142h422v-798H246v-142h499v940zM545-1292v-192h200v192H545" id="aq"/><path fill="#24292f" d="M839-1335c-182-6-269 67-259 253h491v142H580V0H400v-940H138v-142h262c-15-293 132-408 418-402 94 2 200 7 281 21v145c-75-10-177-14-260-17" id="ar"/><path fill="#24292f" d="M-5 220v-96h1238v96H-5" id="as"/><path fill="#24292f" d="M1000-272c3 95 12 159 101 161 21 0 41-3 59-7V-6c-44 10-86 16-139 16-141 2-191-84-197-217h-6C748-76 648 20 446 20c-207 0-318-120-318-322 0-266 194-348 454-354l236-4c12-191-40-305-222-305-140 0-220 47-232 172l-188-17c33-204 181-292 423-292 255 0 401 118 401 364v466zm-683-27c0 109 63 184 175 182 166-3 259-96 306-217 24-65 20-120 20-200-232 7-501-28-501 235" id="at"/><path fill="#24292f" d="M706-1102c241 0 344 136 343 381V0H868v-695c1-168-57-273-220-268-190 6-283 138-283 336V0H185c-3-360 6-732-6-1082h170c4 54 7 126 8 185h3c63-121 164-204 346-205" id="au"/><path fill="#24292f" d="M1048-32c-2 300-135 456-433 456-222-1-358-88-400-267l184-25c22 99 100 157 222 156 184-2 248-125 248-315 0-64 3-133-2-194C807-100 706-13 524-12c-306 0-381-228-381-537 0-318 85-550 400-550 164 0 271 83 325 202h3c1-60 3-134 12-185h171c-13 339-4 702-6 1050zM585-145c210-8 284-178 284-406 0-192-52-331-177-392-33-16-69-22-104-22-223 2-259 184-259 414 0 229 31 415 256 406" id="av"/><path fill="#24292f" d="M736-142h380V0H134v-142h422v-1200H267v-142h469v1342" id="aw"/><path fill="#24292f" d="M617-1102c355 0 481 238 477 599H322c5 222 84 388 301 388 144 0 244-59 284-166l158 45C1002-72 854 20 623 20c-342 0-490-220-490-568 0-346 151-554 484-554zm291 461c-18-192-90-328-289-328-194 0-287 128-295 328h584" id="ax"/><g id="c"><use transform="matrix(0.006727430555555555,0,0,0.006727430555555555,0,0)" xlink:href="#ao"/><use transform="matrix(0.006727430555555555,0,0,0.006727430555555555,8.268012152777777,0)" xlink:href="#ap"/><use transform="matrix(0.006727430555555555,0,0,0.006727430555555555,16.536024305555554,0)" xlink:href="#aq"/><use transform="matrix(0.006727430555555555,0,0,0.006727430555555555,24.80403645833333,0)" xlink:href="#ar"/><use transform="matrix(0.006727430555555555,0,0,0.006727430555555555,33.07204861111111,0)" xlink:href="#ar"/><use transform="matrix(0.006727430555555555,0,0,0.006727430555555555,41.340060763888886,0)" xlink:href="#as"/><use transform="matrix(0.006727430555555555,0,0,0.006727430555555555,49.608072916666664,0)" xlink:href="#at"/><use transform="matrix(0.006727430555555555,0,0,0.006727430555555555,57.87608506944444,0)" xlink:href="#au"/><use transform="matrix(0.006727430555555555,0,0,0.006727430555555555,66.14409722222221,0)" xlink:href="#av"/><use transform="matrix(0.006727430555555555,0,0,0.006727430555555555,74.41210937499999,0)" xlink:href="#aw"/><use transform="matrix(0.006727430555555555,0,0,0.006727430555555555,82.68012152777776,0)" xlink:href="#ax"/></g><path fill="#24292f" d="M116-571v-205l995-418v154L253-674l858 367v153" id="ay"/><use transform="matrix(0.006727430555555555,0,0,0.006727430555555555,0,0)" xlink:href="#ay" id="d"/><path fill="#24292f" d="M334-464v-160h560v160H334" id="az"/><path d="M148-1120c216-7 379-89 463-229h166v1204h353V0H157v-145h439v-1021c-79 124-254 184-448 194v-148" id="aA"/><path d="M353-779c69-51 166-92 291-90 218 3 357 100 423 255 21 52 32 109 32 170 0 305-189 464-500 464-268 0-424-116-471-335l182-21c35 130 124 212 293 209 198-4 309-114 309-313 0-182-118-282-305-282-120 0-198 45-262 101H169l47-728h801v145H382" id="aB"/><g id="e"><use transform="matrix(0.006727430555555555,0,0,0.006727430555555555,0,0)" xlink:href="#az"/><use transform="matrix(0.006727430555555555,0,0,0.006727430555555555,8.268012152777777,0)" xlink:href="#ao"/><use transform="matrix(0.006727430555555555,0,0,0.006727430555555555,16.536024305555554,0)" xlink:href="#aA"/><use transform="matrix(0.006727430555555555,0,0,0.006727430555555555,24.80403645833333,0)" xlink:href="#aB"/></g><use transform="matrix(0.006727430555555555,0,0,0.006727430555555555,0,0)" xlink:href="#az" id="f"/><path fill="#24292f" d="M873-819c-18-114-119-146-250-146-163 0-245 50-245 151 0 151 170 148 294 185 182 54 388 94 388 320 0 240-189 325-439 329-245 4-410-69-454-268l159-31c24 133 136 168 295 165 144-2 270-31 270-171 0-164-195-160-331-202-167-52-350-87-350-299 0-218 173-315 413-313 220 2 373 77 412 260" id="aC"/><path fill="#24292f" d="M698-1104c312 3 392 244 392 558 0 315-82 566-392 566-169 0-277-65-331-184h-5c8 188 2 394 4 589H185V-858c0-76-1-156-6-224h175c6 52 9 120 10 178h4c58-122 150-202 330-200zm-49 991c225 0 255-203 255-433 0-225-32-419-253-419-236 0-285 192-285 441 0 237 53 411 283 411" id="aD"/><path fill="#24292f" d="M932 0L611-444 288 0H94l415-556-397-526h199l300 421 298-421h201L713-558 1133 0H932" id="aE"/><path fill="#24292f" d="M631 20c-350 0-501-215-501-562 0-355 162-560 502-560 250 0 399 118 446 323l-192 14c-23-124-109-196-262-196-242 0-305 171-305 415 1 245 61 427 304 427 151 0 248-77 267-215l190 12C1039-107 883 20 631 20" id="aF"/><path fill="#24292f" d="M528-1484c201 248 357 511 357 952 0 442-156 709-357 957H336C537 174 700-89 700-530c0-440-163-703-364-954h192" id="aG"/><g id="g"><use transform="matrix(0.006727430555555555,0,0,0.006727430555555555,0,0)" xlink:href="#aC"/><use transform="matrix(0.006727430555555555,0,0,0.006727430555555555,8.268012152777777,0)" xlink:href="#aD"/><use transform="matrix(0.006727430555555555,0,0,0.006727430555555555,16.536024305555554,0)" xlink:href="#ax"/><use transform="matrix(0.006727430555555555,0,0,0.006727430555555555,24.80403645833333,0)" xlink:href="#ax"/><use transform="matrix(0.006727430555555555,0,0,0.006727430555555555,33.07204861111111,0)" xlink:href="#ap"/><use transform="matrix(0.006727430555555555,0,0,0.006727430555555555,41.340060763888886,0)" xlink:href="#as"/><use transform="matrix(0.006727430555555555,0,0,0.006727430555555555,49.608072916666664,0)" xlink:href="#ax"/><use transform="matrix(0.006727430555555555,0,0,0.006727430555555555,57.87608506944444,0)" xlink:href="#aE"/><use transform="matrix(0.006727430555555555,0,0,0.006727430555555555,66.14409722222221,0)" xlink:href="#ax"/><use transform="matrix(0.006727430555555555,0,0,0.006727430555555555,74.41210937499999,0)" xlink:href="#aF"/><use transform="matrix(0.006727430555555555,0,0,0.006727430555555555,82.68012152777776,0)" xlink:href="#aG"/></g><path fill="#24292f" d="M531 425v-1909h166V425H531" id="aH"/><g id="h"><use transform="matrix(0.006727430555555555,0,0,0.006727430555555555,0,0)" xlink:href="#aH"/><use transform="matrix(0.006727430555555555,0,0,0.006727430555555555,8.268012152777777,0)" xlink:href="#aH"/></g><g id="i"><use transform="matrix(0.006727430555555555,0,0,0.006727430555555555,0,0)" xlink:href="#ap"/><use transform="matrix(0.006727430555555555,0,0,0.006727430555555555,8.268012152777777,0)" xlink:href="#aq"/><use transform="matrix(0.006727430555555555,0,0,0.006727430555555555,16.536024305555554,0)" xlink:href="#ar"/><use transform="matrix(0.006727430555555555,0,0,0.006727430555555555,24.80403645833333,0)" xlink:href="#ar"/><use transform="matrix(0.006727430555555555,0,0,0.006727430555555555,33.07204861111111,0)" xlink:href="#as"/><use transform="matrix(0.006727430555555555,0,0,0.006727430555555555,41.340060763888886,0)" xlink:href="#at"/><use transform="matrix(0.006727430555555555,0,0,0.006727430555555555,49.608072916666664,0)" xlink:href="#au"/><use transform="matrix(0.006727430555555555,0,0,0.006727430555555555,57.87608506944444,0)" xlink:href="#av"/><use transform="matrix(0.006727430555555555,0,0,0.006727430555555555,66.14409722222221,0)" xlink:href="#aw"/><use transform="matrix(0.006727430555555555,0,0,0.006727430555555555,74.41210937499999,0)" xlink:href="#ax"/></g><path fill="#24292f" d="M116-154v-153l858-367-858-366v-154l995 418v205" id="aI"/><use transform="matrix(0.006727430555555555,0,0,0.006727430555555555,0,0)" xlink:href="#aI" id="j"/><g id="k"><use transform="matrix(0.006727430555555555,0,0,0.006727430555555555,0,0)" xlink:href="#aA"/><use transform="matrix(0.006727430555555555,0,0,0.006727430555555555,8.268012152777777,0)" xlink:href="#aB"/></g><g id="l"><use transform="matrix(0.006727430555555555,0,0,0.006727430555555555,0,0)" xlink:href="#aC"/><use transform="matrix(0.006727430555555555,0,0,0.006727430555555555,8.268012152777777,0)" xlink:href="#aD"/><use transform="matrix(0.006727430555555555,0,0,0.006727430555555555,16.536024305555554,0)" xlink:href="#ax"/><use transform="matrix(0.006727430555555555,0,0,0.006727430555555555,24.80403645833333,0)" xlink:href="#ax"/><use transform="matrix(0.006727430555555555,0,0,0.006727430555555555,33.07204861111111,0)" xlink:href="#ap"/><use transform="matrix(0.006727430555555555,0,0,0.006727430555555555,41.340060763888886,0)" xlink:href="#as"/><use transform="matrix(0.006727430555555555,0,0,0.006727430555555555,49.608072916666664,0)" xlink:href="#ax"/><use transform="matrix(0.006727430555555555,0,0,0.006727430555555555,57.87608506944444,0)" xlink:href="#aE"/><use transform="matrix(0.006727430555555555,0,0,0.006727430555555555,66.14409722222221,0)" xlink:href="#ax"/><use transform="matrix(0.006727430555555555,0,0,0.006727430555555555,74.41210937499999,0)" xlink:href="#aF"/><use transform="matrix(0.006727430555555555,0,0,0.006727430555555555,82.68012152777776,0)" xlink:href="#aG"/></g><g id="m"><use transform="matrix(0.0078125,0,0,0.0078125,0,0)" xlink:href="#ap"/><use transform="matrix(0.0078125,0,0,0.0078125,9.6015625,0)" xlink:href="#aq"/><use transform="matrix(0.0078125,0,0,0.0078125,19.203125,0)" xlink:href="#ar"/><use transform="matrix(0.0078125,0,0,0.0078125,28.8046875,0)" xlink:href="#ar"/><use transform="matrix(0.0078125,0,0,0.0078125,38.40625,0)" xlink:href="#as"/><use transform="matrix(0.0078125,0,0,0.0078125,48.0078125,0)" xlink:href="#at"/><use transform="matrix(0.0078125,0,0,0.0078125,57.609375,0)" xlink:href="#au"/><use transform="matrix(0.0078125,0,0,0.0078125,67.2109375,0)" xlink:href="#av"/><use transform="matrix(0.0078125,0,0,0.0078125,76.8125,0)" xlink:href="#aw"/><use transform="matrix(0.0078125,0,0,0.0078125,86.4140625,0)" xlink:href="#ax"/></g><path fill="#24292f" d="M116-856v-148h995v148H116zm0 512v-148h995v148H116" id="aJ"/><use transform="matrix(0.0078125,0,0,0.0078125,0,0)" xlink:href="#aJ" id="n"/><path fill="#24292f" d="M839-1102c70 0 148 7 206 17v167c-112-18-268-36-363 15-129 69-208 203-208 395V0H294c-10-367 32-789-52-1082h171c21 75 41 161 48 250h5c67-152 152-270 373-270" id="aK"/><path fill="#24292f" d="M715 0H502L69-1082h202c94 253 197 500 285 758 19 57 36 126 52 183 96-335 234-626 350-941h201" id="aL"/><path fill="#24292f" d="M615-1102c343 0 484 203 482 560-1 347-147 562-488 562-336 0-475-219-479-562-4-349 156-560 485-560zm-8 989c240 0 301-180 301-429 0-245-55-427-290-427-236 0-299 181-299 427 0 243 61 429 288 429" id="aM"/><path fill="#24292f" d="M496 0v-299h235V0H496" id="aN"/><path d="M839-1102c70 0 148 7 206 17v167c-112-18-268-36-363 15-129 69-208 203-208 395V0H294c-10-367 32-789-52-1082h171c21 75 41 161 48 250h5c67-152 152-270 373-270" id="aO"/><path d="M617-1102c355 0 481 238 477 599H322c5 222 84 388 301 388 144 0 244-59 284-166l158 45C1002-72 854 20 623 20c-342 0-490-220-490-568 0-346 151-554 484-554zm291 461c-18-192-90-328-289-328-194 0-287 128-295 328h584" id="aP"/><path d="M1000-272c3 95 12 159 101 161 21 0 41-3 59-7V-6c-44 10-86 16-139 16-141 2-191-84-197-217h-6C748-76 648 20 446 20c-207 0-318-120-318-322 0-266 194-348 454-354l236-4c12-191-40-305-222-305-140 0-220 47-232 172l-188-17c33-204 181-292 423-292 255 0 401 118 401 364v466zm-683-27c0 109 63 184 175 182 166-3 259-96 306-217 24-65 20-120 20-200-232 7-501-28-501 235" id="aQ"/><path d="M865-914c-3-187-2-380-2-570h180v1261c0 76 1 155 6 223H877c-8-49-9-116-10-174h-5C801-44 708 26 530 26c-135 0-234-46-297-139s-95-232-95-419c0-377 131-566 392-566 176 0 271 63 335 184zm-286-51c-222 0-255 197-255 427 0 229 31 425 253 425 237 0 286-195 286-441 0-238-52-411-284-411" id="aR"/><g id="o"><use transform="matrix(0.0078125,0,0,0.0078125,0,0)" xlink:href="#aC"/><use transform="matrix(0.0078125,0,0,0.0078125,9.6015625,0)" xlink:href="#ax"/><use transform="matrix(0.0078125,0,0,0.0078125,19.203125,0)" xlink:href="#aK"/><use transform="matrix(0.0078125,0,0,0.0078125,28.8046875,0)" xlink:href="#aL"/><use transform="matrix(0.0078125,0,0,0.0078125,38.40625,0)" xlink:href="#aM"/><use transform="matrix(0.0078125,0,0,0.0078125,48.0078125,0)" xlink:href="#aN"/><use transform="matrix(0.0078125,0,0,0.0078125,57.609375,0)" xlink:href="#aO"/><use transform="matrix(0.0078125,0,0,0.0078125,67.2109375,0)" xlink:href="#aP"/><use transform="matrix(0.0078125,0,0,0.0078125,76.8125,0)" xlink:href="#aQ"/><use transform="matrix(0.0078125,0,0,0.0078125,86.4140625,0)" xlink:href="#aR"/><use transform="matrix(0.0078125,0,0,0.0078125,96.015625,0)" xlink:href="#ao"/><use transform="matrix(0.0078125,0,0,0.0078125,105.6171875,0)" xlink:href="#aG"/></g><use transform="matrix(0.0078125,0,0,0.0078125,0,0)" xlink:href="#az" id="p"/><g id="q"><use transform="matrix(0.0078125,0,0,0.0078125,0,0)" xlink:href="#at"/><use transform="matrix(0.0078125,0,0,0.0078125,9.6015625,0)" xlink:href="#au"/><use transform="matrix(0.0078125,0,0,0.0078125,19.203125,0)" xlink:href="#av"/><use transform="matrix(0.0078125,0,0,0.0078125,28.8046875,0)" xlink:href="#aw"/><use transform="matrix(0.0078125,0,0,0.0078125,38.40625,0)" xlink:href="#ax"/></g><path fill="#24292f" d="M614-1226c-167 1-283 53-283 213 0 183 186 193 334 234 230 63 463 120 463 409 0 286-219 387-518 390C309 23 131-98 79-338l185-37c34 165 149 248 351 246 184-2 324-58 324-238 0-203-207-221-372-266-210-57-422-111-422-377 0-267 201-356 470-360 279-5 430 101 480 324l-188 33c-28-141-121-215-293-213" id="aS"/><path fill="#24292f" d="M682 16c-209 0-323-80-324-285v-671H190v-142h170l58-282h120v282h432v142H538v652c2 114 60 155 182 155 106 0 209-16 297-34v137C921-4 806 16 682 16" id="aT"/><path fill="#24292f" d="M908-845H766l-40-639h224zm-449 0H318l-41-639h224" id="aU"/><path fill="#24292f" d="M1034 0L896-382H333L196 0H0l510-1349h217L1228 0h-194zM847-531c-77-225-157-447-231-674-69 231-154 451-232 674h463" id="aV"/><path fill="#24292f" d="M709-1193V0H519v-1193H76v-156h1076v156H709" id="aW"/><path fill="#24292f" d="M162 0v-1349h919v156H353v422h668v154H353v461h769V0H162" id="aX"/><path fill="#24292f" d="M912-211c-10-84-18-177-18-274v-864h172V0H836L316-1130c7 79 16 167 16 254V0H162v-1349h222" id="aY"/><path fill="#24292f" d="M202-1349h823v156H709v1037h316V0H202v-156h316v-1037H202v-156" id="aZ"/><path fill="#24292f" d="M102-681c0-398 126-689 513-689 165 0 291 58 379 174s132 287 132 515c-1 318-88 554-298 657-123 61-317 58-438-3-206-104-288-341-288-654zm749 406c94-160 97-656-5-807-57-85-130-132-231-132-104 0-178 47-234 132-101 153-99 655 1 809 57 89 130 138 232 138 109 0 184-49 237-140" id="ba"/><path fill="#24292f" d="M689-397H541l-24-951h196zM515 0v-201h194V0H515" id="bb"/><g id="t"><use transform="matrix(0.0078125,0,0,0.0078125,0,0)" xlink:href="#aS"/><use transform="matrix(0.0078125,0,0,0.0078125,9.6015625,0)" xlink:href="#ax"/><use transform="matrix(0.0078125,0,0,0.0078125,19.203125,0)" xlink:href="#aK"/><use transform="matrix(0.0078125,0,0,0.0078125,28.8046875,0)" xlink:href="#aq"/><use transform="matrix(0.0078125,0,0,0.0078125,38.40625,0)" xlink:href="#at"/><use transform="matrix(0.0078125,0,0,0.0078125,48.0078125,0)" xlink:href="#aw"/><use transform="matrix(0.0078125,0,0,0.0078125,57.609375,0)" xlink:href="#aN"/><use transform="matrix(0.0078125,0,0,0.0078125,67.2109375,0)" xlink:href="#aD"/><use transform="matrix(0.0078125,0,0,0.0078125,76.8125,0)" xlink:href="#aK"/><use transform="matrix(0.0078125,0,0,0.0078125,86.4140625,0)" xlink:href="#aq"/><use transform="matrix(0.0078125,0,0,0.0078125,96.015625,0)" xlink:href="#au"/><use transform="matrix(0.0078125,0,0,0.0078125,105.6171875,0)" xlink:href="#aT"/><use transform="matrix(0.0078125,0,0,0.0078125,115.21875,0)" xlink:href="#aw"/><use transform="matrix(0.0078125,0,0,0.0078125,124.8203125,0)" xlink:href="#au"/><use transform="matrix(0.0078125,0,0,0.0078125,134.421875,0)" xlink:href="#ao"/><use transform="matrix(0.0078125,0,0,0.0078125,144.0234375,0)" xlink:href="#aU"/><use transform="matrix(0.0078125,0,0,0.0078125,153.625,0)" xlink:href="#aV"/><use transform="matrix(0.0078125,0,0,0.0078125,163.2265625,0)" xlink:href="#aW"/><use transform="matrix(0.0078125,0,0,0.0078125,172.828125,0)" xlink:href="#aW"/><use transform="matrix(0.0078125,0,0,0.0078125,182.4296875,0)" xlink:href="#aX"/><use transform="matrix(0.0078125,0,0,0.0078125,192.03125,0)" xlink:href="#aY"/><use transform="matrix(0.0078125,0,0,0.0078125,201.6328125,0)" xlink:href="#aW"/><use transform="matrix(0.0078125,0,0,0.0078125,211.234375,0)" xlink:href="#aZ"/><use transform="matrix(0.0078125,0,0,0.0078125,220.8359375,0)" xlink:href="#ba"/><use transform="matrix(0.0078125,0,0,0.0078125,230.4375,0)" xlink:href="#aY"/><use transform="matrix(0.0078125,0,0,0.0078125,240.0390625,0)" xlink:href="#bb"/></g><path fill="#24292f" d="M655-135c108 0 195-33 260-74v-336H622v-160h479v572C981-54 839 20 639 20c-388 0-526-306-526-701 0-406 129-689 529-689 261 0 392 137 461 331l-171 56c-47-131-122-231-288-231-281 0-330 245-330 533 0 179 28 314 84 407s142 139 257 139" id="bc"/><path fill="#24292f" d="M237 0v-1349h191v1193h672V0H237" id="bd"/><g id="u"><use transform="matrix(0.0078125,0,0,0.0078125,0,0)" xlink:href="#aV"/><use transform="matrix(0.0078125,0,0,0.0078125,9.6015625,0)" xlink:href="#aY"/><use transform="matrix(0.0078125,0,0,0.0078125,19.203125,0)" xlink:href="#bc"/><use transform="matrix(0.0078125,0,0,0.0078125,28.8046875,0)" xlink:href="#bd"/><use transform="matrix(0.0078125,0,0,0.0078125,38.40625,0)" xlink:href="#aX"/></g><path fill="#24292f" d="M473-1349c438-1 655 221 652 661C1122-268 945-8 532 0H162v-1349h311zm42 1193c308-4 416-205 418-532 2-330-131-509-459-505H353v1037h162" id="be"/><path fill="#24292f" d="M285-1169c8 382 2 780 4 1169H129v-1349h237c86 239 188 461 253 720 69-258 169-481 255-720h225V0H937c2-390-5-788 6-1169-75 255-170 488-259 729H547c-90-240-185-475-262-729" id="bf"/><g id="w"><use transform="matrix(0.0078125,0,0,0.0078125,0,0)" xlink:href="#be"/><use transform="matrix(0.0078125,0,0,0.0078125,9.6015625,0)" xlink:href="#aX"/><use transform="matrix(0.0078125,0,0,0.0078125,19.203125,0)" xlink:href="#bf"/><use transform="matrix(0.0078125,0,0,0.0078125,28.8046875,0)" xlink:href="#aV"/><use transform="matrix(0.0078125,0,0,0.0078125,38.40625,0)" xlink:href="#aY"/><use transform="matrix(0.0078125,0,0,0.0078125,48.0078125,0)" xlink:href="#be"/><use transform="matrix(0.0078125,0,0,0.0078125,57.609375,0)" xlink:href="#aX"/></g><path fill="#24292f" d="M622-1349c296 4 497 117 497 404 0 282-193 424-485 431H353V0H162v-1349h460zm-15 684c195-3 320-88 320-277 0-184-129-255-328-254H353v531h254" id="bg"/><path fill="#24292f" d="M1121-976c0 225-142 341-344 379L1177 0H957L591-575H353V0H162v-1349h482c281 3 477 100 477 373zM633-726c181-1 296-73 296-247 0-149-101-223-304-223H353v470h280" id="bh"/><path fill="#24292f" d="M259 363l169-662h265L382 363H259" id="bi"/><g id="x"><use transform="matrix(0.0078125,0,0,0.0078125,0,0)" xlink:href="#aZ"/><use transform="matrix(0.0078125,0,0,0.0078125,9.6015625,0)" xlink:href="#bf"/><use transform="matrix(0.0078125,0,0,0.0078125,19.203125,0)" xlink:href="#bg"/><use transform="matrix(0.0078125,0,0,0.0078125,28.8046875,0)" xlink:href="#ba"/><use transform="matrix(0.0078125,0,0,0.0078125,38.40625,0)" xlink:href="#bh"/><use transform="matrix(0.0078125,0,0,0.0078125,48.0078125,0)" xlink:href="#aW"/><use transform="matrix(0.0078125,0,0,0.0078125,57.609375,0)" xlink:href="#aV"/><use transform="matrix(0.0078125,0,0,0.0078125,67.2109375,0)" xlink:href="#aY"/><use transform="matrix(0.0078125,0,0,0.0078125,76.8125,0)" xlink:href="#aW"/><use transform="matrix(0.0078125,0,0,0.0078125,86.4140625,0)" xlink:href="#bi"/></g><g id="y"><use transform="matrix(0.0078125,0,0,0.0078125,0,0)" xlink:href="#bd"/><use transform="matrix(0.0078125,0,0,0.0078125,9.6015625,0)" xlink:href="#aX"/></g><path fill="#24292f" d="M604-135c236 0 291-142 291-376v-838h190v859c5 340-142 510-480 510-326 0-463-164-463-492v-877h191v851c-3 222 46 363 271 363" id="bj"/><g id="z"><use transform="matrix(0.0078125,0,0,0.0078125,0,0)" xlink:href="#bf"/><use transform="matrix(0.0078125,0,0,0.0078125,9.6015625,0)" xlink:href="#ba"/><use transform="matrix(0.0078125,0,0,0.0078125,19.203125,0)" xlink:href="#aW"/><use transform="matrix(0.0078125,0,0,0.0078125,28.8046875,0)" xlink:href="#aX"/><use transform="matrix(0.0078125,0,0,0.0078125,38.40625,0)" xlink:href="#bj"/><use transform="matrix(0.0078125,0,0,0.0078125,48.0078125,0)" xlink:href="#bh"/></g><g id="A"><use transform="matrix(0.0078125,0,0,0.0078125,0,0)" xlink:href="#bg"/><use transform="matrix(0.0078125,0,0,0.0078125,9.6015625,0)" xlink:href="#aX"/><use transform="matrix(0.0078125,0,0,0.0078125,19.203125,0)" xlink:href="#bj"/><use transform="matrix(0.0078125,0,0,0.0078125,28.8046875,0)" xlink:href="#aW"/></g><g id="B"><use transform="matrix(0.0078125,0,0,0.0078125,0,0)" xlink:href="#aX"/><use transform="matrix(0.0078125,0,0,0.0078125,9.6015625,0)" xlink:href="#aW"/><use transform="matrix(0.0078125,0,0,0.0078125,19.203125,0)" xlink:href="#bh"/><use transform="matrix(0.0078125,0,0,0.0078125,28.8046875,0)" xlink:href="#aX"/></g><path fill="#24292f" d="M650-1214c-281 0-336 244-336 533 0 295 60 546 347 546 188 0 263-142 322-282l159 65C1058-155 935 20 659 20c-401 0-546-295-546-701 0-407 135-689 536-689 264 0 391 146 466 335l-168 65c-47-129-127-244-297-244" id="bk"/><g id="C"><use transform="matrix(0.0078125,0,0,0.0078125,0,0)" xlink:href="#be"/><use transform="matrix(0.0078125,0,0,0.0078125,9.6015625,0)" xlink:href="#aX"/><use transform="matrix(0.0078125,0,0,0.0078125,19.203125,0)" xlink:href="#bk"/><use transform="matrix(0.0078125,0,0,0.0078125,28.8046875,0)" xlink:href="#aV"/><use transform="matrix(0.0078125,0,0,0.0078125,38.40625,0)" xlink:href="#bd"/><use transform="matrix(0.0078125,0,0,0.0078125,48.0078125,0)" xlink:href="#aX"/><use transform="matrix(0.0078125,0,0,0.0078125,57.609375,0)" xlink:href="#aU"/><use transform="matrix(0.0078125,0,0,0.0078125,67.2109375,0)" xlink:href="#aG"/></g><path fill="#24292f" d="M528 20c-247 0-343-132-343-381v-721h180v686c-4 177 45 284 224 277 194-8 279-136 279-336v-627h181c3 360-6 732 6 1082H885c-4-54-7-126-8-185h-3C809-64 714 20 528 20" id="bl"/><g id="E"><use transform="matrix(0.0078125,0,0,0.0078125,0,0)" xlink:href="#aF"/><use transform="matrix(0.0078125,0,0,0.0078125,9.6015625,0)" xlink:href="#aM"/><use transform="matrix(0.0078125,0,0,0.0078125,19.203125,0)" xlink:href="#ap"/><use transform="matrix(0.0078125,0,0,0.0078125,28.8046875,0)" xlink:href="#ax"/><use transform="matrix(0.0078125,0,0,0.0078125,38.40625,0)" xlink:href="#as"/><use transform="matrix(0.0078125,0,0,0.0078125,48.0078125,0)" xlink:href="#ax"/><use transform="matrix(0.0078125,0,0,0.0078125,57.609375,0)" xlink:href="#aK"/><use transform="matrix(0.0078125,0,0,0.0078125,67.2109375,0)" xlink:href="#aK"/><use transform="matrix(0.0078125,0,0,0.0078125,76.8125,0)" xlink:href="#ax"/><use transform="matrix(0.0078125,0,0,0.0078125,86.4140625,0)" xlink:href="#bl"/><use transform="matrix(0.0078125,0,0,0.0078125,96.015625,0)" xlink:href="#aK"/></g><path fill="#24292f" d="M148-1120c216-7 379-89 463-229h166v1204h353V0H157v-145h439v-1021c-79 124-254 184-448 194v-148" id="bm"/><use transform="matrix(0.0078125,0,0,0.0078125,0,0)" xlink:href="#bm" id="F"/><path fill="#3a414a" d="M141 0L90-78 38 0H4l68-98-65-92h35l48 74 47-74h35l-64 92 68 98h-35" id="bn"/><g id="G"><use transform="matrix(0.049382716049382706,0,0,0.049382716049382706,0,0)" xlink:href="#ab"/><use transform="matrix(0.049382716049382706,0,0,0.049382716049382706,9.87654320987654,0)" xlink:href="#bn"/><use transform="matrix(0.049382716049382706,0,0,0.049382716049382706,18.76543209876543,0)" xlink:href="#Z"/><use transform="matrix(0.049382716049382706,0,0,0.049382716049382706,22.666666666666664,0)" xlink:href="#aa"/></g><path fill="#3a414a" d="M160-131c35 5 61 23 61 61C221 17 115-2 30 0v-248c76 3 177-17 177 60 0 33-19 50-47 57zm-97-11c50-1 110 9 110-42 0-47-63-36-110-37v79zm0 115c55-2 124 14 124-45 0-56-70-42-124-44v89" id="bo"/><path fill="#3a414a" d="M84 4C-5 8 30-112 23-190h32v120c0 31 7 50 39 49 72-2 45-101 50-169h31l1 190h-30c-1-10 1-25-2-33-11 22-28 36-60 37" id="bp"/><path fill="#3a414a" d="M106-169C34-169 62-67 57 0H25v-261h32l-1 103c12-21 28-36 61-36 89 0 53 116 60 194h-32v-121c2-32-8-49-39-48" id="bq"/><g id="H"><use transform="matrix(0.06172839506172839,0,0,0.06172839506172839,0,0)" xlink:href="#al"/><use transform="matrix(0.06172839506172839,0,0,0.06172839506172839,4.876543209876543,0)" xlink:href="#Z"/><use transform="matrix(0.06172839506172839,0,0,0.06172839506172839,9.753086419753085,0)" xlink:href="#Y"/><use transform="matrix(0.06172839506172839,0,0,0.06172839506172839,17.098765432098766,0)" xlink:href="#ab"/><use transform="matrix(0.06172839506172839,0,0,0.06172839506172839,29.444444444444443,0)" xlink:href="#bo"/><use transform="matrix(0.06172839506172839,0,0,0.06172839506172839,44.25925925925925,0)" xlink:href="#al"/><use transform="matrix(0.06172839506172839,0,0,0.06172839506172839,49.1358024691358,0)" xlink:href="#bp"/><use transform="matrix(0.06172839506172839,0,0,0.06172839506172839,61.481481481481474,0)" xlink:href="#ab"/><use transform="matrix(0.06172839506172839,0,0,0.06172839506172839,73.82716049382715,0)" xlink:href="#aa"/><use transform="matrix(0.06172839506172839,0,0,0.06172839506172839,79.99999999999999,0)" xlink:href="#ag"/><use transform="matrix(0.06172839506172839,0,0,0.06172839506172839,92.34567901234567,0)" xlink:href="#ag"/><use transform="matrix(0.06172839506172839,0,0,0.06172839506172839,104.69135802469135,0)" xlink:href="#aa"/><use transform="matrix(0.06172839506172839,0,0,0.06172839506172839,110.86419753086419,0)" xlink:href="#bq"/><use transform="matrix(0.06172839506172839,0,0,0.06172839506172839,123.20987654320987,0)" xlink:href="#ad"/><use transform="matrix(0.06172839506172839,0,0,0.06172839506172839,130.55555555555554,0)" xlink:href="#am"/></g><g id="I"><use transform="matrix(0.0078125,0,0,0.0078125,0,0)" xlink:href="#aS"/><use transform="matrix(0.0078125,0,0,0.0078125,9.6015625,0)" xlink:href="#ax"/><use transform="matrix(0.0078125,0,0,0.0078125,19.203125,0)" xlink:href="#aK"/><use transform="matrix(0.0078125,0,0,0.0078125,28.8046875,0)" xlink:href="#aq"/><use transform="matrix(0.0078125,0,0,0.0078125,38.40625,0)" xlink:href="#at"/><use transform="matrix(0.0078125,0,0,0.0078125,48.0078125,0)" xlink:href="#aw"/><use transform="matrix(0.0078125,0,0,0.0078125,57.609375,0)" xlink:href="#bm"/><use transform="matrix(0.0078125,0,0,0.0078125,67.2109375,0)" xlink:href="#aN"/><use transform="matrix(0.0078125,0,0,0.0078125,76.8125,0)" xlink:href="#aO"/><use transform="matrix(0.0078125,0,0,0.0078125,86.4140625,0)" xlink:href="#aP"/><use transform="matrix(0.0078125,0,0,0.0078125,96.015625,0)" xlink:href="#aQ"/><use transform="matrix(0.0078125,0,0,0.0078125,105.6171875,0)" xlink:href="#aR"/><use transform="matrix(0.0078125,0,0,0.0078125,115.21875,0)" xlink:href="#ao"/><use transform="matrix(0.0078125,0,0,0.0078125,124.8203125,0)" xlink:href="#aG"/></g><path fill="#333" d="M30-248c87 1 191-15 191 75 0 78-77 80-158 76V0H30v-248zm33 125c57 0 124 11 124-50 0-59-68-47-124-48v98" id="br"/><use transform="matrix(0.05,0,0,0.05,0,0)" xlink:href="#br" id="J"/><path fill="#333" d="M185-189c-5-48-123-54-124 2 14 75 158 14 163 119 3 78-121 87-175 55-17-10-28-26-33-46l33-7c5 56 141 63 141-1 0-78-155-14-162-118-5-82 145-84 179-34 5 7 8 16 11 25" id="bs"/><use transform="matrix(0.05,0,0,0.05,0,0)" xlink:href="#bs" id="K"/><path fill="#333" d="M190 0L58-211 59 0H30v-248h39L202-35l-2-213h31V0h-41" id="bt"/><path fill="#333" d="M84 4C-5 8 30-112 23-190h32v120c0 31 7 50 39 49 72-2 45-101 50-169h31l1 190h-30c-1-10 1-25-2-33-11 22-28 36-60 37" id="bu"/><path fill="#333" d="M210-169c-67 3-38 105-44 169h-31v-121c0-29-5-50-35-48C34-165 62-65 56 0H25l-1-190h30c1 10-1 24 2 32 10-44 99-50 107 0 11-21 27-35 58-36 85-2 47 119 55 194h-31v-121c0-29-5-49-35-48" id="bv"/><path fill="#333" d="M115-194c53 0 69 39 70 98 0 66-23 100-70 100C84 3 66-7 56-30L54 0H23l1-261h32v101c10-23 28-34 59-34zm-8 174c40 0 45-34 45-75 0-40-5-75-45-74-42 0-51 32-51 76 0 43 10 73 51 73" id="bw"/><path fill="#333" d="M100-194c63 0 86 42 84 106H49c0 40 14 67 53 68 26 1 43-12 49-29l28 8c-11 28-37 45-77 45C44 4 14-33 15-96c1-61 26-98 85-98zm52 81c6-60-76-77-97-28-3 7-6 17-6 28h103" id="bx"/><path fill="#333" d="M114-163C36-179 61-72 57 0H25l-1-190h30c1 12-1 29 2 39 6-27 23-49 58-41v29" id="by"/><g id="L"><use transform="matrix(0.05,0,0,0.05,0,0)" xlink:href="#bt"/><use transform="matrix(0.05,0,0,0.05,12.950000000000001,0)" xlink:href="#bu"/><use transform="matrix(0.05,0,0,0.05,22.950000000000003,0)" xlink:href="#bv"/><use transform="matrix(0.05,0,0,0.05,37.900000000000006,0)" xlink:href="#bw"/><use transform="matrix(0.05,0,0,0.05,47.900000000000006,0)" xlink:href="#bx"/><use transform="matrix(0.05,0,0,0.05,57.900000000000006,0)" xlink:href="#by"/></g><path fill="#333" d="M127-220V0H93v-220H8v-28h204v28h-85" id="bz"/><use transform="matrix(0.05,0,0,0.05,0,0)" xlink:href="#bz" id="M"/><path fill="#24292f" d="M904-1102c199 0 220 177 220 381V0H956v-686c-3-114 0-215-60-264-70-33-125-4-158 71-26 56-39 140-39 252V0H531v-686c-3-114-1-215-61-264-78-41-136 24-157 84-24 69-39 159-39 259V0H105c-3-360 6-732-6-1082h149c6 50 3 123 8 175 36-100 83-195 216-195 135 0 166 79 196 196 42-105 93-196 236-196" id="bA"/><g id="N"><use transform="matrix(0.0078125,0,0,0.0078125,0,0)" xlink:href="#bA"/><use transform="matrix(0.0078125,0,0,0.0078125,9.6015625,0)" xlink:href="#aM"/><use transform="matrix(0.0078125,0,0,0.0078125,19.203125,0)" xlink:href="#au"/><use transform="matrix(0.0078125,0,0,0.0078125,28.8046875,0)" xlink:href="#aT"/><use transform="matrix(0.0078125,0,0,0.0078125,38.40625,0)" xlink:href="#ax"/></g><path d="M839-1335c-182-6-269 67-259 253h491v142H580V0H400v-940H138v-142h262c-15-293 132-408 418-402 94 2 200 7 281 21v145c-75-10-177-14-260-17" id="bB"/><path d="M736-142h380V0H134v-142h422v-1200H267v-142h469v1342" id="bC"/><path d="M873-819c-18-114-119-146-250-146-163 0-245 50-245 151 0 151 170 148 294 185 182 54 388 94 388 320 0 240-189 325-439 329-245 4-410-69-454-268l159-31c24 133 136 168 295 165 144-2 270-31 270-171 0-164-195-160-331-202-167-52-350-87-350-299 0-218 173-315 413-313 220 2 373 77 412 260" id="bD"/><g id="O"><use transform="matrix(0.0078125,0,0,0.0078125,0,0)" xlink:href="#bB"/><use transform="matrix(0.0078125,0,0,0.0078125,9.6015625,0)" xlink:href="#aQ"/><use transform="matrix(0.0078125,0,0,0.0078125,19.203125,0)" xlink:href="#bC"/><use transform="matrix(0.0078125,0,0,0.0078125,28.8046875,0)" xlink:href="#bD"/><use transform="matrix(0.0078125,0,0,0.0078125,38.40625,0)" xlink:href="#aP"/></g><path d="M682 16c-209 0-323-80-324-285v-671H190v-142h170l58-282h120v282h432v142H538v652c2 114 60 155 182 155 106 0 209-16 297-34v137C921-4 806 16 682 16" id="bE"/><path d="M528 20c-247 0-343-132-343-381v-721h180v686c-4 177 45 284 224 277 194-8 279-136 279-336v-627h181c3 360-6 732 6 1082H885c-4-54-7-126-8-185h-3C809-64 714 20 528 20" id="bF"/><g id="P"><use transform="matrix(0.0078125,0,0,0.0078125,0,0)" xlink:href="#bE"/><use transform="matrix(0.0078125,0,0,0.0078125,9.6015625,0)" xlink:href="#aO"/><use transform="matrix(0.0078125,0,0,0.0078125,19.203125,0)" xlink:href="#bF"/><use transform="matrix(0.0078125,0,0,0.0078125,28.8046875,0)" xlink:href="#aP"/></g><g id="Q"><use transform="matrix(0.0078125,0,0,0.0078125,0,0)" xlink:href="#aC"/><use transform="matrix(0.0078125,0,0,0.0078125,9.6015625,0)" xlink:href="#aD"/><use transform="matrix(0.0078125,0,0,0.0078125,19.203125,0)" xlink:href="#ax"/><use transform="matrix(0.0078125,0,0,0.0078125,28.8046875,0)" xlink:href="#ax"/><use transform="matrix(0.0078125,0,0,0.0078125,38.40625,0)" xlink:href="#ap"/><use transform="matrix(0.0078125,0,0,0.0078125,48.0078125,0)" xlink:href="#as"/><use transform="matrix(0.0078125,0,0,0.0078125,57.609375,0)" xlink:href="#ax"/><use transform="matrix(0.0078125,0,0,0.0078125,67.2109375,0)" xlink:href="#aE"/><use transform="matrix(0.0078125,0,0,0.0078125,76.8125,0)" xlink:href="#ax"/><use transform="matrix(0.0078125,0,0,0.0078125,86.4140625,0)" xlink:href="#aF"/></g><use transform="matrix(0.0078125,0,0,0.0078125,0,0)" xlink:href="#aA" id="R"/><path fill="#333" d="M24-231v-30h32v30H24zM24 0v-190h32V0H24" id="bG"/><path fill="#333" d="M101-234c-31-9-42 10-38 44h38v23H63V0H32v-167H5v-23h27c-7-52 17-82 69-68v24" id="bH"/><g id="S"><use transform="matrix(0.05,0,0,0.05,0,0)" xlink:href="#bG"/><use transform="matrix(0.05,0,0,0.05,3.95,0)" xlink:href="#bH"/></g><path d="M715 0H502L69-1082h202c94 253 197 500 285 758 19 57 36 126 52 183 96-335 234-626 350-941h201" id="bI"/><path d="M745-142h380V0H143v-142h422v-798H246v-142h499v940zM545-1292v-192h200v192H545" id="bJ"/><path d="M365-904c58-129 161-200 334-200 130 0 228 46 293 138s98 233 98 420c0 189-34 331-102 425S824 20 698 20c-170 0-275-64-336-184 0 55-3 116-9 164H179c5-68 6-147 6-223v-1261h180c-2 193 4 394-4 580h4zm283 791c221 0 256-197 256-427 0-229-34-425-254-425-236 0-285 195-285 441 0 237 53 411 283 411" id="bK"/><g id="T"><use transform="matrix(0.0078125,0,0,0.0078125,0,0)" xlink:href="#ao"/><use transform="matrix(0.0078125,0,0,0.0078125,9.6015625,0)" xlink:href="#aS"/><use transform="matrix(0.0078125,0,0,0.0078125,19.203125,0)" xlink:href="#ax"/><use transform="matrix(0.0078125,0,0,0.0078125,28.8046875,0)" xlink:href="#aK"/><use transform="matrix(0.0078125,0,0,0.0078125,38.40625,0)" xlink:href="#aq"/><use transform="matrix(0.0078125,0,0,0.0078125,48.0078125,0)" xlink:href="#at"/><use transform="matrix(0.0078125,0,0,0.0078125,57.609375,0)" xlink:href="#aw"/><use transform="matrix(0.0078125,0,0,0.0078125,67.2109375,0)" xlink:href="#bm"/><use transform="matrix(0.0078125,0,0,0.0078125,76.8125,0)" xlink:href="#aN"/><use transform="matrix(0.0078125,0,0,0.0078125,86.4140625,0)" xlink:href="#aQ"/><use transform="matrix(0.0078125,0,0,0.0078125,96.015625,0)" xlink:href="#bI"/><use transform="matrix(0.0078125,0,0,0.0078125,105.6171875,0)" xlink:href="#aQ"/><use transform="matrix(0.0078125,0,0,0.0078125,115.21875,0)" xlink:href="#bJ"/><use transform="matrix(0.0078125,0,0,0.0078125,124.8203125,0)" xlink:href="#bC"/><use transform="matrix(0.0078125,0,0,0.0078125,134.421875,0)" xlink:href="#aQ"/><use transform="matrix(0.0078125,0,0,0.0078125,144.0234375,0)" xlink:href="#bK"/><use transform="matrix(0.0078125,0,0,0.0078125,153.625,0)" xlink:href="#bC"/><use transform="matrix(0.0078125,0,0,0.0078125,163.2265625,0)" xlink:href="#aP"/><use transform="matrix(0.0078125,0,0,0.0078125,172.828125,0)" xlink:href="#ao"/><use transform="matrix(0.0078125,0,0,0.0078125,182.4296875,0)" xlink:href="#aG"/></g><path fill="#333" d="M137-103V0h-34v-103L8-248h37l75 118 75-118h37" id="bL"/><path fill="#333" d="M135-143c-3-34-86-38-87 0 15 53 115 12 119 90S17 21 10-45l28-5c4 36 97 45 98 0-10-56-113-15-118-90-4-57 82-63 122-42 12 7 21 19 24 35" id="bM"/><g id="U"><use transform="matrix(0.05,0,0,0.05,0,0)" xlink:href="#bL"/><use transform="matrix(0.05,0,0,0.05,10.35,0)" xlink:href="#bx"/><use transform="matrix(0.05,0,0,0.05,20.35,0)" xlink:href="#bM"/></g><path d="M698-1104c312 3 392 244 392 558 0 315-82 566-392 566-169 0-277-65-331-184h-5c8 188 2 394 4 589H185V-858c0-76-1-156-6-224h175c6 52 9 120 10 178h4c58-122 150-202 330-200zm-49 991c225 0 255-203 255-433 0-225-32-419-253-419-236 0-285 192-285 441 0 237 53 411 283 411" id="bN"/><path d="M706-1102c241 0 344 136 343 381V0H868v-695c1-168-57-273-220-268-190 6-283 138-283 336V0H185c-3-360 6-732-6-1082h170c4 54 7 126 8 185h3c63-121 164-204 346-205" id="bO"/><g id="V"><use transform="matrix(0.0078125,0,0,0.0078125,0,0)" xlink:href="#aS"/><use transform="matrix(0.0078125,0,0,0.0078125,9.6015625,0)" xlink:href="#ax"/><use transform="matrix(0.0078125,0,0,0.0078125,19.203125,0)" xlink:href="#aK"/><use transform="matrix(0.0078125,0,0,0.0078125,28.8046875,0)" xlink:href="#aq"/><use transform="matrix(0.0078125,0,0,0.0078125,38.40625,0)" xlink:href="#at"/><use transform="matrix(0.0078125,0,0,0.0078125,48.0078125,0)" xlink:href="#aw"/><use transform="matrix(0.0078125,0,0,0.0078125,57.609375,0)" xlink:href="#aN"/><use transform="matrix(0.0078125,0,0,0.0078125,67.2109375,0)" xlink:href="#bN"/><use transform="matrix(0.0078125,0,0,0.0078125,76.8125,0)" xlink:href="#aO"/><use transform="matrix(0.0078125,0,0,0.0078125,86.4140625,0)" xlink:href="#bJ"/><use transform="matrix(0.0078125,0,0,0.0078125,96.015625,0)" xlink:href="#bO"/><use transform="matrix(0.0078125,0,0,0.0078125,105.6171875,0)" xlink:href="#bE"/><use transform="matrix(0.0078125,0,0,0.0078125,115.21875,0)" xlink:href="#bC"/><use transform="matrix(0.0078125,0,0,0.0078125,124.8203125,0)" xlink:href="#bO"/><use transform="matrix(0.0078125,0,0,0.0078125,134.421875,0)" xlink:href="#ao"/><use transform="matrix(0.0078125,0,0,0.0078125,144.0234375,0)" xlink:href="#aS"/><use transform="matrix(0.0078125,0,0,0.0078125,153.625,0)" xlink:href="#ax"/><use transform="matrix(0.0078125,0,0,0.0078125,163.2265625,0)" xlink:href="#aK"/><use transform="matrix(0.0078125,0,0,0.0078125,172.828125,0)" xlink:href="#aq"/><use transform="matrix(0.0078125,0,0,0.0078125,182.4296875,0)" xlink:href="#at"/><use transform="matrix(0.0078125,0,0,0.0078125,192.03125,0)" xlink:href="#aw"/><use transform="matrix(0.0078125,0,0,0.0078125,201.6328125,0)" xlink:href="#bm"/><use transform="matrix(0.0078125,0,0,0.0078125,211.234375,0)" xlink:href="#aN"/><use transform="matrix(0.0078125,0,0,0.0078125,220.8359375,0)" xlink:href="#aO"/><use transform="matrix(0.0078125,0,0,0.0078125,230.4375,0)" xlink:href="#aP"/><use transform="matrix(0.0078125,0,0,0.0078125,240.0390625,0)" xlink:href="#aQ"/><use transform="matrix(0.0078125,0,0,0.0078125,249.640625,0)" xlink:href="#aR"/><use transform="matrix(0.0078125,0,0,0.0078125,259.2421875,0)" xlink:href="#ao"/><use transform="matrix(0.0078125,0,0,0.0078125,268.84375,0)" xlink:href="#aG"/><use transform="matrix(0.0078125,0,0,0.0078125,278.4453125,0)" xlink:href="#aG"/></g><path fill="#333" d="M100-194c62-1 85 37 85 99 1 63-27 99-86 99S16-35 15-95c0-66 28-99 85-99zM99-20c44 1 53-31 53-75 0-43-8-75-51-75s-53 32-53 75 10 74 51 75" id="bP"/><g id="W"><use transform="matrix(0.05,0,0,0.05,0,0)" xlink:href="#bt"/><use transform="matrix(0.05,0,0,0.05,12.950000000000001,0)" xlink:href="#bP"/></g></defs></g></svg>