<svg xmlns="http://www.w3.org/2000/svg" xmlns:xlink="http://www.w3.org/1999/xlink" xmlns:lucid="lucid" width="1780" height="1420"><g transform="translate(20 20)" lucid:page-tab-id="0_0"><path d="M0 0h1870.87v2581.67H0z" fill="#fff"/><path d="M380 258c0-4.42 3.58-8 8-8h964c4.42 0 8 3.58 8 8v104c0 4.42-3.58 8-8 8H388c-4.42 0-8-3.58-8-8z" stroke="#333" fill="#ffdda6"/><path d="M478 250v120m784-120v120" stroke="#333" fill="none"/><use xlink:href="#a" transform="matrix(1,0,0,1,507.5,254.99999999999997) translate(11.27885416666669 59.630642361111114)"/><use xlink:href="#b" transform="matrix(1,0,0,1,507.5,254.99999999999997) translate(479.2888541666667 59.630642361111114)"/><use xlink:href="#c" transform="matrix(1,0,0,1,507.5,254.99999999999997) translate(515.2888541666666 59.630642361111114)"/><use xlink:href="#d" transform="matrix(1,0,0,1,507.5,254.99999999999997) translate(705.4531336805555 59.630642361111114)"/><path d="M918 0c17.67 0 32 17.9 32 40s-14.33 40-32 40h-96c-17.67 0-32-17.9-32-40s14.33-40 32-40z" stroke="#000" stroke-opacity="0" fill="#ff741d"/><use xlink:href="#e" transform="matrix(1,0,0,1,795,5) translate(8.125 38.4625)"/><path d="M658.75 128c0-4.42 3.58-8 8-8h406.5c4.42 0 8 3.58 8 8v74c0 4.42-3.58 8-8 8h-406.5c-4.42 0-8-3.58-8-8z" stroke="#333" fill="#ffdda6"/><path d="M701 120v90m338-90v90" stroke="#333" fill="none"/><use xlink:href="#f" transform="matrix(1,0,0,1,716.5625,125) translate(33.613823784722285 44.130642361111114)"/><use xlink:href="#g" transform="matrix(1,0,0,1,716.5625,125) translate(265.11816406249994 44.130642361111114)"/><path d="M929.17 153c0-4.42 3.58-8 8-8h24c4.4 0 8 3.58 8 8v24c0 4.42-3.6 8-8 8h-24c-4.42 0-8-3.58-8-8z" stroke="#333" fill="#ffd6f5"/><path d="M933.17 145v40m32-40v40" stroke="#333" fill="none"/><use xlink:href="#h" transform="matrix(1,0,0,1,939.1666666666665,150.00000000000003) translate(-5.949999999999999 18.6)"/><path d="M720 278c0-4.42 3.58-8 8-8h464c4.42 0 8 3.58 8 8v64c0 4.42-3.58 8-8 8H728c-4.42 0-8-3.58-8-8z" stroke="#333" fill="#ffd6f5"/><path d="M768 270v80m384-80v80" stroke="#333" fill="none"/><use xlink:href="#i" transform="matrix(1,0,0,1,785,274.99999999999994) translate(7.575000000000017 39.1)"/><use xlink:href="#j" transform="matrix(1,0,0,1,785,274.99999999999994) translate(336.475 39.1)"/><path d="M870 211v22.12" stroke="#333" fill="none"/><path d="M870.5 211h-1v-.5h1z" stroke="#333" stroke-width=".05" fill="#333"/><path d="M870 247.88l-4.64-14.26h9.28z" stroke="#333" fill="#333"/><path d="M840 291.4c0-4.42 3.58-8 8-8h258.5c4.42 0 8 3.58 8 8v37.2c0 4.42-3.58 8-8 8H848c-4.42 0-8-3.58-8-8z" stroke="#333" fill="#ffd6f5"/><path d="M867.45 283.4v53.2m219.6-53.2v53.2" stroke="#333" fill="none"/><use xlink:href="#k" transform="matrix(1,0,0,1,879.3125000000001,288.4000000000001) translate(0.125 25.6)"/><use xlink:href="#j" transform="matrix(1,0,0,1,879.3125000000001,288.4000000000001) translate(189.925 25.6)"/><path d="M1020 298c0-4.42 3.58-8 8-8h24c4.42 0 8 3.58 8 8v24c0 4.42-3.58 8-8 8h-24c-4.42 0-8-3.58-8-8z" stroke="#333" fill="#ffd6f5"/><path d="M1024 290v40m32-40v40" stroke="#333" fill="none"/><use xlink:href="#l" transform="matrix(1,0,0,1,1030,295.0000000000001) translate(-5.949999999999999 18.6)"/><path d="M610 418c0-4.42 3.58-8 8-8h504c4.42 0 8 3.58 8 8v84c0 4.42-3.58 8-8 8H618c-4.42 0-8-3.58-8-8z" stroke="#333" fill="#ffdda6"/><path d="M662 410v100m416-100v100" stroke="#333" fill="none"/><use xlink:href="#m" transform="matrix(1,0,0,1,680,415.0000000000001) translate(24.639756944444542 49.130642361111114)"/><use xlink:href="#g" transform="matrix(1,0,0,1,680,415.0000000000001) translate(347.0922309027777 49.130642361111114)"/><path d="M870 371v22.12" stroke="#333" fill="none"/><path d="M870.5 371h-1v-.5h1z" stroke="#333" stroke-width=".05" fill="#333"/><path d="M870 407.88l-4.64-14.26h9.28z" stroke="#333" fill="#333"/><path d="M888 448c0-4.42 3.58-8 8-8h116c4.42 0 8 3.58 8 8v24c0 4.42-3.58 8-8 8H896c-4.42 0-8-3.58-8-8z" stroke="#333" fill="#ffd6f5"/><path d="M901.2 440v40m105.6-40v40" stroke="#333" fill="none"/><use xlink:href="#n" transform="matrix(1,0,0,1,909.5,445.0000000000001) translate(-6.856250000000003 18.6)"/><path d="M0 558c0-4.42 3.58-8 8-8h1724c4.42 0 8 3.58 8 8v104c0 4.42-3.58 8-8 8H8c-4.42 0-8-3.58-8-8z" stroke="#333" fill="#ffdda6"/><path d="M174 550v120m1392-120v120" stroke="#333" fill="none"/><use xlink:href="#o" transform="matrix(1,0,0,1,222.5,555) translate(44.785907118055775 60.16362847222222)"/><use xlink:href="#p" transform="matrix(1,0,0,1,222.5,555) translate(250.15266059027795 60.16362847222222)"/><use xlink:href="#q" transform="matrix(1,0,0,1,222.5,555) translate(287.4920703125002 60.16362847222222)"/><use xlink:href="#r" transform="matrix(1,0,0,1,222.5,555) translate(692.7959071180558 60.16362847222222)"/><use xlink:href="#s" transform="matrix(1,0,0,1,222.5,555) translate(728.7959071180558 60.16362847222222)"/><use xlink:href="#t" transform="matrix(1,0,0,1,222.5,555) translate(1240.8792404513886 60.16362847222222)"/><path d="M530 578.75c0-4.42 3.58-8 8-8h904c4.42 0 8 3.58 8 8v64c0 4.4-3.58 8-8 8H538c-4.42 0-8-3.6-8-8z" stroke="#333" fill="#ffd6f5"/><path d="M622 570.75v80m736-80v80" stroke="#333" fill="none"/><use xlink:href="#u" transform="matrix(1,0,0,1,650,575.7460220318239) translate(0.07499999999998863 39.1)"/><use xlink:href="#j" transform="matrix(1,0,0,1,650,575.7460220318239) translate(673.9749999999999 39.1)"/><path d="M700 592.15c0-4.42 3.58-8 8-8h604c4.42 0 8 3.58 8 8v37.2c0 4.4-3.58 8-8 8H708c-4.42 0-8-3.6-8-8z" stroke="#333" fill="#ffd6f5"/><path d="M762 584.15v53.2m496-53.2v53.2" stroke="#333" fill="none"/><use xlink:href="#v" transform="matrix(1,0,0,1,782.5,589.1460220318238) translate(27.125 25.6)"/><use xlink:href="#j" transform="matrix(1,0,0,1,782.5,589.1460220318238) translate(421.925 25.6)"/><path d="M980 598.75c0-4.42 3.58-8 8-8h204c4.42 0 8 3.58 8 8v24c0 4.4-3.58 8-8 8H988c-4.42 0-8-3.6-8-8z" stroke="#333" fill="#ffd6f5"/><path d="M1002 590.75v40m176-40v40" stroke="#333" fill="none"/><use xlink:href="#w" transform="matrix(1,0,0,1,1012.5,595.7460220318238) translate(6.440624999999997 19.1)"/><use xlink:href="#x" transform="matrix(1,0,0,1,1012.5,595.7460220318238) translate(46.59375 19.1)"/><use xlink:href="#y" transform="matrix(1,0,0,1,1012.5,595.7460220318238) translate(65.796875 19.1)"/><use xlink:href="#z" transform="matrix(1,0,0,1,1012.5,595.7460220318238) translate(94.6015625 19.1)"/><use xlink:href="#A" transform="matrix(1,0,0,1,1012.5,595.7460220318238) translate(113.8046875 19.1)"/><path d="M870 511v22.12" stroke="#333" fill="none"/><path d="M870.5 511h-1v-.5h1z" stroke="#333" stroke-width=".05" fill="#333"/><path d="M870 547.88l-4.64-14.26h9.28z" stroke="#333" fill="#333"/><path d="M595 718c0-4.42 3.58-8 8-8h534c4.42 0 8 3.58 8 8v84c0 4.42-3.58 8-8 8H603c-4.42 0-8-3.58-8-8z" stroke="#333" fill="#ffdda6"/><path d="M650 710v100m440-100v100" stroke="#333" fill="none"/><use xlink:href="#B" transform="matrix(1,0,0,1,668.75,715.0000000000001) translate(15.469726562500114 49.130642361111114)"/><use xlink:href="#g" transform="matrix(1,0,0,1,668.75,715.0000000000001) translate(379.2622612847221 49.130642361111114)"/><path d="M893 748c0-4.42 3.58-8 8-8h136c4.42 0 8 3.58 8 8v24c0 4.42-3.58 8-8 8H901c-4.42 0-8-3.58-8-8z" stroke="#333" fill="#ffd6f5"/><path d="M908.2 740v40m121.6-40v40" stroke="#333" fill="none"/><use xlink:href="#C" transform="matrix(1,0,0,1,916.9999999999999,745.0000000000001) translate(-4.657031250000003 18.6)"/><path d="M870 671v22.12" stroke="#333" fill="none"/><path d="M870.5 671h-1v-.5h1z" stroke="#333" stroke-width=".05" fill="#333"/><path d="M870 707.88l-4.64-14.26h9.28z" stroke="#333" fill="#333"/><path d="M0 858c0-4.42 3.58-8 8-8h1724c4.42 0 8 3.58 8 8v104c0 4.42-3.58 8-8 8H8c-4.42 0-8-3.58-8-8z" stroke="#333" fill="#ffdda6"/><path d="M174 850v120m1392-120v120" stroke="#333" fill="none"/><use xlink:href="#D" transform="matrix(1,0,0,1,222.5,855.0000000000001) translate(44.785907118055775 60.16362847222222)"/><use xlink:href="#p" transform="matrix(1,0,0,1,222.5,855.0000000000001) translate(250.15266059027795 60.16362847222222)"/><use xlink:href="#q" transform="matrix(1,0,0,1,222.5,855.0000000000001) translate(287.4920703125002 60.16362847222222)"/><use xlink:href="#r" transform="matrix(1,0,0,1,222.5,855.0000000000001) translate(692.7959071180558 60.16362847222222)"/><use xlink:href="#s" transform="matrix(1,0,0,1,222.5,855.0000000000001) translate(728.7959071180558 60.16362847222222)"/><use xlink:href="#t" transform="matrix(1,0,0,1,222.5,855.0000000000001) translate(1240.8792404513886 60.16362847222222)"/><path d="M530 878.75c0-4.42 3.58-8 8-8h904c4.42 0 8 3.58 8 8v64c0 4.4-3.58 8-8 8H538c-4.42 0-8-3.6-8-8z" stroke="#333" fill="#ffd6f5"/><path d="M622 870.75v80m736-80v80" stroke="#333" fill="none"/><use xlink:href="#u" transform="matrix(1,0,0,1,650,875.7460220318237) translate(0.07499999999998863 39.1)"/><use xlink:href="#j" transform="matrix(1,0,0,1,650,875.7460220318237) translate(673.9749999999999 39.1)"/><path d="M700 892.15c0-4.42 3.58-8 8-8h604c4.42 0 8 3.58 8 8v37.2c0 4.4-3.58 8-8 8H708c-4.42 0-8-3.6-8-8z" stroke="#333" fill="#ffd6f5"/><path d="M762 884.15v53.2m496-53.2v53.2" stroke="#333" fill="none"/><use xlink:href="#v" transform="matrix(1,0,0,1,782.5,889.1460220318237) translate(27.125 25.6)"/><use xlink:href="#j" transform="matrix(1,0,0,1,782.5,889.1460220318237) translate(421.925 25.6)"/><path d="M980 898.75c0-4.42 3.58-8 8-8h204c4.42 0 8 3.58 8 8v24c0 4.4-3.58 8-8 8H988c-4.42 0-8-3.6-8-8z" stroke="#333" fill="#ffd6f5"/><path d="M1002 890.75v40m176-40v40" stroke="#333" fill="none"/><use xlink:href="#w" transform="matrix(1,0,0,1,1012.5,895.7460220318237) translate(1.6398437499999972 19.1)"/><use xlink:href="#x" transform="matrix(1,0,0,1,1012.5,895.7460220318237) translate(41.79296875 19.1)"/><use xlink:href="#E" transform="matrix(1,0,0,1,1012.5,895.7460220318237) translate(60.99609375 19.1)"/><use xlink:href="#z" transform="matrix(1,0,0,1,1012.5,895.7460220318237) translate(99.40234375 19.1)"/><use xlink:href="#A" transform="matrix(1,0,0,1,1012.5,895.7460220318237) translate(118.60546875 19.1)"/><path d="M870 971v22.12" stroke="#333" fill="none"/><path d="M870.5 971h-1v-.5h1z" stroke="#333" stroke-width=".05" fill="#333"/><path d="M870 1007.88l-4.64-14.26h9.28z" stroke="#333" fill="#333"/><path d="M870 811v22.12" stroke="#333" fill="none"/><path d="M870.5 811h-1v-.5h1z" stroke="#333" stroke-width=".05" fill="#333"/><path d="M870 847.88l-4.64-14.26h9.28z" stroke="#333" fill="#333"/><path d="M595 1018c0-4.42 3.58-8 8-8h534c4.42 0 8 3.58 8 8v84c0 4.42-3.58 8-8 8H603c-4.42 0-8-3.58-8-8z" stroke="#333" fill="#ffdda6"/><path d="M650 1010v100m440-100v100" stroke="#333" fill="none"/><g><use xlink:href="#F" transform="matrix(1,0,0,1,668.75,1015) translate(15.469726562500114 49.130642361111114)"/><use xlink:href="#g" transform="matrix(1,0,0,1,668.75,1015) translate(379.2622612847221 49.130642361111114)"/></g><path d="M893 1048c0-4.42 3.58-8 8-8h136c4.42 0 8 3.58 8 8v24c0 4.42-3.58 8-8 8H901c-4.42 0-8-3.58-8-8z" stroke="#333" fill="#ffd6f5"/><path d="M908.2 1040v40m121.6-40v40" stroke="#333" fill="none"/><g><use xlink:href="#G" transform="matrix(1,0,0,1,916.9999999999999,1045) translate(-4.657031250000003 18.6)"/></g><path d="M102.33 1158c0-4.42 3.6-8 8-8h1519.34c4.4 0 8 3.58 8 8v104c0 4.42-3.6 8-8 8H110.33c-4.4 0-8-3.58-8-8z" stroke="#333" fill="#ffdda6"/><path d="M255.87 1150v120m1228.26-120v120" stroke="#333" fill="none"/><g><use xlink:href="#H" transform="matrix(1,0,0,1,299.24999999999994,1155) translate(4.285907118055775 60.16362847222222)"/><use xlink:href="#r" transform="matrix(1,0,0,1,299.24999999999994,1155) translate(580.2959071180558 60.16362847222222)"/><use xlink:href="#s" transform="matrix(1,0,0,1,299.24999999999994,1155) translate(616.2959071180558 60.16362847222222)"/><use xlink:href="#t" transform="matrix(1,0,0,1,299.24999999999994,1155) translate(1128.3792404513886 60.16362847222222)"/></g><path d="M507 1178.75c0-4.42 3.58-8 8-8h904c4.42 0 8 3.58 8 8v64c0 4.4-3.58 8-8 8H515c-4.42 0-8-3.6-8-8z" stroke="#333" fill="#ffd6f5"/><path d="M599 1170.75v80m736-80v80" stroke="#333" fill="none"/><g><use xlink:href="#u" transform="matrix(1,0,0,1,627,1175.7460220318237) translate(0.07499999999998863 39.1)"/><use xlink:href="#j" transform="matrix(1,0,0,1,627,1175.7460220318237) translate(673.9749999999999 39.1)"/></g><path d="M674.25 1192.15c0-4.42 3.58-8 8-8h604c4.42 0 8 3.58 8 8v37.2c0 4.4-3.58 8-8 8h-604c-4.42 0-8-3.6-8-8z" stroke="#333" fill="#ffd6f5"/><path d="M736.25 1184.15v53.2m496-53.2v53.2" stroke="#333" fill="none"/><g><use xlink:href="#I" transform="matrix(1,0,0,1,756.75,1189.1460220318236) translate(34.625 25.6)"/><use xlink:href="#j" transform="matrix(1,0,0,1,756.75,1189.1460220318236) translate(414.425 25.6)"/></g><path d="M937 1198c0-4.42 3.58-8 8-8h204c4.42 0 8 3.58 8 8v24c0 4.42-3.58 8-8 8H945c-4.42 0-8-3.58-8-8z" stroke="#333" fill="#ffd6f5"/><path d="M959 1190v40m176-40v40" stroke="#333" fill="none"/><g><use xlink:href="#w" transform="matrix(1,0,0,1,969.5,1195) translate(1.6398437499999972 19.1)"/><use xlink:href="#x" transform="matrix(1,0,0,1,969.5,1195) translate(41.79296875 19.1)"/><use xlink:href="#J" transform="matrix(1,0,0,1,969.5,1195) translate(60.99609375 19.1)"/><use xlink:href="#z" transform="matrix(1,0,0,1,969.5,1195) translate(99.40234375 19.1)"/><use xlink:href="#A" transform="matrix(1,0,0,1,969.5,1195) translate(118.60546875 19.1)"/></g><path d="M870 1111v22.12" stroke="#3a414a" fill="none"/><path d="M870.5 1111h-1v-.5h1z" stroke="#3a414a" stroke-width=".05" fill="#3a414a"/><path d="M870 1147.88l-4.64-14.26h9.28z" stroke="#3a414a" fill="#3a414a"/><path d="M870 80.5v22.62" stroke="#3a414a" fill="none"/><path d="M870.5 80.5h-1V80h1z" stroke="#3a414a" stroke-width=".05" fill="#3a414a"/><path d="M870 117.88l-4.64-14.26h9.28z" stroke="#3a414a" fill="#3a414a"/><path d="M918 1300c17.67 0 32 17.9 32 40s-14.33 40-32 40h-96c-17.67 0-32-17.9-32-40s14.33-40 32-40z" stroke="#000" stroke-opacity="0" fill="#ff741d"/><g><use xlink:href="#K" transform="matrix(1,0,0,1,795,1305) translate(61.19753086419753 38.28472222222222)"/></g><path d="M870 1271v12.62" stroke="#3a414a" fill="none"/><path d="M870.5 1271h-1v-.5h1z" stroke="#3a414a" stroke-width=".05" fill="#3a414a"/><path d="M870 1298.38l-4.64-14.26h9.28z" stroke="#3a414a" fill="#3a414a"/><defs><path d="M1018 0H814c-67-224-138-444-200-673C552-442 476-224 407 0H204L21-1082h178c43 310 105 601 126 933 54-225 128-425 193-638h193c63 212 134 415 185 638 22-336 90-622 136-933h176" id="L"/><path d="M839-1102c70 0 148 7 206 17v167c-112-18-268-36-363 15-129 69-208 203-208 395V0H294c-10-367 32-789-52-1082h171c21 75 41 161 48 250h5c67-152 152-270 373-270" id="M"/><path d="M745-142h380V0H143v-142h422v-798H246v-142h499v940zM545-1292v-192h200v192H545" id="N"/><path d="M682 16c-209 0-323-80-324-285v-671H190v-142h170l58-282h120v282h432v142H538v652c2 114 60 155 182 155 106 0 209-16 297-34v137C921-4 806 16 682 16" id="O"/><path d="M617-1102c355 0 481 238 477 599H322c5 222 84 388 301 388 144 0 244-59 284-166l158 45C1002-72 854 20 623 20c-342 0-490-220-490-568 0-346 151-554 484-554zm291 461c-18-192-90-328-289-328-194 0-287 128-295 328h584" id="P"/><path d="M365-904c58-129 161-200 334-200 130 0 228 46 293 138s98 233 98 420c0 189-34 331-102 425S824 20 698 20c-170 0-275-64-336-184 0 55-3 116-9 164H179c5-68 6-147 6-223v-1261h180c-2 193 4 394-4 580h4zm283 791c221 0 256-197 256-427 0-229-34-425-254-425-236 0-285 195-285 441 0 237 53 411 283 411" id="Q"/><path fill="#24292f" d="M891-1484c-201 251-362 514-362 954 0 441 161 704 362 955H701C500 176 342-90 342-532c0-440 159-704 359-952h190" id="R"/><path fill="#24292f" d="M904-1102c199 0 220 177 220 381V0H956v-686c-3-114 0-215-60-264-70-33-125-4-158 71-26 56-39 140-39 252V0H531v-686c-3-114-1-215-61-264-78-41-136 24-157 84-24 69-39 159-39 259V0H105c-3-360 6-732-6-1082h149c6 50 3 123 8 175 36-100 83-195 216-195 135 0 166 79 196 196 42-105 93-196 236-196" id="S"/><path fill="#24292f" d="M168 279c222 39 310-114 368-290L66-1082h192c120 299 249 590 362 896 115-301 235-597 351-896h190L705 0c-65 164-130 320-275 396-67 36-177 35-262 18V279" id="T"/><path fill="#24292f" d="M873-819c-18-114-119-146-250-146-163 0-245 50-245 151 0 151 170 148 294 185 182 54 388 94 388 320 0 240-189 325-439 329-245 4-410-69-454-268l159-31c24 133 136 168 295 165 144-2 270-31 270-171 0-164-195-160-331-202-167-52-350-87-350-299 0-218 173-315 413-313 220 2 373 77 412 260" id="U"/><path fill="#24292f" d="M617-1102c355 0 481 238 477 599H322c5 222 84 388 301 388 144 0 244-59 284-166l158 45C1002-72 854 20 623 20c-342 0-490-220-490-568 0-346 151-554 484-554zm291 461c-18-192-90-328-289-328-194 0-287 128-295 328h584" id="V"/><path fill="#24292f" d="M839-1102c70 0 148 7 206 17v167c-112-18-268-36-363 15-129 69-208 203-208 395V0H294c-10-367 32-789-52-1082h171c21 75 41 161 48 250h5c67-152 152-270 373-270" id="W"/><path fill="#24292f" d="M715 0H502L69-1082h202c94 253 197 500 285 758 19 57 36 126 52 183 96-335 234-626 350-941h201" id="X"/><path fill="#24292f" d="M615-1102c343 0 484 203 482 560-1 347-147 562-488 562-336 0-475-219-479-562-4-349 156-560 485-560zm-8 989c240 0 301-180 301-429 0-245-55-427-290-427-236 0-299 181-299 427 0 243 61 429 288 429" id="Y"/><path fill="#24292f" d="M611-1370c266 0 451 106 451 368 0 147-77 243-154 327-132 144-316 255-451 395-42 44-75 87-96 134h723V0H144v-117c124-264 387-411 582-603 73-72 151-147 151-271 0-161-104-231-266-231-163 0-249 90-268 238l-184-17c35-233 185-369 452-369" id="Z"/><path fill="#24292f" d="M259 363l169-662h265L382 363H259" id="aa"/><g id="a"><use transform="matrix(0.006727430555555555,0,0,0.006727430555555555,0,0)" xlink:href="#L"/><use transform="matrix(0.006727430555555555,0,0,0.006727430555555555,8.268012152777777,0)" xlink:href="#M"/><use transform="matrix(0.006727430555555555,0,0,0.006727430555555555,16.536024305555554,0)" xlink:href="#N"/><use transform="matrix(0.006727430555555555,0,0,0.006727430555555555,24.80403645833333,0)" xlink:href="#O"/><use transform="matrix(0.006727430555555555,0,0,0.006727430555555555,33.07204861111111,0)" xlink:href="#P"/><use transform="matrix(0.006727430555555555,0,0,0.006727430555555555,41.340060763888886,0)" xlink:href="#Q"/><use transform="matrix(0.006727430555555555,0,0,0.006727430555555555,49.608072916666664,0)" xlink:href="#P"/><use transform="matrix(0.006727430555555555,0,0,0.006727430555555555,57.87608506944444,0)" xlink:href="#O"/><use transform="matrix(0.006727430555555555,0,0,0.006727430555555555,66.14409722222221,0)" xlink:href="#O"/><use transform="matrix(0.006727430555555555,0,0,0.006727430555555555,74.41210937499999,0)" xlink:href="#P"/><use transform="matrix(0.006727430555555555,0,0,0.006727430555555555,82.68012152777776,0)" xlink:href="#M"/><use transform="matrix(0.006727430555555555,0,0,0.006727430555555555,90.94813368055553,0)" xlink:href="#R"/><use transform="matrix(0.006727430555555555,0,0,0.006727430555555555,99.2161458333333,0)" xlink:href="#S"/><use transform="matrix(0.006727430555555555,0,0,0.006727430555555555,107.48415798611107,0)" xlink:href="#T"/><use transform="matrix(0.006727430555555555,0,0,0.006727430555555555,115.75217013888883,0)" xlink:href="#U"/><use transform="matrix(0.006727430555555555,0,0,0.006727430555555555,124.02018229166661,0)" xlink:href="#V"/><use transform="matrix(0.006727430555555555,0,0,0.006727430555555555,132.2881944444444,0)" xlink:href="#W"/><use transform="matrix(0.006727430555555555,0,0,0.006727430555555555,140.55620659722217,0)" xlink:href="#X"/><use transform="matrix(0.006727430555555555,0,0,0.006727430555555555,148.82421874999994,0)" xlink:href="#Y"/><use transform="matrix(0.006727430555555555,0,0,0.006727430555555555,157.09223090277771,0)" xlink:href="#Z"/><use transform="matrix(0.006727430555555555,0,0,0.006727430555555555,165.3602430555555,0)" xlink:href="#aa"/></g><path fill="#24292f" d="M528-1484c201 248 357 511 357 952 0 442-156 709-357 957H336C537 174 700-89 700-530c0-440-163-703-364-954h192" id="ab"/><use transform="matrix(0.006727430555555555,0,0,0.006727430555555555,0,0)" xlink:href="#ab" id="d"/><path fill="#333" d="M30-248c87 1 191-15 191 75 0 78-77 80-158 76V0H30v-248zm33 125c57 0 124 11 124-50 0-59-68-47-124-48v98" id="ac"/><path fill="#333" d="M100-194c62-1 85 37 85 99 1 63-27 99-86 99S16-35 15-95c0-66 28-99 85-99zM99-20c44 1 53-31 53-75 0-43-8-75-51-75s-53 32-53 75 10 74 51 75" id="ad"/><path fill="#333" d="M135-143c-3-34-86-38-87 0 15 53 115 12 119 90S17 21 10-45l28-5c4 36 97 45 98 0-10-56-113-15-118-90-4-57 82-63 122-42 12 7 21 19 24 35" id="ae"/><path fill="#333" d="M24-231v-30h32v30H24zM24 0v-190h32V0H24" id="af"/><path fill="#333" d="M59-47c-2 24 18 29 38 22v24C64 9 27 4 27-40v-127H5v-23h24l9-43h21v43h35v23H59v120" id="ag"/><path fill="#333" d="M117-194c89-4 53 116 60 194h-32v-121c0-31-8-49-39-48C34-167 62-67 57 0H25l-1-190h30c1 10-1 24 2 32 11-22 29-35 61-36" id="ah"/><path fill="#333" d="M100-194c63 0 86 42 84 106H49c0 40 14 67 53 68 26 1 43-12 49-29l28 8c-11 28-37 45-77 45C44 4 14-33 15-96c1-61 26-98 85-98zm52 81c6-60-76-77-97-28-3 7-6 17-6 28h103" id="ai"/><path fill="#333" d="M114-163C36-179 61-72 57 0H25l-1-190h30c1 12-1 29 2 39 6-27 23-49 58-41v29" id="aj"/><path fill="#333" d="M108 0H70L1-190h34L89-25l56-165h34" id="ak"/><path fill="#333" d="M87 75C49 33 22-17 22-94c0-76 28-126 65-167h31c-38 41-64 92-64 168S80 34 118 75H87" id="al"/><path fill="#333" d="M33-261c38 41 65 92 65 168S71 34 33 75H2C39 34 66-17 66-93S39-220 2-261h31" id="am"/><g id="e"><use transform="matrix(0.05,0,0,0.05,0,0)" xlink:href="#ac"/><use transform="matrix(0.05,0,0,0.05,12,0)" xlink:href="#ad"/><use transform="matrix(0.05,0,0,0.05,22,0)" xlink:href="#ae"/><use transform="matrix(0.05,0,0,0.05,31,0)" xlink:href="#af"/><use transform="matrix(0.05,0,0,0.05,34.95,0)" xlink:href="#ag"/><use transform="matrix(0.05,0,0,0.05,39.95,0)" xlink:href="#af"/><use transform="matrix(0.05,0,0,0.05,43.900000000000006,0)" xlink:href="#ad"/><use transform="matrix(0.05,0,0,0.05,53.900000000000006,0)" xlink:href="#ah"/><use transform="matrix(0.05,0,0,0.05,63.900000000000006,0)" xlink:href="#ae"/><use transform="matrix(0.05,0,0,0.05,72.9,0)" xlink:href="#ai"/><use transform="matrix(0.05,0,0,0.05,82.9,0)" xlink:href="#aj"/><use transform="matrix(0.05,0,0,0.05,88.85000000000001,0)" xlink:href="#ak"/><use transform="matrix(0.05,0,0,0.05,97.85000000000001,0)" xlink:href="#ad"/><use transform="matrix(0.05,0,0,0.05,107.85000000000001,0)" xlink:href="#ae"/><use transform="matrix(0.05,0,0,0.05,116.85000000000001,0)" xlink:href="#al"/><use transform="matrix(0.05,0,0,0.05,122.80000000000001,0)" xlink:href="#ag"/><use transform="matrix(0.05,0,0,0.05,127.80000000000001,0)" xlink:href="#am"/></g><path fill="#282c33" d="M1018 0H814c-67-224-138-444-200-673C552-442 476-224 407 0H204L21-1082h178c43 310 105 601 126 933 54-225 128-425 193-638h193c63 212 134 415 185 638 22-336 90-622 136-933h176" id="an"/><path fill="#282c33" d="M839-1102c70 0 148 7 206 17v167c-112-18-268-36-363 15-129 69-208 203-208 395V0H294c-10-367 32-789-52-1082h171c21 75 41 161 48 250h5c67-152 152-270 373-270" id="ao"/><path fill="#282c33" d="M745-142h380V0H143v-142h422v-798H246v-142h499v940zM545-1292v-192h200v192H545" id="ap"/><path fill="#282c33" d="M682 16c-209 0-323-80-324-285v-671H190v-142h170l58-282h120v282h432v142H538v652c2 114 60 155 182 155 106 0 209-16 297-34v137C921-4 806 16 682 16" id="aq"/><path fill="#282c33" d="M617-1102c355 0 481 238 477 599H322c5 222 84 388 301 388 144 0 244-59 284-166l158 45C1002-72 854 20 623 20c-342 0-490-220-490-568 0-346 151-554 484-554zm291 461c-18-192-90-328-289-328-194 0-287 128-295 328h584" id="ar"/><path fill="#282c33" d="M365-904c58-129 161-200 334-200 130 0 228 46 293 138s98 233 98 420c0 189-34 331-102 425S824 20 698 20c-170 0-275-64-336-184 0 55-3 116-9 164H179c5-68 6-147 6-223v-1261h180c-2 193 4 394-4 580h4zm283 791c221 0 256-197 256-427 0-229-34-425-254-425-236 0-285 195-285 441 0 237 53 411 283 411" id="as"/><path fill="#282c33" d="M891-1484c-201 251-362 514-362 954 0 441 161 704 362 955H701C500 176 342-90 342-532c0-440 159-704 359-952h190" id="at"/><path fill="#24292f" d="M148-1120c216-7 379-89 463-229h166v1204h353V0H157v-145h439v-1021c-79 124-254 184-448 194v-148" id="au"/><g id="f"><use transform="matrix(0.006727430555555555,0,0,0.006727430555555555,0,0)" xlink:href="#an"/><use transform="matrix(0.006727430555555555,0,0,0.006727430555555555,8.268012152777777,0)" xlink:href="#ao"/><use transform="matrix(0.006727430555555555,0,0,0.006727430555555555,16.536024305555554,0)" xlink:href="#ap"/><use transform="matrix(0.006727430555555555,0,0,0.006727430555555555,24.80403645833333,0)" xlink:href="#aq"/><use transform="matrix(0.006727430555555555,0,0,0.006727430555555555,33.07204861111111,0)" xlink:href="#ar"/><use transform="matrix(0.006727430555555555,0,0,0.006727430555555555,41.340060763888886,0)" xlink:href="#as"/><use transform="matrix(0.006727430555555555,0,0,0.006727430555555555,49.608072916666664,0)" xlink:href="#ar"/><use transform="matrix(0.006727430555555555,0,0,0.006727430555555555,57.87608506944444,0)" xlink:href="#aq"/><use transform="matrix(0.006727430555555555,0,0,0.006727430555555555,66.14409722222221,0)" xlink:href="#aq"/><use transform="matrix(0.006727430555555555,0,0,0.006727430555555555,74.41210937499999,0)" xlink:href="#ar"/><use transform="matrix(0.006727430555555555,0,0,0.006727430555555555,82.68012152777776,0)" xlink:href="#ao"/><use transform="matrix(0.006727430555555555,0,0,0.006727430555555555,90.94813368055553,0)" xlink:href="#at"/><use transform="matrix(0.006727430555555555,0,0,0.006727430555555555,99.2161458333333,0)" xlink:href="#S"/><use transform="matrix(0.006727430555555555,0,0,0.006727430555555555,107.48415798611107,0)" xlink:href="#T"/><use transform="matrix(0.006727430555555555,0,0,0.006727430555555555,115.75217013888883,0)" xlink:href="#U"/><use transform="matrix(0.006727430555555555,0,0,0.006727430555555555,124.02018229166661,0)" xlink:href="#V"/><use transform="matrix(0.006727430555555555,0,0,0.006727430555555555,132.2881944444444,0)" xlink:href="#W"/><use transform="matrix(0.006727430555555555,0,0,0.006727430555555555,140.55620659722217,0)" xlink:href="#X"/><use transform="matrix(0.006727430555555555,0,0,0.006727430555555555,148.82421874999994,0)" xlink:href="#Y"/><use transform="matrix(0.006727430555555555,0,0,0.006727430555555555,157.09223090277771,0)" xlink:href="#au"/><use transform="matrix(0.006727430555555555,0,0,0.006727430555555555,165.3602430555555,0)" xlink:href="#aa"/></g><use transform="matrix(0.006727430555555555,0,0,0.006727430555555555,0,0)" xlink:href="#ab" id="g"/><path fill="#333" d="M101-234c-31-9-42 10-38 44h38v23H63V0H32v-167H5v-23h27c-7-52 17-82 69-68v24" id="av"/><path fill="#333" d="M27 0v-27h64v-190l-56 39v-29l58-41h29v221h61V0H27" id="aw"/><g id="h"><use transform="matrix(0.05,0,0,0.05,0,0)" xlink:href="#av"/><use transform="matrix(0.05,0,0,0.05,5,0)" xlink:href="#aw"/><use transform="matrix(0.05,0,0,0.05,15,0)" xlink:href="#al"/><use transform="matrix(0.05,0,0,0.05,20.95,0)" xlink:href="#ag"/><use transform="matrix(0.05,0,0,0.05,25.950000000000003,0)" xlink:href="#am"/></g><path fill="#333" d="M190 0L58-211 59 0H30v-248h39L202-35l-2-213h31V0h-41" id="ax"/><g id="i"><use transform="matrix(0.05,0,0,0.05,0,0)" xlink:href="#ag"/><use transform="matrix(0.05,0,0,0.05,5,0)" xlink:href="#ad"/><use transform="matrix(0.05,0,0,0.05,15,0)" xlink:href="#ax"/><use transform="matrix(0.05,0,0,0.05,27.950000000000003,0)" xlink:href="#al"/></g><use transform="matrix(0.05,0,0,0.05,0,0)" xlink:href="#am" id="j"/><path fill="#333" d="M177-190C167-65 218 103 67 71c-23-6-38-20-44-43l32-5c15 47 100 32 89-28v-30C133-14 115 1 83 1 29 1 15-40 15-95c0-56 16-97 71-98 29-1 48 16 59 35 1-10 0-23 2-32h30zM94-22c36 0 50-32 50-73 0-42-14-75-50-75-39 0-46 34-46 75s6 73 46 73" id="ay"/><path fill="#333" d="M106-169C34-169 62-67 57 0H25v-261h32l-1 103c12-21 28-36 61-36 89 0 53 116 60 194h-32v-121c2-32-8-49-39-48" id="az"/><path fill="#333" d="M210-169c-67 3-38 105-44 169h-31v-121c0-29-5-50-35-48C34-165 62-65 56 0H25l-1-190h30c1 10-1 24 2 32 10-44 99-50 107 0 11-21 27-35 58-36 85-2 47 119 55 194h-31v-121c0-29-5-49-35-48" id="aA"/><path fill="#333" d="M179-190L93 31C79 59 56 82 12 73V49c39 6 53-20 64-50L1-190h34L92-34l54-156h33" id="aB"/><path fill="#333" d="M68-38c1 34 0 65-14 84H32c9-13 17-26 17-46H33v-38h35" id="aC"/><g id="k"><use transform="matrix(0.05,0,0,0.05,0,0)" xlink:href="#ay"/><use transform="matrix(0.05,0,0,0.05,10,0)" xlink:href="#ai"/><use transform="matrix(0.05,0,0,0.05,20,0)" xlink:href="#ag"/><use transform="matrix(0.05,0,0,0.05,25,0)" xlink:href="#ac"/><use transform="matrix(0.05,0,0,0.05,37,0)" xlink:href="#az"/><use transform="matrix(0.05,0,0,0.05,47,0)" xlink:href="#af"/><use transform="matrix(0.05,0,0,0.05,50.95,0)" xlink:href="#al"/><use transform="matrix(0.05,0,0,0.05,56.900000000000006,0)" xlink:href="#aA"/><use transform="matrix(0.05,0,0,0.05,71.85000000000001,0)" xlink:href="#aB"/><use transform="matrix(0.05,0,0,0.05,80.85000000000001,0)" xlink:href="#ae"/><use transform="matrix(0.05,0,0,0.05,89.85000000000001,0)" xlink:href="#ai"/><use transform="matrix(0.05,0,0,0.05,99.85000000000001,0)" xlink:href="#aj"/><use transform="matrix(0.05,0,0,0.05,105.80000000000001,0)" xlink:href="#ak"/><use transform="matrix(0.05,0,0,0.05,114.80000000000001,0)" xlink:href="#ad"/><use transform="matrix(0.05,0,0,0.05,124.80000000000001,0)" xlink:href="#aw"/><use transform="matrix(0.05,0,0,0.05,134.8,0)" xlink:href="#aC"/></g><path fill="#333" d="M101-251c82-7 93 87 43 132L82-64C71-53 59-42 53-27h129V0H18c2-99 128-94 128-182 0-28-16-43-45-43s-46 15-49 41l-32-3c6-41 34-60 81-64" id="aD"/><g id="l"><use transform="matrix(0.05,0,0,0.05,0,0)" xlink:href="#av"/><use transform="matrix(0.05,0,0,0.05,5,0)" xlink:href="#aD"/><use transform="matrix(0.05,0,0,0.05,15,0)" xlink:href="#al"/><use transform="matrix(0.05,0,0,0.05,20.95,0)" xlink:href="#ag"/><use transform="matrix(0.05,0,0,0.05,25.950000000000003,0)" xlink:href="#am"/></g><path fill="#24292f" d="M1060-1016c0 191-128 285-295 323v4c154 18 262 91 313 209 14 35 21 72 21 110 0 277-194 390-478 390-292 0-457-129-493-382l186-17c24 161 121 250 307 250 172 1 298-80 291-247-8-208-220-239-446-233v-156c217 9 409-34 409-232 0-152-102-225-264-225-159 0-264 88-278 233l-181-14c33-239 196-367 461-367 264 0 447 102 447 354" id="aE"/><g id="m"><use transform="matrix(0.006727430555555555,0,0,0.006727430555555555,0,0)" xlink:href="#an"/><use transform="matrix(0.006727430555555555,0,0,0.006727430555555555,8.268012152777777,0)" xlink:href="#ao"/><use transform="matrix(0.006727430555555555,0,0,0.006727430555555555,16.536024305555554,0)" xlink:href="#ap"/><use transform="matrix(0.006727430555555555,0,0,0.006727430555555555,24.80403645833333,0)" xlink:href="#aq"/><use transform="matrix(0.006727430555555555,0,0,0.006727430555555555,33.07204861111111,0)" xlink:href="#ar"/><use transform="matrix(0.006727430555555555,0,0,0.006727430555555555,41.340060763888886,0)" xlink:href="#as"/><use transform="matrix(0.006727430555555555,0,0,0.006727430555555555,49.608072916666664,0)" xlink:href="#ar"/><use transform="matrix(0.006727430555555555,0,0,0.006727430555555555,57.87608506944444,0)" xlink:href="#aq"/><use transform="matrix(0.006727430555555555,0,0,0.006727430555555555,66.14409722222221,0)" xlink:href="#aq"/><use transform="matrix(0.006727430555555555,0,0,0.006727430555555555,74.41210937499999,0)" xlink:href="#ar"/><use transform="matrix(0.006727430555555555,0,0,0.006727430555555555,82.68012152777776,0)" xlink:href="#ao"/><use transform="matrix(0.006727430555555555,0,0,0.006727430555555555,90.94813368055553,0)" xlink:href="#at"/><use transform="matrix(0.006727430555555555,0,0,0.006727430555555555,99.2161458333333,0)" xlink:href="#S"/><use transform="matrix(0.006727430555555555,0,0,0.006727430555555555,107.48415798611107,0)" xlink:href="#T"/><use transform="matrix(0.006727430555555555,0,0,0.006727430555555555,115.75217013888883,0)" xlink:href="#U"/><use transform="matrix(0.006727430555555555,0,0,0.006727430555555555,124.02018229166661,0)" xlink:href="#V"/><use transform="matrix(0.006727430555555555,0,0,0.006727430555555555,132.2881944444444,0)" xlink:href="#W"/><use transform="matrix(0.006727430555555555,0,0,0.006727430555555555,140.55620659722217,0)" xlink:href="#X"/><use transform="matrix(0.006727430555555555,0,0,0.006727430555555555,148.82421874999994,0)" xlink:href="#Y"/><use transform="matrix(0.006727430555555555,0,0,0.006727430555555555,157.09223090277771,0)" xlink:href="#aE"/><use transform="matrix(0.006727430555555555,0,0,0.006727430555555555,165.3602430555555,0)" xlink:href="#aa"/></g><path fill="#24292f" d="M682 16c-209 0-323-80-324-285v-671H190v-142h170l58-282h120v282h432v142H538v652c2 114 60 155 182 155 106 0 209-16 297-34v137C921-4 806 16 682 16" id="aF"/><path fill="#24292f" d="M687-608v428H540v-428H116v-146h424v-428h147v428h424v146H687" id="aG"/><path d="M672-881c271 0 424 163 424 435 0 291-160 466-455 466-367 0-490-287-490-662 0-324 85-568 293-680 129-70 351-59 460 16 73 50 125 123 153 223l-172 31c-31-108-107-172-232-172-259 0-316 252-323 529 59-113 178-186 342-186zm-37 756c186 0 278-124 278-313s-96-304-284-304c-163 0-281 93-281 261 0 157 65 270 168 327 35 19 75 29 119 29" id="aH"/><path d="M937-319V0H757v-319H103v-140l635-890h199v888h188v142H937zm-180-835L257-461h500v-693" id="aI"/><path fill="#24292f" d="M221 0H76l932-1353h147zM0-1025c0-214 83-337 291-336 203 1 283 126 283 336-1 211-84 341-287 341C83-684 0-813 0-1025zm289 228c118 0 138-104 138-228s-16-228-137-228c-124 0-143 100-143 228 0 125 21 228 142 228zm367 468c0-214 83-337 291-336 203 1 283 126 283 336-1 211-84 341-287 341-204 0-287-129-287-341zm289 228c118 0 138-104 138-228s-16-228-137-228c-124 0-143 100-143 228 0 125 21 228 142 228" id="aJ"/><path d="M611-1370c266 0 451 106 451 368 0 147-77 243-154 327-132 144-316 255-451 395-42 44-75 87-96 134h723V0H144v-117c124-264 387-411 582-603 73-72 151-147 151-271 0-161-104-231-266-231-163 0-249 90-268 238l-184-17c35-233 185-369 452-369" id="aK"/><path d="M353-779c69-51 166-92 291-90 218 3 357 100 423 255 21 52 32 109 32 170 0 305-189 464-500 464-268 0-424-116-471-335l182-21c35 130 124 212 293 209 198-4 309-114 309-313 0-182-118-282-305-282-120 0-198 45-262 101H169l47-728h801v145H382" id="aL"/><g id="n"><use transform="matrix(0.05,0,0,0.05,0,0)" xlink:href="#av"/><use transform="matrix(0.05,0,0,0.05,5,0)" xlink:href="#aw"/><use transform="matrix(0.05,0,0,0.05,15,0)" xlink:href="#al"/><use transform="matrix(0.0078125,0,0,0.0078125,20.95,0)" xlink:href="#aF"/><use transform="matrix(0.0078125,0,0,0.0078125,30.5515625,0)" xlink:href="#aG"/><use transform="matrix(0.0078125,0,0,0.0078125,40.153125,0)" xlink:href="#aH"/><use transform="matrix(0.0078125,0,0,0.0078125,49.7546875,0)" xlink:href="#aI"/><use transform="matrix(0.0078125,0,0,0.0078125,59.35625,0)" xlink:href="#aJ"/><use transform="matrix(0.0078125,0,0,0.0078125,68.9578125,0)" xlink:href="#aK"/><use transform="matrix(0.0078125,0,0,0.0078125,78.559375,0)" xlink:href="#aL"/><use transform="matrix(0.0078125,0,0,0.0078125,88.1609375,0)" xlink:href="#aL"/><use transform="matrix(0.05,0,0,0.05,97.7625,0)" xlink:href="#am"/></g><path fill="#24292f" d="M937-319V0H757v-319H103v-140l635-890h199v888h188v142H937zm-180-835L257-461h500v-693" id="aM"/><g id="o"><use transform="matrix(0.007595486111111112,0,0,0.007595486111111112,0,0)" xlink:href="#L"/><use transform="matrix(0.007595486111111112,0,0,0.007595486111111112,9.334852430555557,0)" xlink:href="#M"/><use transform="matrix(0.007595486111111112,0,0,0.007595486111111112,18.669704861111114,0)" xlink:href="#N"/><use transform="matrix(0.007595486111111112,0,0,0.007595486111111112,28.00455729166667,0)" xlink:href="#O"/><use transform="matrix(0.007595486111111112,0,0,0.007595486111111112,37.33940972222223,0)" xlink:href="#P"/><use transform="matrix(0.007595486111111112,0,0,0.007595486111111112,46.674262152777786,0)" xlink:href="#Q"/><use transform="matrix(0.007595486111111112,0,0,0.007595486111111112,56.00911458333334,0)" xlink:href="#P"/><use transform="matrix(0.007595486111111112,0,0,0.007595486111111112,65.3439670138889,0)" xlink:href="#O"/><use transform="matrix(0.007595486111111112,0,0,0.007595486111111112,74.67881944444446,0)" xlink:href="#O"/><use transform="matrix(0.007595486111111112,0,0,0.007595486111111112,84.01367187500001,0)" xlink:href="#P"/><use transform="matrix(0.007595486111111112,0,0,0.007595486111111112,93.34852430555557,0)" xlink:href="#M"/><use transform="matrix(0.007595486111111112,0,0,0.007595486111111112,102.68337673611113,0)" xlink:href="#R"/><use transform="matrix(0.007595486111111112,0,0,0.007595486111111112,112.01822916666669,0)" xlink:href="#S"/><use transform="matrix(0.007595486111111112,0,0,0.007595486111111112,121.35308159722224,0)" xlink:href="#T"/><use transform="matrix(0.007595486111111112,0,0,0.007595486111111112,130.6879340277778,0)" xlink:href="#U"/><use transform="matrix(0.007595486111111112,0,0,0.007595486111111112,140.02278645833337,0)" xlink:href="#V"/><use transform="matrix(0.007595486111111112,0,0,0.007595486111111112,149.3576388888889,0)" xlink:href="#W"/><use transform="matrix(0.007595486111111112,0,0,0.007595486111111112,158.69249131944446,0)" xlink:href="#X"/><use transform="matrix(0.007595486111111112,0,0,0.007595486111111112,168.02734375,0)" xlink:href="#Y"/><use transform="matrix(0.007595486111111112,0,0,0.007595486111111112,177.36219618055554,0)" xlink:href="#aM"/><use transform="matrix(0.007595486111111112,0,0,0.007595486111111112,186.6970486111111,0)" xlink:href="#aa"/></g><path d="M148-1120c216-7 379-89 463-229h166v1204h353V0H157v-145h439v-1021c-79 124-254 184-448 194v-148" id="aN"/><path d="M809-709c168 33 285 134 285 331 0 277-191 398-480 398-287 0-481-120-481-396 0-192 118-296 281-331v-4c-145-39-248-139-248-313 0-238 192-346 444-346 211 0 357 75 422 217 19 41 27 86 27 131 0 172-101 274-250 309v4zm-197-70c168 0 260-73 260-233 0-158-100-224-262-224-160 0-260 68-260 224 0 155 97 232 262 233zm4 664c194 1 291-91 291-280 0-172-115-249-297-249-178 0-291 85-291 253 0 186 106 275 297 276" id="aO"/><path d="M1065-1013c47 164 49 500-1 665C999-130 875 20 611 20c-377 0-484-300-487-695-2-245 41-425 141-551 77-98 191-144 352-144 261 0 386 140 448 357zM741-155c199-92 203-504 159-785-26-168-96-284-283-284-281 0-308 256-311 549-2 181 18 324 80 428 46 77 115 118 227 120 47 0 90-10 128-28" id="aP"/><g id="p"><use transform="matrix(0.007595486111111112,0,0,0.007595486111111112,0,0)" xlink:href="#aN"/><use transform="matrix(0.007595486111111112,0,0,0.007595486111111112,9.334852430555557,0)" xlink:href="#aO"/><use transform="matrix(0.007595486111111112,0,0,0.007595486111111112,18.669704861111114,0)" xlink:href="#aP"/></g><path fill="#24292f" d="M334-464v-160h560v160H334" id="aQ"/><use transform="matrix(0.007595486111111112,0,0,0.007595486111111112,0,0)" xlink:href="#aQ" id="q"/><use transform="matrix(0.007595486111111112,0,0,0.007595486111111112,0,0)" xlink:href="#ab" id="t"/><g id="u"><use transform="matrix(0.05,0,0,0.05,0,0)" xlink:href="#ag"/><use transform="matrix(0.05,0,0,0.05,5,0)" xlink:href="#ad"/><use transform="matrix(0.05,0,0,0.05,15,0)" xlink:href="#ax"/><use transform="matrix(0.05,0,0,0.05,27.950000000000003,0)" xlink:href="#al"/></g><path fill="#333" d="M126-127c33 6 58 20 58 59 0 88-139 92-164 29-3-8-5-16-6-25l32-3c6 27 21 44 54 44 32 0 52-15 52-46 0-38-36-46-79-43v-28c39 1 72-4 72-42 0-27-17-43-46-43-28 0-47 15-49 41l-32-3c6-42 35-63 81-64 48-1 79 21 79 65 0 36-21 52-52 59" id="aR"/><g id="v"><use transform="matrix(0.05,0,0,0.05,0,0)" xlink:href="#ay"/><use transform="matrix(0.05,0,0,0.05,10,0)" xlink:href="#ai"/><use transform="matrix(0.05,0,0,0.05,20,0)" xlink:href="#ag"/><use transform="matrix(0.05,0,0,0.05,25,0)" xlink:href="#ac"/><use transform="matrix(0.05,0,0,0.05,37,0)" xlink:href="#az"/><use transform="matrix(0.05,0,0,0.05,47,0)" xlink:href="#af"/><use transform="matrix(0.05,0,0,0.05,50.95,0)" xlink:href="#al"/><use transform="matrix(0.05,0,0,0.05,56.900000000000006,0)" xlink:href="#aA"/><use transform="matrix(0.05,0,0,0.05,71.85000000000001,0)" xlink:href="#aB"/><use transform="matrix(0.05,0,0,0.05,80.85000000000001,0)" xlink:href="#ae"/><use transform="matrix(0.05,0,0,0.05,89.85000000000001,0)" xlink:href="#ai"/><use transform="matrix(0.05,0,0,0.05,99.85000000000001,0)" xlink:href="#aj"/><use transform="matrix(0.05,0,0,0.05,105.80000000000001,0)" xlink:href="#ak"/><use transform="matrix(0.05,0,0,0.05,114.80000000000001,0)" xlink:href="#ad"/><use transform="matrix(0.05,0,0,0.05,124.80000000000001,0)" xlink:href="#aR"/><use transform="matrix(0.05,0,0,0.05,134.8,0)" xlink:href="#aC"/></g><g id="w"><use transform="matrix(0.05,0,0,0.05,0,0)" xlink:href="#av"/><use transform="matrix(0.05,0,0,0.05,5,0)" xlink:href="#aD"/><use transform="matrix(0.05,0,0,0.05,15,0)" xlink:href="#al"/><use transform="matrix(0.0078125,0,0,0.0078125,20.95,0)" xlink:href="#aF"/></g><use transform="matrix(0.0078125,0,0,0.0078125,0,0)" xlink:href="#aG" id="x"/><g id="y"><use transform="matrix(0.0078125,0,0,0.0078125,0,0)" xlink:href="#aH"/><use transform="matrix(0.0078125,0,0,0.0078125,9.6015625,0)" xlink:href="#aI"/></g><use transform="matrix(0.0078125,0,0,0.0078125,0,0)" xlink:href="#aJ" id="z"/><g id="A"><use transform="matrix(0.0078125,0,0,0.0078125,0,0)" xlink:href="#aK"/><use transform="matrix(0.0078125,0,0,0.0078125,9.6015625,0)" xlink:href="#aL"/><use transform="matrix(0.0078125,0,0,0.0078125,19.203125,0)" xlink:href="#aL"/><use transform="matrix(0.05,0,0,0.05,28.8046875,0)" xlink:href="#am"/></g><path fill="#24292f" d="M353-779c69-51 166-92 291-90 218 3 357 100 423 255 21 52 32 109 32 170 0 305-189 464-500 464-268 0-424-116-471-335l182-21c35 130 124 212 293 209 198-4 309-114 309-313 0-182-118-282-305-282-120 0-198 45-262 101H169l47-728h801v145H382" id="aS"/><path fill="#24292f" d="M809-709c168 33 285 134 285 331 0 277-191 398-480 398-287 0-481-120-481-396 0-192 118-296 281-331v-4c-145-39-248-139-248-313 0-238 192-346 444-346 211 0 357 75 422 217 19 41 27 86 27 131 0 172-101 274-250 309v4zm-197-70c168 0 260-73 260-233 0-158-100-224-262-224-160 0-260 68-260 224 0 155 97 232 262 233zm4 664c194 1 291-91 291-280 0-172-115-249-297-249-178 0-291 85-291 253 0 186 106 275 297 276" id="aT"/><path fill="#24292f" d="M1065-1013c47 164 49 500-1 665C999-130 875 20 611 20c-377 0-484-300-487-695-2-245 41-425 141-551 77-98 191-144 352-144 261 0 386 140 448 357zM741-155c199-92 203-504 159-785-26-168-96-284-283-284-281 0-308 256-311 549-2 181 18 324 80 428 46 77 115 118 227 120 47 0 90-10 128-28" id="aU"/><g id="B"><use transform="matrix(0.006727430555555555,0,0,0.006727430555555555,0,0)" xlink:href="#an"/><use transform="matrix(0.006727430555555555,0,0,0.006727430555555555,8.268012152777777,0)" xlink:href="#ao"/><use transform="matrix(0.006727430555555555,0,0,0.006727430555555555,16.536024305555554,0)" xlink:href="#ap"/><use transform="matrix(0.006727430555555555,0,0,0.006727430555555555,24.80403645833333,0)" xlink:href="#aq"/><use transform="matrix(0.006727430555555555,0,0,0.006727430555555555,33.07204861111111,0)" xlink:href="#ar"/><use transform="matrix(0.006727430555555555,0,0,0.006727430555555555,41.340060763888886,0)" xlink:href="#as"/><use transform="matrix(0.006727430555555555,0,0,0.006727430555555555,49.608072916666664,0)" xlink:href="#ar"/><use transform="matrix(0.006727430555555555,0,0,0.006727430555555555,57.87608506944444,0)" xlink:href="#aq"/><use transform="matrix(0.006727430555555555,0,0,0.006727430555555555,66.14409722222221,0)" xlink:href="#aq"/><use transform="matrix(0.006727430555555555,0,0,0.006727430555555555,74.41210937499999,0)" xlink:href="#ar"/><use transform="matrix(0.006727430555555555,0,0,0.006727430555555555,82.68012152777776,0)" xlink:href="#ao"/><use transform="matrix(0.006727430555555555,0,0,0.006727430555555555,90.94813368055553,0)" xlink:href="#at"/><use transform="matrix(0.006727430555555555,0,0,0.006727430555555555,99.2161458333333,0)" xlink:href="#S"/><use transform="matrix(0.006727430555555555,0,0,0.006727430555555555,107.48415798611107,0)" xlink:href="#T"/><use transform="matrix(0.006727430555555555,0,0,0.006727430555555555,115.75217013888883,0)" xlink:href="#U"/><use transform="matrix(0.006727430555555555,0,0,0.006727430555555555,124.02018229166661,0)" xlink:href="#V"/><use transform="matrix(0.006727430555555555,0,0,0.006727430555555555,132.2881944444444,0)" xlink:href="#W"/><use transform="matrix(0.006727430555555555,0,0,0.006727430555555555,140.55620659722217,0)" xlink:href="#X"/><use transform="matrix(0.006727430555555555,0,0,0.006727430555555555,148.82421874999994,0)" xlink:href="#Y"/><use transform="matrix(0.006727430555555555,0,0,0.006727430555555555,157.09223090277771,0)" xlink:href="#aS"/><use transform="matrix(0.006727430555555555,0,0,0.006727430555555555,165.3602430555555,0)" xlink:href="#aa"/><use transform="matrix(0.006727430555555555,0,0,0.006727430555555555,173.62825520833326,0)" xlink:href="#au"/><use transform="matrix(0.006727430555555555,0,0,0.006727430555555555,181.89626736111103,0)" xlink:href="#aT"/><use transform="matrix(0.006727430555555555,0,0,0.006727430555555555,190.1642795138888,0)" xlink:href="#aU"/><use transform="matrix(0.006727430555555555,0,0,0.006727430555555555,198.43229166666657,0)" xlink:href="#aQ"/></g><g id="C"><use transform="matrix(0.05,0,0,0.05,0,0)" xlink:href="#av"/><use transform="matrix(0.05,0,0,0.05,5,0)" xlink:href="#aw"/><use transform="matrix(0.05,0,0,0.05,15,0)" xlink:href="#al"/><use transform="matrix(0.0078125,0,0,0.0078125,20.95,0)" xlink:href="#aF"/><use transform="matrix(0.0078125,0,0,0.0078125,30.5515625,0)" xlink:href="#aG"/><use transform="matrix(0.0078125,0,0,0.0078125,40.153125,0)" xlink:href="#aN"/><use transform="matrix(0.0078125,0,0,0.0078125,49.7546875,0)" xlink:href="#aK"/><use transform="matrix(0.0078125,0,0,0.0078125,59.35625,0)" xlink:href="#aO"/><use transform="matrix(0.0078125,0,0,0.0078125,68.9578125,0)" xlink:href="#aJ"/><use transform="matrix(0.0078125,0,0,0.0078125,78.559375,0)" xlink:href="#aK"/><use transform="matrix(0.0078125,0,0,0.0078125,88.1609375,0)" xlink:href="#aL"/><use transform="matrix(0.0078125,0,0,0.0078125,97.7625,0)" xlink:href="#aL"/><use transform="matrix(0.05,0,0,0.05,107.3640625,0)" xlink:href="#am"/></g><g id="D"><use transform="matrix(0.007595486111111112,0,0,0.007595486111111112,0,0)" xlink:href="#L"/><use transform="matrix(0.007595486111111112,0,0,0.007595486111111112,9.334852430555557,0)" xlink:href="#M"/><use transform="matrix(0.007595486111111112,0,0,0.007595486111111112,18.669704861111114,0)" xlink:href="#N"/><use transform="matrix(0.007595486111111112,0,0,0.007595486111111112,28.00455729166667,0)" xlink:href="#O"/><use transform="matrix(0.007595486111111112,0,0,0.007595486111111112,37.33940972222223,0)" xlink:href="#P"/><use transform="matrix(0.007595486111111112,0,0,0.007595486111111112,46.674262152777786,0)" xlink:href="#Q"/><use transform="matrix(0.007595486111111112,0,0,0.007595486111111112,56.00911458333334,0)" xlink:href="#P"/><use transform="matrix(0.007595486111111112,0,0,0.007595486111111112,65.3439670138889,0)" xlink:href="#O"/><use transform="matrix(0.007595486111111112,0,0,0.007595486111111112,74.67881944444446,0)" xlink:href="#O"/><use transform="matrix(0.007595486111111112,0,0,0.007595486111111112,84.01367187500001,0)" xlink:href="#P"/><use transform="matrix(0.007595486111111112,0,0,0.007595486111111112,93.34852430555557,0)" xlink:href="#M"/><use transform="matrix(0.007595486111111112,0,0,0.007595486111111112,102.68337673611113,0)" xlink:href="#R"/><use transform="matrix(0.007595486111111112,0,0,0.007595486111111112,112.01822916666669,0)" xlink:href="#S"/><use transform="matrix(0.007595486111111112,0,0,0.007595486111111112,121.35308159722224,0)" xlink:href="#T"/><use transform="matrix(0.007595486111111112,0,0,0.007595486111111112,130.6879340277778,0)" xlink:href="#U"/><use transform="matrix(0.007595486111111112,0,0,0.007595486111111112,140.02278645833337,0)" xlink:href="#V"/><use transform="matrix(0.007595486111111112,0,0,0.007595486111111112,149.3576388888889,0)" xlink:href="#W"/><use transform="matrix(0.007595486111111112,0,0,0.007595486111111112,158.69249131944446,0)" xlink:href="#X"/><use transform="matrix(0.007595486111111112,0,0,0.007595486111111112,168.02734375,0)" xlink:href="#Y"/><use transform="matrix(0.007595486111111112,0,0,0.007595486111111112,177.36219618055554,0)" xlink:href="#aS"/><use transform="matrix(0.007595486111111112,0,0,0.007595486111111112,186.6970486111111,0)" xlink:href="#aa"/></g><g id="E"><use transform="matrix(0.0078125,0,0,0.0078125,0,0)" xlink:href="#aN"/><use transform="matrix(0.0078125,0,0,0.0078125,9.6015625,0)" xlink:href="#aK"/><use transform="matrix(0.0078125,0,0,0.0078125,19.203125,0)" xlink:href="#aO"/></g><path fill="#24292f" d="M1069-1210C890-948 720-664 634-316c-25 105-38 210-38 316H408c9-385 153-667 302-925 57-98 120-190 185-279H158v-145h911v139" id="aV"/><g id="F"><use transform="matrix(0.006727430555555555,0,0,0.006727430555555555,0,0)" xlink:href="#an"/><use transform="matrix(0.006727430555555555,0,0,0.006727430555555555,8.268012152777777,0)" xlink:href="#ao"/><use transform="matrix(0.006727430555555555,0,0,0.006727430555555555,16.536024305555554,0)" xlink:href="#ap"/><use transform="matrix(0.006727430555555555,0,0,0.006727430555555555,24.80403645833333,0)" xlink:href="#aq"/><use transform="matrix(0.006727430555555555,0,0,0.006727430555555555,33.07204861111111,0)" xlink:href="#ar"/><use transform="matrix(0.006727430555555555,0,0,0.006727430555555555,41.340060763888886,0)" xlink:href="#as"/><use transform="matrix(0.006727430555555555,0,0,0.006727430555555555,49.608072916666664,0)" xlink:href="#ar"/><use transform="matrix(0.006727430555555555,0,0,0.006727430555555555,57.87608506944444,0)" xlink:href="#aq"/><use transform="matrix(0.006727430555555555,0,0,0.006727430555555555,66.14409722222221,0)" xlink:href="#aq"/><use transform="matrix(0.006727430555555555,0,0,0.006727430555555555,74.41210937499999,0)" xlink:href="#ar"/><use transform="matrix(0.006727430555555555,0,0,0.006727430555555555,82.68012152777776,0)" xlink:href="#ao"/><use transform="matrix(0.006727430555555555,0,0,0.006727430555555555,90.94813368055553,0)" xlink:href="#at"/><use transform="matrix(0.006727430555555555,0,0,0.006727430555555555,99.2161458333333,0)" xlink:href="#S"/><use transform="matrix(0.006727430555555555,0,0,0.006727430555555555,107.48415798611107,0)" xlink:href="#T"/><use transform="matrix(0.006727430555555555,0,0,0.006727430555555555,115.75217013888883,0)" xlink:href="#U"/><use transform="matrix(0.006727430555555555,0,0,0.006727430555555555,124.02018229166661,0)" xlink:href="#V"/><use transform="matrix(0.006727430555555555,0,0,0.006727430555555555,132.2881944444444,0)" xlink:href="#W"/><use transform="matrix(0.006727430555555555,0,0,0.006727430555555555,140.55620659722217,0)" xlink:href="#X"/><use transform="matrix(0.006727430555555555,0,0,0.006727430555555555,148.82421874999994,0)" xlink:href="#Y"/><use transform="matrix(0.006727430555555555,0,0,0.006727430555555555,157.09223090277771,0)" xlink:href="#aV"/><use transform="matrix(0.006727430555555555,0,0,0.006727430555555555,165.3602430555555,0)" xlink:href="#aa"/><use transform="matrix(0.006727430555555555,0,0,0.006727430555555555,173.62825520833326,0)" xlink:href="#au"/><use transform="matrix(0.006727430555555555,0,0,0.006727430555555555,181.89626736111103,0)" xlink:href="#aT"/><use transform="matrix(0.006727430555555555,0,0,0.006727430555555555,190.1642795138888,0)" xlink:href="#aU"/><use transform="matrix(0.006727430555555555,0,0,0.006727430555555555,198.43229166666657,0)" xlink:href="#aQ"/></g><path d="M141-911c0-296 172-459 469-459 157 0 276 55 356 166s121 278 121 501c-1 324-87 567-297 677-134 70-367 56-475-22-71-52-117-126-145-226l172-27c34 111 103 176 238 176 187 0 261-138 304-298 16-65 24-141 25-227-59 121-177 199-350 199-275 0-418-184-418-460zm461 318c168 0 289-96 289-269 0-158-59-275-163-332-36-20-77-30-124-30-187 0-280 125-280 313s90 318 278 318" id="aW"/><g id="G"><use transform="matrix(0.05,0,0,0.05,0,0)" xlink:href="#av"/><use transform="matrix(0.05,0,0,0.05,5,0)" xlink:href="#aw"/><use transform="matrix(0.05,0,0,0.05,15,0)" xlink:href="#al"/><use transform="matrix(0.0078125,0,0,0.0078125,20.95,0)" xlink:href="#aF"/><use transform="matrix(0.0078125,0,0,0.0078125,30.5515625,0)" xlink:href="#aG"/><use transform="matrix(0.0078125,0,0,0.0078125,40.153125,0)" xlink:href="#aN"/><use transform="matrix(0.0078125,0,0,0.0078125,49.7546875,0)" xlink:href="#aW"/><use transform="matrix(0.0078125,0,0,0.0078125,59.35625,0)" xlink:href="#aK"/><use transform="matrix(0.0078125,0,0,0.0078125,68.9578125,0)" xlink:href="#aJ"/><use transform="matrix(0.0078125,0,0,0.0078125,78.559375,0)" xlink:href="#aK"/><use transform="matrix(0.0078125,0,0,0.0078125,88.1609375,0)" xlink:href="#aL"/><use transform="matrix(0.0078125,0,0,0.0078125,97.7625,0)" xlink:href="#aL"/><use transform="matrix(0.05,0,0,0.05,107.3640625,0)" xlink:href="#am"/></g><g id="H"><use transform="matrix(0.007595486111111112,0,0,0.007595486111111112,0,0)" xlink:href="#L"/><use transform="matrix(0.007595486111111112,0,0,0.007595486111111112,9.334852430555557,0)" xlink:href="#M"/><use transform="matrix(0.007595486111111112,0,0,0.007595486111111112,18.669704861111114,0)" xlink:href="#N"/><use transform="matrix(0.007595486111111112,0,0,0.007595486111111112,28.00455729166667,0)" xlink:href="#O"/><use transform="matrix(0.007595486111111112,0,0,0.007595486111111112,37.33940972222223,0)" xlink:href="#P"/><use transform="matrix(0.007595486111111112,0,0,0.007595486111111112,46.674262152777786,0)" xlink:href="#Q"/><use transform="matrix(0.007595486111111112,0,0,0.007595486111111112,56.00911458333334,0)" xlink:href="#P"/><use transform="matrix(0.007595486111111112,0,0,0.007595486111111112,65.3439670138889,0)" xlink:href="#O"/><use transform="matrix(0.007595486111111112,0,0,0.007595486111111112,74.67881944444446,0)" xlink:href="#O"/><use transform="matrix(0.007595486111111112,0,0,0.007595486111111112,84.01367187500001,0)" xlink:href="#P"/><use transform="matrix(0.007595486111111112,0,0,0.007595486111111112,93.34852430555557,0)" xlink:href="#M"/><use transform="matrix(0.007595486111111112,0,0,0.007595486111111112,102.68337673611113,0)" xlink:href="#R"/><use transform="matrix(0.007595486111111112,0,0,0.007595486111111112,112.01822916666669,0)" xlink:href="#S"/><use transform="matrix(0.007595486111111112,0,0,0.007595486111111112,121.35308159722224,0)" xlink:href="#T"/><use transform="matrix(0.007595486111111112,0,0,0.007595486111111112,130.6879340277778,0)" xlink:href="#U"/><use transform="matrix(0.007595486111111112,0,0,0.007595486111111112,140.02278645833337,0)" xlink:href="#V"/><use transform="matrix(0.007595486111111112,0,0,0.007595486111111112,149.3576388888889,0)" xlink:href="#W"/><use transform="matrix(0.007595486111111112,0,0,0.007595486111111112,158.69249131944446,0)" xlink:href="#X"/><use transform="matrix(0.007595486111111112,0,0,0.007595486111111112,168.02734375,0)" xlink:href="#Y"/><use transform="matrix(0.007595486111111112,0,0,0.007595486111111112,177.36219618055554,0)" xlink:href="#aT"/><use transform="matrix(0.007595486111111112,0,0,0.007595486111111112,186.6970486111111,0)" xlink:href="#aa"/></g><g id="I"><use transform="matrix(0.05,0,0,0.05,0,0)" xlink:href="#ay"/><use transform="matrix(0.05,0,0,0.05,10,0)" xlink:href="#ai"/><use transform="matrix(0.05,0,0,0.05,20,0)" xlink:href="#ag"/><use transform="matrix(0.05,0,0,0.05,25,0)" xlink:href="#ac"/><use transform="matrix(0.05,0,0,0.05,37,0)" xlink:href="#az"/><use transform="matrix(0.05,0,0,0.05,47,0)" xlink:href="#af"/><use transform="matrix(0.05,0,0,0.05,50.95,0)" xlink:href="#al"/><use transform="matrix(0.05,0,0,0.05,56.900000000000006,0)" xlink:href="#aA"/><use transform="matrix(0.05,0,0,0.05,71.85000000000001,0)" xlink:href="#aB"/><use transform="matrix(0.05,0,0,0.05,80.85000000000001,0)" xlink:href="#ae"/><use transform="matrix(0.05,0,0,0.05,89.85000000000001,0)" xlink:href="#ai"/><use transform="matrix(0.05,0,0,0.05,99.85000000000001,0)" xlink:href="#aj"/><use transform="matrix(0.05,0,0,0.05,105.80000000000001,0)" xlink:href="#ak"/><use transform="matrix(0.05,0,0,0.05,114.80000000000001,0)" xlink:href="#ad"/><use transform="matrix(0.05,0,0,0.05,124.80000000000001,0)" xlink:href="#aR"/><use transform="matrix(0.05,0,0,0.05,134.8,0)" xlink:href="#aC"/></g><g id="J"><use transform="matrix(0.0078125,0,0,0.0078125,0,0)" xlink:href="#aN"/><use transform="matrix(0.0078125,0,0,0.0078125,9.6015625,0)" xlink:href="#aW"/><use transform="matrix(0.0078125,0,0,0.0078125,19.203125,0)" xlink:href="#aK"/></g><path fill="#3a414a" d="M100-194c63 0 86 42 84 106H49c0 40 14 67 53 68 26 1 43-12 49-29l28 8c-11 28-37 45-77 45C44 4 14-33 15-96c1-61 26-98 85-98zm52 81c6-60-76-77-97-28-3 7-6 17-6 28h103" id="aX"/><path fill="#3a414a" d="M141 0L90-78 38 0H4l68-98-65-92h35l48 74 47-74h35l-64 92 68 98h-35" id="aY"/><path fill="#3a414a" d="M24-231v-30h32v30H24zM24 0v-190h32V0H24" id="aZ"/><path fill="#3a414a" d="M59-47c-2 24 18 29 38 22v24C64 9 27 4 27-40v-127H5v-23h24l9-43h21v43h35v23H59v120" id="ba"/><g id="K"><use transform="matrix(0.049382716049382706,0,0,0.049382716049382706,0,0)" xlink:href="#aX"/><use transform="matrix(0.049382716049382706,0,0,0.049382716049382706,9.87654320987654,0)" xlink:href="#aY"/><use transform="matrix(0.049382716049382706,0,0,0.049382716049382706,18.76543209876543,0)" xlink:href="#aZ"/><use transform="matrix(0.049382716049382706,0,0,0.049382716049382706,22.666666666666664,0)" xlink:href="#ba"/></g></defs></g></svg>