<svg xmlns="http://www.w3.org/2000/svg" xmlns:xlink="http://www.w3.org/1999/xlink" xmlns:lucid="lucid" width="332.23" height="960"><g transform="translate(-180 -20)" lucid:page-tab-id="0_0"><path d="M0 0h1870.87v1322.83H0z" fill="#fff"/><path d="M368 40c17.67 0 32 17.9 32 40s-14.33 40-32 40h-96c-17.67 0-32-17.9-32-40s14.33-40 32-40z" stroke="#000" stroke-opacity="0" fill="#ff741d"/><use xlink:href="#a" transform="matrix(1,0,0,1,245,45) translate(51.5 38.4625)"/><path d="M320 321v22.12" stroke="#333" fill="none"/><path d="M320.5 321h-1v-.5h1z" stroke="#333" stroke-width=".05" fill="#333"/><path d="M320 357.88l-4.64-14.26h9.28z" stroke="#333" fill="#333"/><path d="M205 541.1c0-4.4 3.58-8 8-8h214c4.42 0 8 3.6 8 8V672c0 4.42-3.58 8-8 8H213c-4.42 0-8-3.58-8-8z" stroke="#333" fill="#fbf0ff"/><use xlink:href="#b" transform="matrix(1,0,0,1,217,545.1111111111112) translate(0 12.796875)"/><use xlink:href="#c" transform="matrix(1,0,0,1,217,545.1111111111112) translate(48.0078125 12.796875)"/><use xlink:href="#d" transform="matrix(1,0,0,1,217,545.1111111111112) translate(105.6171875 12.796875)"/><use xlink:href="#e" transform="matrix(1,0,0,1,217,545.1111111111112) translate(124.8203125 12.796875)"/><use xlink:href="#f" transform="matrix(1,0,0,1,217,545.1111111111112) translate(0 35.01909722222223)"/><use xlink:href="#g" transform="matrix(1,0,0,1,217,545.1111111111112) translate(38.40625 35.01909722222223)"/><use xlink:href="#d" transform="matrix(1,0,0,1,217,545.1111111111112) translate(144.0234375 35.01909722222223)"/><use xlink:href="#h" transform="matrix(1,0,0,1,217,545.1111111111112) translate(163.2265625 35.01909722222223)"/><use xlink:href="#f" transform="matrix(1,0,0,1,217,545.1111111111112) translate(0 51.01909722222223)"/><use xlink:href="#i" transform="matrix(1,0,0,1,217,545.1111111111112) translate(38.40625 51.01909722222223)"/><use xlink:href="#d" transform="matrix(1,0,0,1,217,545.1111111111112) translate(57.609375 51.01909722222223)"/><use xlink:href="#j" transform="matrix(1,0,0,1,217,545.1111111111112) translate(76.8125 51.01909722222223)"/><use xlink:href="#f" transform="matrix(1,0,0,1,217,545.1111111111112) translate(0 67.01909722222223)"/><use xlink:href="#k" transform="matrix(1,0,0,1,217,545.1111111111112) translate(38.40625 67.01909722222223)"/><use xlink:href="#d" transform="matrix(1,0,0,1,217,545.1111111111112) translate(115.21875 67.01909722222223)"/><use xlink:href="#j" transform="matrix(1,0,0,1,217,545.1111111111112) translate(134.421875 67.01909722222223)"/><use xlink:href="#f" transform="matrix(1,0,0,1,217,545.1111111111112) translate(0 83.01909722222223)"/><use xlink:href="#l" transform="matrix(1,0,0,1,217,545.1111111111112) translate(38.40625 83.01909722222223)"/><use xlink:href="#d" transform="matrix(1,0,0,1,217,545.1111111111112) translate(67.2109375 83.01909722222223)"/><use xlink:href="#j" transform="matrix(1,0,0,1,217,545.1111111111112) translate(86.4140625 83.01909722222223)"/><use xlink:href="#f" transform="matrix(1,0,0,1,217,545.1111111111112) translate(0 99.01909722222223)"/><use xlink:href="#m" transform="matrix(1,0,0,1,217,545.1111111111112) translate(38.40625 99.01909722222223)"/><use xlink:href="#d" transform="matrix(1,0,0,1,217,545.1111111111112) translate(153.625 99.01909722222223)"/><use xlink:href="#j" transform="matrix(1,0,0,1,217,545.1111111111112) translate(172.828125 99.01909722222223)"/><use xlink:href="#n" transform="matrix(1,0,0,1,217,545.1111111111112) translate(0 115.01909722222223)"/><use xlink:href="#o" transform="matrix(1,0,0,1,217,545.1111111111112) translate(48.0078125 115.01909722222223)"/><use xlink:href="#d" transform="matrix(1,0,0,1,217,545.1111111111112) translate(153.625 115.01909722222223)"/><use xlink:href="#p" transform="matrix(1,0,0,1,217,545.1111111111112) translate(172.828125 115.01909722222223)"/><use xlink:href="#q" transform="matrix(1,0,0,1,217,545.1111111111112) translate(192.03125 115.01909722222223)"/><use xlink:href="#r" transform="matrix(1,0,0,1,217,545.1111111111112) translate(0 131.01909722222223)"/><path d="M240 168c0-4.42 3.58-8 8-8h144c4.42 0 8 3.58 8 8v144c0 4.42-3.58 8-8 8H248c-4.42 0-8-3.58-8-8z" stroke="#333" fill="#fbf0ff"/><g><use xlink:href="#s" transform="matrix(1,0,0,1,252,172.00000000000003) translate(0 12.796875)"/><use xlink:href="#t" transform="matrix(1,0,0,1,252,172.00000000000003) translate(57.609375 12.796875)"/><use xlink:href="#s" transform="matrix(1,0,0,1,252,172.00000000000003) translate(0 35.01909722222223)"/><use xlink:href="#u" transform="matrix(1,0,0,1,252,172.00000000000003) translate(57.609375 35.01909722222223)"/><use xlink:href="#s" transform="matrix(1,0,0,1,252,172.00000000000003) translate(0 51.01909722222223)"/><use xlink:href="#v" transform="matrix(1,0,0,1,252,172.00000000000003) translate(57.609375 51.01909722222223)"/><use xlink:href="#s" transform="matrix(1,0,0,1,252,172.00000000000003) translate(0 67.01909722222223)"/><use xlink:href="#w" transform="matrix(1,0,0,1,252,172.00000000000003) translate(57.609375 67.01909722222223)"/><use xlink:href="#s" transform="matrix(1,0,0,1,252,172.00000000000003) translate(0 83.01909722222223)"/><use xlink:href="#x" transform="matrix(1,0,0,1,252,172.00000000000003) translate(57.609375 83.01909722222223)"/><use xlink:href="#s" transform="matrix(1,0,0,1,252,172.00000000000003) translate(0 99.01909722222223)"/><use xlink:href="#y" transform="matrix(1,0,0,1,252,172.00000000000003) translate(57.609375 99.01909722222223)"/><use xlink:href="#s" transform="matrix(1,0,0,1,252,172.00000000000003) translate(0 115.01909722222223)"/><use xlink:href="#z" transform="matrix(1,0,0,1,252,172.00000000000003) translate(57.609375 115.01909722222223)"/><use xlink:href="#s" transform="matrix(1,0,0,1,252,172.00000000000003) translate(0 131.01909722222223)"/><use xlink:href="#A" transform="matrix(1,0,0,1,252,172.00000000000003) translate(57.609375 131.01909722222223)"/><use xlink:href="#r" transform="matrix(1,0,0,1,252,172.00000000000003) translate(68 147.01909722222223)"/></g><path d="M320 120.5v22.62" stroke="#333" fill="none"/><path d="M320.5 120.5h-1v-.5h1z" stroke="#333" stroke-width=".05" fill="#333"/><path d="M320 157.88l-4.64-14.26h9.28z" stroke="#333" fill="#333"/><path d="M200 368c0-4.42 3.58-8 8-8h224c4.42 0 8 3.58 8 8v117.1c0 4.43-3.58 8-8 8H208c-4.42 0-8-3.57-8-8z" stroke="#333" fill="#ced4db"/><g><use xlink:href="#B" transform="matrix(1,0,0,1,212,372) translate(0 12.796875)"/><use xlink:href="#C" transform="matrix(1,0,0,1,212,372) translate(0 35.01909722222223)"/><use xlink:href="#D" transform="matrix(1,0,0,1,212,372) translate(0 51.01909722222223)"/><use xlink:href="#E" transform="matrix(1,0,0,1,212,372) translate(115.21875 51.01909722222223)"/><use xlink:href="#F" transform="matrix(1,0,0,1,212,372) translate(0 67.01909722222223)"/><use xlink:href="#E" transform="matrix(1,0,0,1,212,372) translate(115.21875 67.01909722222223)"/><use xlink:href="#G" transform="matrix(1,0,0,1,212,372) translate(0 83.01909722222223)"/><use xlink:href="#H" transform="matrix(1,0,0,1,212,372) translate(163.2265625 83.01909722222223)"/><use xlink:href="#I" transform="matrix(1,0,0,1,212,372) translate(0 99.01909722222223)"/><use xlink:href="#J" transform="matrix(1,0,0,1,212,372) translate(163.2265625 99.01909722222223)"/><use xlink:href="#r" transform="matrix(1,0,0,1,212,372) translate(0 115.01909722222223)"/></g><path d="M230 728c0-4.42 3.58-8 8-8h164c4.42 0 8 3.58 8 8v104c0 4.42-3.58 8-8 8H238c-4.42 0-8-3.58-8-8z" stroke="#333" fill="#ffdda6"/><path d="M248 720v120m144-120v120" stroke="#333" fill="none"/><g><use xlink:href="#K" transform="matrix(1,0,0,1,257.5,725) translate(-4.7109375 59.796875)"/></g><path d="M320 494.1v22.13" stroke="#333" fill="none"/><path d="M320.5 494.12h-1v-.5h1z" stroke="#333" stroke-width=".05" fill="#333"/><path d="M320 531l-4.64-14.27h9.28z" stroke="#333" fill="#333"/><path d="M320 681v22.12" stroke="#333" fill="none"/><path d="M320.5 681h-1v-.5h1z" stroke="#333" stroke-width=".05" fill="#333"/><path d="M320 717.88l-4.64-14.26h9.28z" stroke="#333" fill="#333"/><path d="M368 880c17.67 0 32 17.9 32 40s-14.33 40-32 40h-96c-17.67 0-32-17.9-32-40s14.33-40 32-40z" stroke="#000" stroke-opacity="0" fill="#ff741d"/><g><use xlink:href="#L" transform="matrix(1,0,0,1,245,884.9999999999999) translate(61.19753086419753 38.28472222222222)"/></g><path d="M320 841v22.62" stroke="#3a414a" fill="none"/><path d="M320.5 841h-1v-.5h1z" stroke="#3a414a" stroke-width=".05" fill="#3a414a"/><path d="M320 878.38l-4.64-14.26h9.28z" stroke="#3a414a" fill="#3a414a"/><defs><path fill="#333" d="M185-189c-5-48-123-54-124 2 14 75 158 14 163 119 3 78-121 87-175 55-17-10-28-26-33-46l33-7c5 56 141 63 141-1 0-78-155-14-162-118-5-82 145-84 179-34 5 7 8 16 11 25" id="M"/><path fill="#333" d="M100-194c63 0 86 42 84 106H49c0 40 14 67 53 68 26 1 43-12 49-29l28 8c-11 28-37 45-77 45C44 4 14-33 15-96c1-61 26-98 85-98zm52 81c6-60-76-77-97-28-3 7-6 17-6 28h103" id="N"/><path fill="#333" d="M59-47c-2 24 18 29 38 22v24C64 9 27 4 27-40v-127H5v-23h24l9-43h21v43h35v23H59v120" id="O"/><path fill="#333" d="M84 4C-5 8 30-112 23-190h32v120c0 31 7 50 39 49 72-2 45-101 50-169h31l1 190h-30c-1-10 1-25-2-33-11 22-28 36-60 37" id="P"/><path fill="#333" d="M115-194c55 1 70 41 70 98S169 2 115 4C84 4 66-9 55-30l1 105H24l-1-265h31l2 30c10-21 28-34 59-34zm-8 174c40 0 45-34 45-75s-6-73-45-74c-42 0-51 32-51 76 0 43 10 73 51 73" id="Q"/><g id="a"><use transform="matrix(0.05,0,0,0.05,0,0)" xlink:href="#M"/><use transform="matrix(0.05,0,0,0.05,12,0)" xlink:href="#N"/><use transform="matrix(0.05,0,0,0.05,22,0)" xlink:href="#O"/><use transform="matrix(0.05,0,0,0.05,27,0)" xlink:href="#P"/><use transform="matrix(0.05,0,0,0.05,37,0)" xlink:href="#Q"/></g><path fill="#24292f" d="M365-904c58-129 161-200 334-200 130 0 228 46 293 138s98 233 98 420c0 189-34 331-102 425S824 20 698 20c-170 0-275-64-336-184 0 55-3 116-9 164H179c5-68 6-147 6-223v-1261h180c-2 193 4 394-4 580h4zm283 791c221 0 256-197 256-427 0-229-34-425-254-425-236 0-285 195-285 441 0 237 53 411 283 411" id="R"/><path fill="#24292f" d="M615-1102c343 0 484 203 482 560-1 347-147 562-488 562-336 0-475-219-479-562-4-349 156-560 485-560zm-8 989c240 0 301-180 301-429 0-245-55-427-290-427-236 0-299 181-299 427 0 243 61 429 288 429" id="S"/><path fill="#24292f" d="M736-142h380V0H134v-142h422v-1200H267v-142h469v1342" id="T"/><g id="b"><use transform="matrix(0.0078125,0,0,0.0078125,0,0)" xlink:href="#R"/><use transform="matrix(0.0078125,0,0,0.0078125,9.6015625,0)" xlink:href="#S"/><use transform="matrix(0.0078125,0,0,0.0078125,19.203125,0)" xlink:href="#S"/><use transform="matrix(0.0078125,0,0,0.0078125,28.8046875,0)" xlink:href="#T"/></g><path fill="#24292f" d="M904-1102c199 0 220 177 220 381V0H956v-686c-3-114 0-215-60-264-70-33-125-4-158 71-26 56-39 140-39 252V0H531v-686c-3-114-1-215-61-264-78-41-136 24-157 84-24 69-39 159-39 259V0H105c-3-360 6-732-6-1082h149c6 50 3 123 8 175 36-100 83-195 216-195 135 0 166 79 196 196 42-105 93-196 236-196" id="U"/><path fill="#24292f" d="M706-1102c241 0 344 136 343 381V0H868v-695c1-168-57-273-220-268-190 6-283 138-283 336V0H185c-3-360 6-732-6-1082h170c4 54 7 126 8 185h3c63-121 164-204 346-205" id="V"/><path fill="#24292f" d="M682 16c-209 0-323-80-324-285v-671H190v-142h170l58-282h120v282h432v142H538v652c2 114 60 155 182 155 106 0 209-16 297-34v137C921-4 806 16 682 16" id="W"/><path fill="#24292f" d="M617-1102c355 0 481 238 477 599H322c5 222 84 388 301 388 144 0 244-59 284-166l158 45C1002-72 854 20 623 20c-342 0-490-220-490-568 0-346 151-554 484-554zm291 461c-18-192-90-328-289-328-194 0-287 128-295 328h584" id="X"/><g id="c"><use transform="matrix(0.0078125,0,0,0.0078125,0,0)" xlink:href="#U"/><use transform="matrix(0.0078125,0,0,0.0078125,9.6015625,0)" xlink:href="#S"/><use transform="matrix(0.0078125,0,0,0.0078125,19.203125,0)" xlink:href="#V"/><use transform="matrix(0.0078125,0,0,0.0078125,28.8046875,0)" xlink:href="#W"/><use transform="matrix(0.0078125,0,0,0.0078125,38.40625,0)" xlink:href="#X"/></g><path fill="#24292f" d="M116-856v-148h995v148H116zm0 512v-148h995v148H116" id="Y"/><use transform="matrix(0.0078125,0,0,0.0078125,0,0)" xlink:href="#Y" id="d"/><path fill="#24292f" d="M839-1102c70 0 148 7 206 17v167c-112-18-268-36-363 15-129 69-208 203-208 395V0H294c-10-367 32-789-52-1082h171c21 75 41 161 48 250h5c67-152 152-270 373-270" id="Z"/><path fill="#24292f" d="M528 20c-247 0-343-132-343-381v-721h180v686c-4 177 45 284 224 277 194-8 279-136 279-336v-627h181c3 360-6 732 6 1082H885c-4-54-7-126-8-185h-3C809-64 714 20 528 20" id="aa"/><g id="e"><use transform="matrix(0.0078125,0,0,0.0078125,0,0)" xlink:href="#W"/><use transform="matrix(0.0078125,0,0,0.0078125,9.6015625,0)" xlink:href="#Z"/><use transform="matrix(0.0078125,0,0,0.0078125,19.203125,0)" xlink:href="#aa"/><use transform="matrix(0.0078125,0,0,0.0078125,28.8046875,0)" xlink:href="#X"/></g><path fill="#24292f" d="M745-142h380V0H143v-142h422v-798H246v-142h499v940zM545-1292v-192h200v192H545" id="ab"/><g id="f"><use transform="matrix(0.0078125,0,0,0.0078125,0,0)" xlink:href="#ab"/><use transform="matrix(0.0078125,0,0,0.0078125,9.6015625,0)" xlink:href="#V"/><use transform="matrix(0.0078125,0,0,0.0078125,19.203125,0)" xlink:href="#W"/></g><path fill="#24292f" d="M873-819c-18-114-119-146-250-146-163 0-245 50-245 151 0 151 170 148 294 185 182 54 388 94 388 320 0 240-189 325-439 329-245 4-410-69-454-268l159-31c24 133 136 168 295 165 144-2 270-31 270-171 0-164-195-160-331-202-167-52-350-87-350-299 0-218 173-315 413-313 220 2 373 77 412 260" id="ac"/><path fill="#24292f" d="M698-1104c312 3 392 244 392 558 0 315-82 566-392 566-169 0-277-65-331-184h-5c8 188 2 394 4 589H185V-858c0-76-1-156-6-224h175c6 52 9 120 10 178h4c58-122 150-202 330-200zm-49 991c225 0 255-203 255-433 0-225-32-419-253-419-236 0-285 192-285 441 0 237 53 411 283 411" id="ad"/><path fill="#24292f" d="M865-914c-3-187-2-380-2-570h180v1261c0 76 1 155 6 223H877c-8-49-9-116-10-174h-5C801-44 708 26 530 26c-135 0-234-46-297-139s-95-232-95-419c0-377 131-566 392-566 176 0 271 63 335 184zm-286-51c-222 0-255 197-255 427 0 229 31 425 253 425 237 0 286-195 286-441 0-238-52-411-284-411" id="ae"/><path fill="#24292f" d="M-5 220v-96h1238v96H-5" id="af"/><path fill="#24292f" d="M932 0L611-444 288 0H94l415-556-397-526h199l300 421 298-421h201L713-558 1133 0H932" id="ag"/><path fill="#24292f" d="M631 20c-350 0-501-215-501-562 0-355 162-560 502-560 250 0 399 118 446 323l-192 14c-23-124-109-196-262-196-242 0-305 171-305 415 1 245 61 427 304 427 151 0 248-77 267-215l190 12C1039-107 883 20 631 20" id="ah"/><g id="g"><use transform="matrix(0.0078125,0,0,0.0078125,0,0)" xlink:href="#ac"/><use transform="matrix(0.0078125,0,0,0.0078125,9.6015625,0)" xlink:href="#ad"/><use transform="matrix(0.0078125,0,0,0.0078125,19.203125,0)" xlink:href="#X"/><use transform="matrix(0.0078125,0,0,0.0078125,28.8046875,0)" xlink:href="#X"/><use transform="matrix(0.0078125,0,0,0.0078125,38.40625,0)" xlink:href="#ae"/><use transform="matrix(0.0078125,0,0,0.0078125,48.0078125,0)" xlink:href="#af"/><use transform="matrix(0.0078125,0,0,0.0078125,57.609375,0)" xlink:href="#X"/><use transform="matrix(0.0078125,0,0,0.0078125,67.2109375,0)" xlink:href="#ag"/><use transform="matrix(0.0078125,0,0,0.0078125,76.8125,0)" xlink:href="#X"/><use transform="matrix(0.0078125,0,0,0.0078125,86.4140625,0)" xlink:href="#ah"/></g><path fill="#24292f" d="M148-1120c216-7 379-89 463-229h166v1204h353V0H157v-145h439v-1021c-79 124-254 184-448 194v-148" id="ai"/><path fill="#24292f" d="M1065-1013c47 164 49 500-1 665C999-130 875 20 611 20c-377 0-484-300-487-695-2-245 41-425 141-551 77-98 191-144 352-144 261 0 386 140 448 357zM741-155c199-92 203-504 159-785-26-168-96-284-283-284-281 0-308 256-311 549-2 181 18 324 80 428 46 77 115 118 227 120 47 0 90-10 128-28" id="aj"/><g id="h"><use transform="matrix(0.0078125,0,0,0.0078125,0,0)" xlink:href="#ai"/><use transform="matrix(0.0078125,0,0,0.0078125,9.6015625,0)" xlink:href="#aj"/></g><use transform="matrix(0.0078125,0,0,0.0078125,0,0)" xlink:href="#W" id="i"/><use transform="matrix(0.0078125,0,0,0.0078125,0,0)" xlink:href="#aj" id="j"/><path fill="#24292f" d="M1000-272c3 95 12 159 101 161 21 0 41-3 59-7V-6c-44 10-86 16-139 16-141 2-191-84-197-217h-6C748-76 648 20 446 20c-207 0-318-120-318-322 0-266 194-348 454-354l236-4c12-191-40-305-222-305-140 0-220 47-232 172l-188-17c33-204 181-292 423-292 255 0 401 118 401 364v466zm-683-27c0 109 63 184 175 182 166-3 259-96 306-217 24-65 20-120 20-200-232 7-501-28-501 235" id="ak"/><g id="k"><use transform="matrix(0.0078125,0,0,0.0078125,0,0)" xlink:href="#W"/><use transform="matrix(0.0078125,0,0,0.0078125,9.6015625,0)" xlink:href="#S"/><use transform="matrix(0.0078125,0,0,0.0078125,19.203125,0)" xlink:href="#W"/><use transform="matrix(0.0078125,0,0,0.0078125,28.8046875,0)" xlink:href="#ak"/><use transform="matrix(0.0078125,0,0,0.0078125,38.40625,0)" xlink:href="#T"/><use transform="matrix(0.0078125,0,0,0.0078125,48.0078125,0)" xlink:href="#af"/><use transform="matrix(0.0078125,0,0,0.0078125,57.609375,0)" xlink:href="#W"/></g><path fill="#24292f" d="M611-1370c266 0 451 106 451 368 0 147-77 243-154 327-132 144-316 255-451 395-42 44-75 87-96 134h723V0H144v-117c124-264 387-411 582-603 73-72 151-147 151-271 0-161-104-231-266-231-163 0-249 90-268 238l-184-17c35-233 185-369 452-369" id="al"/><g id="l"><use transform="matrix(0.0078125,0,0,0.0078125,0,0)" xlink:href="#W"/><use transform="matrix(0.0078125,0,0,0.0078125,9.6015625,0)" xlink:href="#al"/></g><g id="m"><use transform="matrix(0.0078125,0,0,0.0078125,0,0)" xlink:href="#ah"/><use transform="matrix(0.0078125,0,0,0.0078125,9.6015625,0)" xlink:href="#S"/><use transform="matrix(0.0078125,0,0,0.0078125,19.203125,0)" xlink:href="#ae"/><use transform="matrix(0.0078125,0,0,0.0078125,28.8046875,0)" xlink:href="#X"/><use transform="matrix(0.0078125,0,0,0.0078125,38.40625,0)" xlink:href="#af"/><use transform="matrix(0.0078125,0,0,0.0078125,48.0078125,0)" xlink:href="#X"/><use transform="matrix(0.0078125,0,0,0.0078125,57.609375,0)" xlink:href="#Z"/><use transform="matrix(0.0078125,0,0,0.0078125,67.2109375,0)" xlink:href="#Z"/><use transform="matrix(0.0078125,0,0,0.0078125,76.8125,0)" xlink:href="#X"/><use transform="matrix(0.0078125,0,0,0.0078125,86.4140625,0)" xlink:href="#aa"/><use transform="matrix(0.0078125,0,0,0.0078125,96.015625,0)" xlink:href="#Z"/></g><path fill="#24292f" d="M648-963c-190 6-283 138-283 336V0H185v-1484h181c-2 197 6 404-9 587h3c62-120 159-205 339-205 242 0 351 135 350 381V0H868v-695c1-168-57-273-220-268" id="am"/><g id="n"><use transform="matrix(0.0078125,0,0,0.0078125,0,0)" xlink:href="#ah"/><use transform="matrix(0.0078125,0,0,0.0078125,9.6015625,0)" xlink:href="#am"/><use transform="matrix(0.0078125,0,0,0.0078125,19.203125,0)" xlink:href="#ak"/><use transform="matrix(0.0078125,0,0,0.0078125,28.8046875,0)" xlink:href="#Z"/></g><path fill="#24292f" d="M1048-32c-2 300-135 456-433 456-222-1-358-88-400-267l184-25c22 99 100 157 222 156 184-2 248-125 248-315 0-64 3-133-2-194C807-100 706-13 524-12c-306 0-381-228-381-537 0-318 85-550 400-550 164 0 271 83 325 202h3c1-60 3-134 12-185h171c-13 339-4 702-6 1050zM585-145c210-8 284-178 284-406 0-192-52-331-177-392-33-16-69-22-104-22-223 2-259 184-259 414 0 229 31 415 256 406" id="an"/><g id="o"><use transform="matrix(0.0078125,0,0,0.0078125,0,0)" xlink:href="#U"/><use transform="matrix(0.0078125,0,0,0.0078125,9.6015625,0)" xlink:href="#X"/><use transform="matrix(0.0078125,0,0,0.0078125,19.203125,0)" xlink:href="#ac"/><use transform="matrix(0.0078125,0,0,0.0078125,28.8046875,0)" xlink:href="#ac"/><use transform="matrix(0.0078125,0,0,0.0078125,38.40625,0)" xlink:href="#ak"/><use transform="matrix(0.0078125,0,0,0.0078125,48.0078125,0)" xlink:href="#an"/><use transform="matrix(0.0078125,0,0,0.0078125,57.609375,0)" xlink:href="#X"/><use transform="matrix(0.0078125,0,0,0.0078125,67.2109375,0)" xlink:href="#af"/><use transform="matrix(0.0078125,0,0,0.0078125,76.8125,0)" xlink:href="#R"/><use transform="matrix(0.0078125,0,0,0.0078125,86.4140625,0)" xlink:href="#W"/></g><path fill="#24292f" d="M684-845H543l-41-639h224" id="ao"/><use transform="matrix(0.0078125,0,0,0.0078125,0,0)" xlink:href="#ao" id="p"/><use transform="matrix(0.0078125,0,0,0.0078125,0,0)" xlink:href="#ao" id="q"/><path fill="#24292f" d="M614-1226c-167 1-283 53-283 213 0 183 186 193 334 234 230 63 463 120 463 409 0 286-219 387-518 390C309 23 131-98 79-338l185-37c34 165 149 248 351 246 184-2 324-58 324-238 0-203-207-221-372-266-210-57-422-111-422-377 0-267 201-356 470-360 279-5 430 101 480 324l-188 33c-28-141-121-215-293-213" id="ap"/><path fill="#24292f" d="M715 0H502L69-1082h202c94 253 197 500 285 758 19 57 36 126 52 183 96-335 234-626 350-941h201" id="aq"/><g id="s"><use transform="matrix(0.0078125,0,0,0.0078125,0,0)" xlink:href="#ap"/><use transform="matrix(0.0078125,0,0,0.0078125,9.6015625,0)" xlink:href="#X"/><use transform="matrix(0.0078125,0,0,0.0078125,19.203125,0)" xlink:href="#Z"/><use transform="matrix(0.0078125,0,0,0.0078125,28.8046875,0)" xlink:href="#aq"/><use transform="matrix(0.0078125,0,0,0.0078125,38.40625,0)" xlink:href="#S"/></g><path fill="#24292f" d="M168 279c222 39 310-114 368-290L66-1082h192c120 299 249 590 362 896 115-301 235-597 351-896h190L705 0c-65 164-130 320-275 396-67 36-177 35-262 18V279" id="ar"/><g id="t"><use transform="matrix(0.0078125,0,0,0.0078125,0,0)" xlink:href="#U"/><use transform="matrix(0.0078125,0,0,0.0078125,9.6015625,0)" xlink:href="#ar"/><use transform="matrix(0.0078125,0,0,0.0078125,19.203125,0)" xlink:href="#ac"/><use transform="matrix(0.0078125,0,0,0.0078125,28.8046875,0)" xlink:href="#X"/><use transform="matrix(0.0078125,0,0,0.0078125,38.40625,0)" xlink:href="#Z"/><use transform="matrix(0.0078125,0,0,0.0078125,48.0078125,0)" xlink:href="#aq"/><use transform="matrix(0.0078125,0,0,0.0078125,57.609375,0)" xlink:href="#S"/><use transform="matrix(0.0078125,0,0,0.0078125,67.2109375,0)" xlink:href="#ai"/></g><g id="u"><use transform="matrix(0.0078125,0,0,0.0078125,0,0)" xlink:href="#U"/><use transform="matrix(0.0078125,0,0,0.0078125,9.6015625,0)" xlink:href="#ar"/><use transform="matrix(0.0078125,0,0,0.0078125,19.203125,0)" xlink:href="#ac"/><use transform="matrix(0.0078125,0,0,0.0078125,28.8046875,0)" xlink:href="#X"/><use transform="matrix(0.0078125,0,0,0.0078125,38.40625,0)" xlink:href="#Z"/><use transform="matrix(0.0078125,0,0,0.0078125,48.0078125,0)" xlink:href="#aq"/><use transform="matrix(0.0078125,0,0,0.0078125,57.609375,0)" xlink:href="#S"/><use transform="matrix(0.0078125,0,0,0.0078125,67.2109375,0)" xlink:href="#al"/></g><path fill="#24292f" d="M1060-1016c0 191-128 285-295 323v4c154 18 262 91 313 209 14 35 21 72 21 110 0 277-194 390-478 390-292 0-457-129-493-382l186-17c24 161 121 250 307 250 172 1 298-80 291-247-8-208-220-239-446-233v-156c217 9 409-34 409-232 0-152-102-225-264-225-159 0-264 88-278 233l-181-14c33-239 196-367 461-367 264 0 447 102 447 354" id="as"/><g id="v"><use transform="matrix(0.0078125,0,0,0.0078125,0,0)" xlink:href="#U"/><use transform="matrix(0.0078125,0,0,0.0078125,9.6015625,0)" xlink:href="#ar"/><use transform="matrix(0.0078125,0,0,0.0078125,19.203125,0)" xlink:href="#ac"/><use transform="matrix(0.0078125,0,0,0.0078125,28.8046875,0)" xlink:href="#X"/><use transform="matrix(0.0078125,0,0,0.0078125,38.40625,0)" xlink:href="#Z"/><use transform="matrix(0.0078125,0,0,0.0078125,48.0078125,0)" xlink:href="#aq"/><use transform="matrix(0.0078125,0,0,0.0078125,57.609375,0)" xlink:href="#S"/><use transform="matrix(0.0078125,0,0,0.0078125,67.2109375,0)" xlink:href="#as"/></g><path fill="#24292f" d="M937-319V0H757v-319H103v-140l635-890h199v888h188v142H937zm-180-835L257-461h500v-693" id="at"/><g id="w"><use transform="matrix(0.0078125,0,0,0.0078125,0,0)" xlink:href="#U"/><use transform="matrix(0.0078125,0,0,0.0078125,9.6015625,0)" xlink:href="#ar"/><use transform="matrix(0.0078125,0,0,0.0078125,19.203125,0)" xlink:href="#ac"/><use transform="matrix(0.0078125,0,0,0.0078125,28.8046875,0)" xlink:href="#X"/><use transform="matrix(0.0078125,0,0,0.0078125,38.40625,0)" xlink:href="#Z"/><use transform="matrix(0.0078125,0,0,0.0078125,48.0078125,0)" xlink:href="#aq"/><use transform="matrix(0.0078125,0,0,0.0078125,57.609375,0)" xlink:href="#S"/><use transform="matrix(0.0078125,0,0,0.0078125,67.2109375,0)" xlink:href="#at"/></g><path fill="#24292f" d="M353-779c69-51 166-92 291-90 218 3 357 100 423 255 21 52 32 109 32 170 0 305-189 464-500 464-268 0-424-116-471-335l182-21c35 130 124 212 293 209 198-4 309-114 309-313 0-182-118-282-305-282-120 0-198 45-262 101H169l47-728h801v145H382" id="au"/><g id="x"><use transform="matrix(0.0078125,0,0,0.0078125,0,0)" xlink:href="#U"/><use transform="matrix(0.0078125,0,0,0.0078125,9.6015625,0)" xlink:href="#ar"/><use transform="matrix(0.0078125,0,0,0.0078125,19.203125,0)" xlink:href="#ac"/><use transform="matrix(0.0078125,0,0,0.0078125,28.8046875,0)" xlink:href="#X"/><use transform="matrix(0.0078125,0,0,0.0078125,38.40625,0)" xlink:href="#Z"/><use transform="matrix(0.0078125,0,0,0.0078125,48.0078125,0)" xlink:href="#aq"/><use transform="matrix(0.0078125,0,0,0.0078125,57.609375,0)" xlink:href="#S"/><use transform="matrix(0.0078125,0,0,0.0078125,67.2109375,0)" xlink:href="#au"/></g><path fill="#24292f" d="M672-881c271 0 424 163 424 435 0 291-160 466-455 466-367 0-490-287-490-662 0-324 85-568 293-680 129-70 351-59 460 16 73 50 125 123 153 223l-172 31c-31-108-107-172-232-172-259 0-316 252-323 529 59-113 178-186 342-186zm-37 756c186 0 278-124 278-313s-96-304-284-304c-163 0-281 93-281 261 0 157 65 270 168 327 35 19 75 29 119 29" id="av"/><g id="y"><use transform="matrix(0.0078125,0,0,0.0078125,0,0)" xlink:href="#U"/><use transform="matrix(0.0078125,0,0,0.0078125,9.6015625,0)" xlink:href="#ar"/><use transform="matrix(0.0078125,0,0,0.0078125,19.203125,0)" xlink:href="#ac"/><use transform="matrix(0.0078125,0,0,0.0078125,28.8046875,0)" xlink:href="#X"/><use transform="matrix(0.0078125,0,0,0.0078125,38.40625,0)" xlink:href="#Z"/><use transform="matrix(0.0078125,0,0,0.0078125,48.0078125,0)" xlink:href="#aq"/><use transform="matrix(0.0078125,0,0,0.0078125,57.609375,0)" xlink:href="#S"/><use transform="matrix(0.0078125,0,0,0.0078125,67.2109375,0)" xlink:href="#av"/></g><path fill="#24292f" d="M1069-1210C890-948 720-664 634-316c-25 105-38 210-38 316H408c9-385 153-667 302-925 57-98 120-190 185-279H158v-145h911v139" id="aw"/><g id="z"><use transform="matrix(0.0078125,0,0,0.0078125,0,0)" xlink:href="#U"/><use transform="matrix(0.0078125,0,0,0.0078125,9.6015625,0)" xlink:href="#ar"/><use transform="matrix(0.0078125,0,0,0.0078125,19.203125,0)" xlink:href="#ac"/><use transform="matrix(0.0078125,0,0,0.0078125,28.8046875,0)" xlink:href="#X"/><use transform="matrix(0.0078125,0,0,0.0078125,38.40625,0)" xlink:href="#Z"/><use transform="matrix(0.0078125,0,0,0.0078125,48.0078125,0)" xlink:href="#aq"/><use transform="matrix(0.0078125,0,0,0.0078125,57.609375,0)" xlink:href="#S"/><use transform="matrix(0.0078125,0,0,0.0078125,67.2109375,0)" xlink:href="#aw"/></g><path fill="#24292f" d="M809-709c168 33 285 134 285 331 0 277-191 398-480 398-287 0-481-120-481-396 0-192 118-296 281-331v-4c-145-39-248-139-248-313 0-238 192-346 444-346 211 0 357 75 422 217 19 41 27 86 27 131 0 172-101 274-250 309v4zm-197-70c168 0 260-73 260-233 0-158-100-224-262-224-160 0-260 68-260 224 0 155 97 232 262 233zm4 664c194 1 291-91 291-280 0-172-115-249-297-249-178 0-291 85-291 253 0 186 106 275 297 276" id="ax"/><g id="A"><use transform="matrix(0.0078125,0,0,0.0078125,0,0)" xlink:href="#U"/><use transform="matrix(0.0078125,0,0,0.0078125,9.6015625,0)" xlink:href="#ar"/><use transform="matrix(0.0078125,0,0,0.0078125,19.203125,0)" xlink:href="#ac"/><use transform="matrix(0.0078125,0,0,0.0078125,28.8046875,0)" xlink:href="#X"/><use transform="matrix(0.0078125,0,0,0.0078125,38.40625,0)" xlink:href="#Z"/><use transform="matrix(0.0078125,0,0,0.0078125,48.0078125,0)" xlink:href="#aq"/><use transform="matrix(0.0078125,0,0,0.0078125,57.609375,0)" xlink:href="#S"/><use transform="matrix(0.0078125,0,0,0.0078125,67.2109375,0)" xlink:href="#ax"/></g><path fill="#24292f" d="M496 0v-299h235V0H496" id="ay"/><path fill="#24292f" d="M891-1484c-201 251-362 514-362 954 0 441 161 704 362 955H701C500 176 342-90 342-532c0-440 159-704 359-952h190" id="az"/><path fill="#24292f" d="M141-911c0-296 172-459 469-459 157 0 276 55 356 166s121 278 121 501c-1 324-87 567-297 677-134 70-367 56-475-22-71-52-117-126-145-226l172-27c34 111 103 176 238 176 187 0 261-138 304-298 16-65 24-141 25-227-59 121-177 199-350 199-275 0-418-184-418-460zm461 318c168 0 289-96 289-269 0-158-59-275-163-332-36-20-77-30-124-30-187 0-280 125-280 313s90 318 278 318" id="aA"/><path fill="#24292f" d="M528-1484c201 248 357 511 357 952 0 442-156 709-357 957H336C537 174 700-89 700-530c0-440-163-703-364-954h192" id="aB"/><g id="B"><use transform="matrix(0.0078125,0,0,0.0078125,0,0)" xlink:href="#ap"/><use transform="matrix(0.0078125,0,0,0.0078125,9.6015625,0)" xlink:href="#X"/><use transform="matrix(0.0078125,0,0,0.0078125,19.203125,0)" xlink:href="#Z"/><use transform="matrix(0.0078125,0,0,0.0078125,28.8046875,0)" xlink:href="#ab"/><use transform="matrix(0.0078125,0,0,0.0078125,38.40625,0)" xlink:href="#ak"/><use transform="matrix(0.0078125,0,0,0.0078125,48.0078125,0)" xlink:href="#T"/><use transform="matrix(0.0078125,0,0,0.0078125,57.609375,0)" xlink:href="#ay"/><use transform="matrix(0.0078125,0,0,0.0078125,67.2109375,0)" xlink:href="#R"/><use transform="matrix(0.0078125,0,0,0.0078125,76.8125,0)" xlink:href="#X"/><use transform="matrix(0.0078125,0,0,0.0078125,86.4140625,0)" xlink:href="#an"/><use transform="matrix(0.0078125,0,0,0.0078125,96.015625,0)" xlink:href="#ab"/><use transform="matrix(0.0078125,0,0,0.0078125,105.6171875,0)" xlink:href="#V"/><use transform="matrix(0.0078125,0,0,0.0078125,115.21875,0)" xlink:href="#az"/><use transform="matrix(0.0078125,0,0,0.0078125,124.8203125,0)" xlink:href="#aA"/><use transform="matrix(0.0078125,0,0,0.0078125,134.421875,0)" xlink:href="#av"/><use transform="matrix(0.0078125,0,0,0.0078125,144.0234375,0)" xlink:href="#aj"/><use transform="matrix(0.0078125,0,0,0.0078125,153.625,0)" xlink:href="#aj"/><use transform="matrix(0.0078125,0,0,0.0078125,163.2265625,0)" xlink:href="#aB"/></g><g id="C"><use transform="matrix(0.0078125,0,0,0.0078125,0,0)" xlink:href="#ap"/><use transform="matrix(0.0078125,0,0,0.0078125,9.6015625,0)" xlink:href="#X"/><use transform="matrix(0.0078125,0,0,0.0078125,19.203125,0)" xlink:href="#Z"/><use transform="matrix(0.0078125,0,0,0.0078125,28.8046875,0)" xlink:href="#ab"/><use transform="matrix(0.0078125,0,0,0.0078125,38.40625,0)" xlink:href="#ak"/><use transform="matrix(0.0078125,0,0,0.0078125,48.0078125,0)" xlink:href="#T"/><use transform="matrix(0.0078125,0,0,0.0078125,57.609375,0)" xlink:href="#ai"/><use transform="matrix(0.0078125,0,0,0.0078125,67.2109375,0)" xlink:href="#ay"/><use transform="matrix(0.0078125,0,0,0.0078125,76.8125,0)" xlink:href="#R"/><use transform="matrix(0.0078125,0,0,0.0078125,86.4140625,0)" xlink:href="#X"/><use transform="matrix(0.0078125,0,0,0.0078125,96.015625,0)" xlink:href="#an"/><use transform="matrix(0.0078125,0,0,0.0078125,105.6171875,0)" xlink:href="#ab"/><use transform="matrix(0.0078125,0,0,0.0078125,115.21875,0)" xlink:href="#V"/><use transform="matrix(0.0078125,0,0,0.0078125,124.8203125,0)" xlink:href="#az"/><use transform="matrix(0.0078125,0,0,0.0078125,134.421875,0)" xlink:href="#aA"/><use transform="matrix(0.0078125,0,0,0.0078125,144.0234375,0)" xlink:href="#av"/><use transform="matrix(0.0078125,0,0,0.0078125,153.625,0)" xlink:href="#aj"/><use transform="matrix(0.0078125,0,0,0.0078125,163.2265625,0)" xlink:href="#aj"/><use transform="matrix(0.0078125,0,0,0.0078125,172.828125,0)" xlink:href="#aB"/></g><path fill="#24292f" d="M285-1169c8 382 2 780 4 1169H129v-1349h237c86 239 188 461 253 720 69-258 169-481 255-720h225V0H937c2-390-5-788 6-1169-75 255-170 488-259 729H547c-90-240-185-475-262-729" id="aC"/><path fill="#24292f" d="M259 363l169-662h265L382 363H259" id="aD"/><g id="D"><use transform="matrix(0.0078125,0,0,0.0078125,0,0)" xlink:href="#ad"/><use transform="matrix(0.0078125,0,0,0.0078125,9.6015625,0)" xlink:href="#ab"/><use transform="matrix(0.0078125,0,0,0.0078125,19.203125,0)" xlink:href="#V"/><use transform="matrix(0.0078125,0,0,0.0078125,28.8046875,0)" xlink:href="#aC"/><use transform="matrix(0.0078125,0,0,0.0078125,38.40625,0)" xlink:href="#S"/><use transform="matrix(0.0078125,0,0,0.0078125,48.0078125,0)" xlink:href="#ae"/><use transform="matrix(0.0078125,0,0,0.0078125,57.609375,0)" xlink:href="#X"/><use transform="matrix(0.0078125,0,0,0.0078125,67.2109375,0)" xlink:href="#az"/><use transform="matrix(0.0078125,0,0,0.0078125,76.8125,0)" xlink:href="#al"/><use transform="matrix(0.0078125,0,0,0.0078125,86.4140625,0)" xlink:href="#aj"/><use transform="matrix(0.0078125,0,0,0.0078125,96.015625,0)" xlink:href="#aD"/></g><path fill="#24292f" d="M102-681c0-398 126-689 513-689 165 0 291 58 379 174s132 287 132 515c-1 318-88 554-298 657-123 61-317 58-438-3-206-104-288-341-288-654zm749 406c94-160 97-656-5-807-57-85-130-132-231-132-104 0-178 47-234 132-101 153-99 655 1 809 57 89 130 138 232 138 109 0 184-49 237-140" id="aE"/><path fill="#24292f" d="M604-135c236 0 291-142 291-376v-838h190v859c5 340-142 510-480 510-326 0-463-164-463-492v-877h191v851c-3 222 46 363 271 363" id="aF"/><path fill="#24292f" d="M709-1193V0H519v-1193H76v-156h1076v156H709" id="aG"/><path fill="#24292f" d="M622-1349c296 4 497 117 497 404 0 282-193 424-485 431H353V0H162v-1349h460zm-15 684c195-3 320-88 320-277 0-184-129-255-328-254H353v531h254" id="aH"/><g id="E"><use transform="matrix(0.0078125,0,0,0.0078125,0,0)" xlink:href="#aE"/><use transform="matrix(0.0078125,0,0,0.0078125,9.6015625,0)" xlink:href="#aF"/><use transform="matrix(0.0078125,0,0,0.0078125,19.203125,0)" xlink:href="#aG"/><use transform="matrix(0.0078125,0,0,0.0078125,28.8046875,0)" xlink:href="#aH"/><use transform="matrix(0.0078125,0,0,0.0078125,38.40625,0)" xlink:href="#aF"/><use transform="matrix(0.0078125,0,0,0.0078125,48.0078125,0)" xlink:href="#aG"/><use transform="matrix(0.0078125,0,0,0.0078125,57.609375,0)" xlink:href="#aB"/></g><g id="F"><use transform="matrix(0.0078125,0,0,0.0078125,0,0)" xlink:href="#ad"/><use transform="matrix(0.0078125,0,0,0.0078125,9.6015625,0)" xlink:href="#ab"/><use transform="matrix(0.0078125,0,0,0.0078125,19.203125,0)" xlink:href="#V"/><use transform="matrix(0.0078125,0,0,0.0078125,28.8046875,0)" xlink:href="#aC"/><use transform="matrix(0.0078125,0,0,0.0078125,38.40625,0)" xlink:href="#S"/><use transform="matrix(0.0078125,0,0,0.0078125,48.0078125,0)" xlink:href="#ae"/><use transform="matrix(0.0078125,0,0,0.0078125,57.609375,0)" xlink:href="#X"/><use transform="matrix(0.0078125,0,0,0.0078125,67.2109375,0)" xlink:href="#az"/><use transform="matrix(0.0078125,0,0,0.0078125,76.8125,0)" xlink:href="#al"/><use transform="matrix(0.0078125,0,0,0.0078125,86.4140625,0)" xlink:href="#ai"/><use transform="matrix(0.0078125,0,0,0.0078125,96.015625,0)" xlink:href="#aD"/></g><path fill="#24292f" d="M1018 0H810c-67-251-137-496-194-756C558-495 487-250 419 0H211L0-1349h189c48 393 110 772 142 1181 58-262 128-512 197-763h175c69 251 139 500 197 763 37-402 92-789 139-1181h189" id="aI"/><g id="G"><use transform="matrix(0.0078125,0,0,0.0078125,0,0)" xlink:href="#ae"/><use transform="matrix(0.0078125,0,0,0.0078125,9.6015625,0)" xlink:href="#ab"/><use transform="matrix(0.0078125,0,0,0.0078125,19.203125,0)" xlink:href="#an"/><use transform="matrix(0.0078125,0,0,0.0078125,28.8046875,0)" xlink:href="#ab"/><use transform="matrix(0.0078125,0,0,0.0078125,38.40625,0)" xlink:href="#W"/><use transform="matrix(0.0078125,0,0,0.0078125,48.0078125,0)" xlink:href="#ak"/><use transform="matrix(0.0078125,0,0,0.0078125,57.609375,0)" xlink:href="#T"/><use transform="matrix(0.0078125,0,0,0.0078125,67.2109375,0)" xlink:href="#aI"/><use transform="matrix(0.0078125,0,0,0.0078125,76.8125,0)" xlink:href="#Z"/><use transform="matrix(0.0078125,0,0,0.0078125,86.4140625,0)" xlink:href="#ab"/><use transform="matrix(0.0078125,0,0,0.0078125,96.015625,0)" xlink:href="#W"/><use transform="matrix(0.0078125,0,0,0.0078125,105.6171875,0)" xlink:href="#X"/><use transform="matrix(0.0078125,0,0,0.0078125,115.21875,0)" xlink:href="#az"/><use transform="matrix(0.0078125,0,0,0.0078125,124.8203125,0)" xlink:href="#al"/><use transform="matrix(0.0078125,0,0,0.0078125,134.421875,0)" xlink:href="#aj"/><use transform="matrix(0.0078125,0,0,0.0078125,144.0234375,0)" xlink:href="#aD"/></g><path fill="#24292f" d="M237 0v-1349h191v1193h672V0H237" id="aJ"/><g id="H"><use transform="matrix(0.0078125,0,0,0.0078125,0,0)" xlink:href="#aJ"/><use transform="matrix(0.0078125,0,0,0.0078125,9.6015625,0)" xlink:href="#aE"/><use transform="matrix(0.0078125,0,0,0.0078125,19.203125,0)" xlink:href="#aI"/><use transform="matrix(0.0078125,0,0,0.0078125,28.8046875,0)" xlink:href="#aB"/></g><g id="I"><use transform="matrix(0.0078125,0,0,0.0078125,0,0)" xlink:href="#ae"/><use transform="matrix(0.0078125,0,0,0.0078125,9.6015625,0)" xlink:href="#ab"/><use transform="matrix(0.0078125,0,0,0.0078125,19.203125,0)" xlink:href="#an"/><use transform="matrix(0.0078125,0,0,0.0078125,28.8046875,0)" xlink:href="#ab"/><use transform="matrix(0.0078125,0,0,0.0078125,38.40625,0)" xlink:href="#W"/><use transform="matrix(0.0078125,0,0,0.0078125,48.0078125,0)" xlink:href="#ak"/><use transform="matrix(0.0078125,0,0,0.0078125,57.609375,0)" xlink:href="#T"/><use transform="matrix(0.0078125,0,0,0.0078125,67.2109375,0)" xlink:href="#aI"/><use transform="matrix(0.0078125,0,0,0.0078125,76.8125,0)" xlink:href="#Z"/><use transform="matrix(0.0078125,0,0,0.0078125,86.4140625,0)" xlink:href="#ab"/><use transform="matrix(0.0078125,0,0,0.0078125,96.015625,0)" xlink:href="#W"/><use transform="matrix(0.0078125,0,0,0.0078125,105.6171875,0)" xlink:href="#X"/><use transform="matrix(0.0078125,0,0,0.0078125,115.21875,0)" xlink:href="#az"/><use transform="matrix(0.0078125,0,0,0.0078125,124.8203125,0)" xlink:href="#al"/><use transform="matrix(0.0078125,0,0,0.0078125,134.421875,0)" xlink:href="#ai"/><use transform="matrix(0.0078125,0,0,0.0078125,144.0234375,0)" xlink:href="#aD"/></g><path fill="#24292f" d="M875 0v-623H353V0H162v-1349h191v566h522v-566h191V0H875" id="aK"/><path fill="#24292f" d="M202-1349h823v156H709v1037h316V0H202v-156h316v-1037H202v-156" id="aL"/><path fill="#24292f" d="M655-135c108 0 195-33 260-74v-336H622v-160h479v572C981-54 839 20 639 20c-388 0-526-306-526-701 0-406 129-689 529-689 261 0 392 137 461 331l-171 56c-47-131-122-231-288-231-281 0-330 245-330 533 0 179 28 314 84 407s142 139 257 139" id="aM"/><g id="J"><use transform="matrix(0.0078125,0,0,0.0078125,0,0)" xlink:href="#aK"/><use transform="matrix(0.0078125,0,0,0.0078125,9.6015625,0)" xlink:href="#aL"/><use transform="matrix(0.0078125,0,0,0.0078125,19.203125,0)" xlink:href="#aM"/><use transform="matrix(0.0078125,0,0,0.0078125,28.8046875,0)" xlink:href="#aK"/><use transform="matrix(0.0078125,0,0,0.0078125,38.40625,0)" xlink:href="#aB"/></g><path fill="#282c33" d="M1000-272c3 95 12 159 101 161 21 0 41-3 59-7V-6c-44 10-86 16-139 16-141 2-191-84-197-217h-6C748-76 648 20 446 20c-207 0-318-120-318-322 0-266 194-348 454-354l236-4c12-191-40-305-222-305-140 0-220 47-232 172l-188-17c33-204 181-292 423-292 255 0 401 118 401 364v466zm-683-27c0 109 63 184 175 182 166-3 259-96 306-217 24-65 20-120 20-200-232 7-501-28-501 235" id="aN"/><path fill="#282c33" d="M682 16c-209 0-323-80-324-285v-671H190v-142h170l58-282h120v282h432v142H538v652c2 114 60 155 182 155 106 0 209-16 297-34v137C921-4 806 16 682 16" id="aO"/><path fill="#282c33" d="M631 20c-350 0-501-215-501-562 0-355 162-560 502-560 250 0 399 118 446 323l-192 14c-23-124-109-196-262-196-242 0-305 171-305 415 1 245 61 427 304 427 151 0 248-77 267-215l190 12C1039-107 883 20 631 20" id="aP"/><path fill="#282c33" d="M648-963c-190 6-283 138-283 336V0H185v-1484h181c-2 197 6 404-9 587h3c62-120 159-205 339-205 242 0 351 135 350 381V0H868v-695c1-168-57-273-220-268" id="aQ"/><path fill="#282c33" d="M365-904c58-129 161-200 334-200 130 0 228 46 293 138s98 233 98 420c0 189-34 331-102 425S824 20 698 20c-170 0-275-64-336-184 0 55-3 116-9 164H179c5-68 6-147 6-223v-1261h180c-2 193 4 394-4 580h4zm283 791c221 0 256-197 256-427 0-229-34-425-254-425-236 0-285 195-285 441 0 237 53 411 283 411" id="aR"/><path fill="#282c33" d="M617-1102c355 0 481 238 477 599H322c5 222 84 388 301 388 144 0 244-59 284-166l158 45C1002-72 854 20 623 20c-342 0-490-220-490-568 0-346 151-554 484-554zm291 461c-18-192-90-328-289-328-194 0-287 128-295 328h584" id="aS"/><path fill="#282c33" d="M839-1102c70 0 148 7 206 17v167c-112-18-268-36-363 15-129 69-208 203-208 395V0H294c-10-367 32-789-52-1082h171c21 75 41 161 48 250h5c67-152 152-270 373-270" id="aT"/><path fill="#282c33" d="M891-1484c-201 251-362 514-362 954 0 441 161 704 362 955H701C500 176 342-90 342-532c0-440 159-704 359-952h190" id="aU"/><path fill="#282c33" d="M528-1484c201 248 357 511 357 952 0 442-156 709-357 957H336C537 174 700-89 700-530c0-440-163-703-364-954h192" id="aV"/><g id="K"><use transform="matrix(0.0078125,0,0,0.0078125,0,0)" xlink:href="#aN"/><use transform="matrix(0.0078125,0,0,0.0078125,9.6015625,0)" xlink:href="#aO"/><use transform="matrix(0.0078125,0,0,0.0078125,19.203125,0)" xlink:href="#aO"/><use transform="matrix(0.0078125,0,0,0.0078125,28.8046875,0)" xlink:href="#aN"/><use transform="matrix(0.0078125,0,0,0.0078125,38.40625,0)" xlink:href="#aP"/><use transform="matrix(0.0078125,0,0,0.0078125,48.0078125,0)" xlink:href="#aQ"/><use transform="matrix(0.0078125,0,0,0.0078125,57.609375,0)" xlink:href="#aR"/><use transform="matrix(0.0078125,0,0,0.0078125,67.2109375,0)" xlink:href="#aS"/><use transform="matrix(0.0078125,0,0,0.0078125,76.8125,0)" xlink:href="#aO"/><use transform="matrix(0.0078125,0,0,0.0078125,86.4140625,0)" xlink:href="#aO"/><use transform="matrix(0.0078125,0,0,0.0078125,96.015625,0)" xlink:href="#aS"/><use transform="matrix(0.0078125,0,0,0.0078125,105.6171875,0)" xlink:href="#aT"/><use transform="matrix(0.0078125,0,0,0.0078125,115.21875,0)" xlink:href="#aU"/><use transform="matrix(0.0078125,0,0,0.0078125,124.8203125,0)" xlink:href="#aV"/></g><path fill="#3a414a" d="M100-194c63 0 86 42 84 106H49c0 40 14 67 53 68 26 1 43-12 49-29l28 8c-11 28-37 45-77 45C44 4 14-33 15-96c1-61 26-98 85-98zm52 81c6-60-76-77-97-28-3 7-6 17-6 28h103" id="aW"/><path fill="#3a414a" d="M141 0L90-78 38 0H4l68-98-65-92h35l48 74 47-74h35l-64 92 68 98h-35" id="aX"/><path fill="#3a414a" d="M24-231v-30h32v30H24zM24 0v-190h32V0H24" id="aY"/><path fill="#3a414a" d="M59-47c-2 24 18 29 38 22v24C64 9 27 4 27-40v-127H5v-23h24l9-43h21v43h35v23H59v120" id="aZ"/><g id="L"><use transform="matrix(0.049382716049382706,0,0,0.049382716049382706,0,0)" xlink:href="#aW"/><use transform="matrix(0.049382716049382706,0,0,0.049382716049382706,9.87654320987654,0)" xlink:href="#aX"/><use transform="matrix(0.049382716049382706,0,0,0.049382716049382706,18.76543209876543,0)" xlink:href="#aY"/><use transform="matrix(0.049382716049382706,0,0,0.049382716049382706,22.666666666666664,0)" xlink:href="#aZ"/></g></defs></g></svg>