<svg xmlns="http://www.w3.org/2000/svg" xmlns:xlink="http://www.w3.org/1999/xlink" xmlns:lucid="lucid" width="1378.67" height="1124"><g transform="translate(-180 -60)" lucid:page-tab-id="v7e14rqpf8k1"><path d="M0 0h1870.87v1322.83H0z" fill="#fff"/><path d="M348 80c17.67 0 32 17.9 32 40s-14.33 40-32 40h-96c-17.67 0-32-17.9-32-40s14.33-40 32-40z" stroke="#000" stroke-opacity="0" fill="#ff80df"/><use xlink:href="#a" transform="matrix(1,0,0,1,225,85) translate(55.308641975308646 39.65277777777778)"/><path d="M295.2 203.6c2.65-2 6.95-2 9.6 0l70.4 52.8c2.65 2 2.65 5.2 0 7.2l-70.4 52.8c-2.65 2-6.95 2-9.6 0l-70.4-52.8c-2.65-2-2.65-5.2 0-7.2z" stroke="#3a414a" fill="#fcfcca"/><use xlink:href="#b" transform="matrix(1,0,0,1,225,205) translate(38.12537037037037 57.13194444444444)"/><use xlink:href="#c" transform="matrix(1,0,0,1,225,205) translate(50.180925925925926 57.13194444444444)"/><use xlink:href="#d" transform="matrix(1,0,0,1,225,205) translate(67.42166666666667 57.13194444444444)"/><use xlink:href="#e" transform="matrix(1,0,0,1,225,205) translate(80.81672839506173 57.13194444444444)"/><path d="M300 160.5v24.8" stroke="#3a414a" fill="none"/><path d="M300.5 160.5h-1v-.5h1z" stroke="#3a414a" stroke-width=".05" fill="#3a414a"/><path d="M300 200.05l-4.64-14.26h9.28z" stroke="#3a414a" fill="#3a414a"/><path d="M378.1 260H494c3.3 0 6 2.7 6 6v17.62" stroke="#008a0e" fill="none"/><path d="M378.1 260.5h-.42l-.17-1h.6z" stroke="#008a0e" stroke-width=".05" fill="#008a0e"/><path d="M500 298.38l-4.64-14.26h9.28z" stroke="#008a0e" fill="#008a0e"/><use xlink:href="#f" transform="matrix(1,0,0,1,375.2878450421212,234.66666666666669) translate(0 14.222222222222223)"/><path d="M548 300c17.67 0 32 17.9 32 40s-14.33 40-32 40h-96c-17.67 0-32-17.9-32-40s14.33-40 32-40z" stroke="#000" stroke-opacity="0" fill="#ff80df"/><use xlink:href="#g" transform="matrix(1,0,0,1,425,305) translate(30.617283950617292 39.65277777777778)"/><use xlink:href="#h" transform="matrix(1,0,0,1,425,305) translate(94.69135802469135 39.65277777777778)"/><path d="M295.2 363.6c2.65-2 6.95-2 9.6 0l70.4 52.8c2.65 2 2.65 5.2 0 7.2l-70.4 52.8c-2.65 2-6.95 2-9.6 0l-70.4-52.8c-2.65-2-2.65-5.2 0-7.2z" stroke="#3a414a" fill="#fcfcca"/><use xlink:href="#b" transform="matrix(1,0,0,1,225,365) translate(38.12537037037037 57.13194444444444)"/><use xlink:href="#c" transform="matrix(1,0,0,1,225,365) translate(50.180925925925926 57.13194444444444)"/><use xlink:href="#d" transform="matrix(1,0,0,1,225,365) translate(67.42166666666667 57.13194444444444)"/><use xlink:href="#i" transform="matrix(1,0,0,1,225,365) translate(80.81672839506173 57.13194444444444)"/><path d="M378.1 420H534c3.3 0 6 2.7 6 6v17.62" stroke="#008a0e" fill="none"/><path d="M378.1 420.5h-.42l-.17-1h.6z" stroke="#008a0e" stroke-width=".05" fill="#008a0e"/><path d="M540 458.38l-4.64-14.26h9.28z" stroke="#008a0e" fill="#008a0e"/><use xlink:href="#f" transform="matrix(1,0,0,1,375.2878450421212,394.66666666666663) translate(0 14.222222222222223)"/><path d="M612 460c26.5 0 48 17.9 48 40s-21.5 40-48 40H468c-26.5 0-48-17.9-48-40s21.5-40 48-40z" stroke="#000" stroke-opacity="0" fill="#ff80df"/><use xlink:href="#j" transform="matrix(1,0,0,1,425,465) translate(8.518518518518533 39.65277777777778)"/><use xlink:href="#k" transform="matrix(1,0,0,1,425,465) translate(72.5925925925926 39.65277777777778)"/><use xlink:href="#l" transform="matrix(1,0,0,1,425,465) translate(134.320987654321 39.65277777777778)"/><use xlink:href="#m" transform="matrix(1,0,0,1,425,465) translate(147.8395061728395 39.65277777777778)"/><use xlink:href="#n" transform="matrix(1,0,0,1,425,465) translate(195.55555555555554 39.65277777777778)"/><use xlink:href="#o" transform="matrix(1,0,0,1,425,465) translate(210.37037037037035 39.65277777777778)"/><path d="M295.2 523.6c2.65-2 6.95-2 9.6 0l70.4 52.8c2.65 2 2.65 5.2 0 7.2l-70.4 52.8c-2.65 2-6.95 2-9.6 0l-70.4-52.8c-2.65-2-2.65-5.2 0-7.2z" stroke="#3a414a" fill="#fcfcca"/><use xlink:href="#b" transform="matrix(1,0,0,1,225,525) translate(38.12537037037037 57.13194444444444)"/><use xlink:href="#c" transform="matrix(1,0,0,1,225,525) translate(50.180925925925926 57.13194444444444)"/><use xlink:href="#d" transform="matrix(1,0,0,1,225,525) translate(67.42166666666667 57.13194444444444)"/><use xlink:href="#p" transform="matrix(1,0,0,1,225,525) translate(80.81672839506173 57.13194444444444)"/><path d="M378.1 580H494c3.3 0 6 2.7 6 6v17.62" stroke="#008a0e" fill="none"/><path d="M378.1 580.5h-.42l-.17-1h.6z" stroke="#008a0e" stroke-width=".05" fill="#008a0e"/><path d="M500 618.38l-4.64-14.26h9.28z" stroke="#008a0e" fill="#008a0e"/><use xlink:href="#f" transform="matrix(1,0,0,1,375.2878450421212,554.6666666666666) translate(0 14.222222222222223)"/><path d="M548 620c17.67 0 32 17.9 32 40s-14.33 40-32 40h-96c-17.67 0-32-17.9-32-40s14.33-40 32-40z" stroke="#000" stroke-opacity="0" fill="#ff80df"/><use xlink:href="#g" transform="matrix(1,0,0,1,425,625) translate(24.44444444444445 39.65277777777778)"/><use xlink:href="#q" transform="matrix(1,0,0,1,425,625) translate(88.5185185185185 39.65277777777778)"/><path d="M300.5 329.33h-1v-10.5h1z" stroke="#e81313" stroke-width=".05" fill="#e81313"/><path d="M300.5 318.34v.5h-1v-.52z" fill="#e81313"/><path d="M300.52 318.32v.55h-1.04v-.58zm-1 .5h.96v-.45l-.96-.03z" stroke="#e81313" stroke-width=".05" fill="#e81313"/><path d="M300 360.05l-3.05-9.38h6.1z" fill="#e81313"/><path d="M300 361.67l-3.58-11h1.06l2.52 7.76 2.52-7.76h1.06z" stroke="#e81313" stroke-width=".05" fill="#e81313"/><use xlink:href="#r" transform="matrix(1,0,0,1,288.1975308641975,329.3333333333333) translate(0 14.222222222222223)"/><path d="M300.5 489.33h-1v-10.5h1z" stroke="#e81313" stroke-width=".05" fill="#e81313"/><path d="M300.5 478.34v.5h-1v-.52z" fill="#e81313"/><path d="M300.52 478.32v.55h-1.04v-.58zm-1 .5h.96v-.45l-.96-.03z" stroke="#e81313" stroke-width=".05" fill="#e81313"/><path d="M300 520.05l-3.05-9.38h6.1z" fill="#e81313"/><path d="M300 521.67l-3.58-11h1.06l2.52 7.76 2.52-7.76h1.06z" stroke="#e81313" stroke-width=".05" fill="#e81313"/><use xlink:href="#r" transform="matrix(1,0,0,1,288.1975308641975,489.3333333333333) translate(0 14.222222222222223)"/><path d="M360 700c22.1 0 40 17.9 40 40s-17.9 40-40 40H240c-22.1 0-40-17.9-40-40s17.9-40 40-40z" stroke="#000" stroke-opacity="0" fill="#ff80df"/><use xlink:href="#g" transform="matrix(1,0,0,1,205,705) translate(9.290123456790127 39.65277777777778)"/><use xlink:href="#s" transform="matrix(1,0,0,1,205,705) translate(73.36419753086419 39.65277777777778)"/><use xlink:href="#t" transform="matrix(1,0,0,1,205,705) translate(104.22839506172838 39.65277777777778)"/><use xlink:href="#u" transform="matrix(1,0,0,1,205,705) translate(117.7469135802469 39.65277777777778)"/><use xlink:href="#v" transform="matrix(1,0,0,1,205,705) translate(154.78395061728395 39.65277777777778)"/><use xlink:href="#w" transform="matrix(1,0,0,1,205,705) translate(169.59876543209876 39.65277777777778)"/><path d="M300.5 683.62h-1v-3.8h1zm0-25.12h-1v-19.67h1z" stroke="#e81313" stroke-width=".05" fill="#e81313"/><path d="M300.5 638.34v.5h-1v-.52z" fill="#e81313"/><path d="M300.52 638.32v.55h-1.04v-.58zm-1 .5h.96v-.45l-.96-.03z" stroke="#e81313" stroke-width=".05" fill="#e81313"/><path d="M300 698.38l-4.64-14.26h9.28z" fill="#e81313"/><path d="M300 700l-5.32-16.38h10.64zm-3.95-15.38l3.95 12.14 3.95-12.14z" stroke="#e81313" stroke-width=".05" fill="#e81313"/><use xlink:href="#r" transform="matrix(1,0,0,1,288.1975308641975,658.4979061200862) translate(0 14.222222222222223)"/><path d="M1088 80c17.67 0 32 17.9 32 40s-14.33 40-32 40h-96c-17.67 0-32-17.9-32-40s14.33-40 32-40z" stroke="#000" stroke-opacity="0" fill="#ff80df"/><use xlink:href="#x" transform="matrix(1,0,0,1,965,85) translate(55.308641975308646 39.65277777777778)"/><path d="M1035.2 203.6c2.65-2 6.95-2 9.6 0l70.4 52.8c2.65 2 2.65 5.2 0 7.2l-70.4 52.8c-2.65 2-6.95 2-9.6 0l-70.4-52.8c-2.65-2-2.65-5.2 0-7.2z" stroke="#3a414a" fill="#fcfcca"/><use xlink:href="#y" transform="matrix(1,0,0,1,965,205) translate(38.12537037037037 57.13194444444444)"/><use xlink:href="#z" transform="matrix(1,0,0,1,965,205) translate(50.180925925925926 57.13194444444444)"/><use xlink:href="#A" transform="matrix(1,0,0,1,965,205) translate(67.42166666666667 57.13194444444444)"/><use xlink:href="#B" transform="matrix(1,0,0,1,965,205) translate(80.81672839506173 57.13194444444444)"/><path d="M1118.1 260H1234c3.3 0 6 2.7 6 6v17.62" stroke="#008a0e" fill="none"/><path d="M1118.1 260.5h-.42l-.17-1h.6z" stroke="#008a0e" stroke-width=".05" fill="#008a0e"/><path d="M1240 298.38l-4.64-14.26h9.28z" stroke="#008a0e" fill="#008a0e"/><use xlink:href="#C" transform="matrix(1,0,0,1,1115.2878450421213,234.66666666666669) translate(0 14.222222222222223)"/><path d="M1288 300c17.67 0 32 17.9 32 40s-14.33 40-32 40h-96c-17.67 0-32-17.9-32-40s14.33-40 32-40z" stroke="#000" stroke-opacity="0" fill="#ff80df"/><use xlink:href="#D" transform="matrix(1,0,0,1,1165,305) translate(36.79012345679013 39.65277777777778)"/><use xlink:href="#E" transform="matrix(1,0,0,1,1165,305) translate(100.86419753086419 39.65277777777778)"/><path d="M1040.5 328.5h-1v-9.67h1z" stroke="#e81313" stroke-width=".05" fill="#e81313"/><path d="M1040.5 318.34v.5h-1v-.52z" fill="#e81313"/><path d="M1040.53 318.32v.55h-1.06v-.58zm-1 .5h.94v-.45l-.94-.03z" stroke="#e81313" stroke-width=".05" fill="#e81313"/><path d="M1040 358.38l-2.78-8.55h5.56z" fill="#e81313"/><path d="M1040 360l-3.3-10.17h1.05l2.25 6.93 2.25-6.93h1.05z" stroke="#e81313" stroke-width=".05" fill="#e81313"/><use xlink:href="#F" transform="matrix(1,0,0,1,1028.1975308641975,328.4979061200861) translate(0 14.222222222222223)"/><path d="M1040 160.5v24.8" stroke="#3a414a" fill="none"/><path d="M1040.5 160.5h-1v-.5h1z" stroke="#3a414a" stroke-width=".05" fill="#3a414a"/><path d="M1040 200.05l-4.64-14.26h9.28z" stroke="#3a414a" fill="#3a414a"/><path d="M1088 360c17.67 0 32 17.9 32 40s-14.33 40-32 40h-96c-17.67 0-32-17.9-32-40s14.33-40 32-40z" stroke="#000" stroke-opacity="0" fill="#ff80df"/><use xlink:href="#D" transform="matrix(1,0,0,1,965,365) translate(33.11728395061729 39.65277777777778)"/><use xlink:href="#G" transform="matrix(1,0,0,1,965,365) translate(97.19135802469135 39.65277777777778)"/><path d="M928 560c17.67 0 32 17.9 32 40s-14.33 40-32 40h-96c-17.67 0-32-17.9-32-40s14.33-40 32-40z" stroke="#000" stroke-opacity="0" fill="#ff80df"/><use xlink:href="#H" transform="matrix(1,0,0,1,805,565) translate(3.5493827160493794 39.65277777777778)"/><path d="M880 640.5v43.12" stroke="#3a414a" fill="none"/><path d="M880.5 640.5h-1v-.5h1z" stroke="#3a414a" stroke-width=".05" fill="#3a414a"/><path d="M880 698.38l-4.64-14.26h9.28z" stroke="#3a414a" fill="#3a414a"/><path d="M963.2 700c30.63 0 55.47 23.28 55.47 52s-24.84 52-55.47 52H796.8c-30.63 0-55.47-23.28-55.47-52s24.84-52 55.47-52z" stroke="#000" stroke-opacity="0" fill="#ff80df"/><g><use xlink:href="#I" transform="matrix(1,0,0,1,746.3333333333334,705) translate(34.783854166666686 37.45703125)"/><use xlink:href="#J" transform="matrix(1,0,0,1,746.3333333333334,705) translate(92.65993923611113 37.45703125)"/><use xlink:href="#K" transform="matrix(1,0,0,1,746.3333333333334,705) translate(175.34006076388889 37.45703125)"/><use xlink:href="#L" transform="matrix(1,0,0,1,746.3333333333334,705) translate(191.87608506944443 37.45703125)"/><use xlink:href="#M" transform="matrix(1,0,0,1,746.3333333333334,705) translate(224.94813368055554 37.45703125)"/><use xlink:href="#N" transform="matrix(1,0,0,1,746.3333333333334,705) translate(14.113823784722285 51.23480902777778)"/><use xlink:href="#O" transform="matrix(1,0,0,1,746.3333333333334,705) translate(245.61816406249994 51.23480902777778)"/><use xlink:href="#P" transform="matrix(1,0,0,1,746.3333333333334,705) translate(113.32996961805556 65.01258680555556)"/></g><path d="M1448 560c17.67 0 32 17.9 32 40s-14.33 40-32 40h-96c-17.67 0-32-17.9-32-40s14.33-40 32-40z" stroke="#000" stroke-opacity="0" fill="#ff80df"/><g><use xlink:href="#Q" transform="matrix(1,0,0,1,1325.0000000000005,565) translate(9.722222222222214 39.65277777777778)"/></g><path d="M1400 640.5v43.12" stroke="#3a414a" fill="none"/><path d="M1400.5 640.5h-1v-.5h1z" stroke="#3a414a" stroke-width=".05" fill="#3a414a"/><path d="M1400 698.38l-4.64-14.26h9.28z" stroke="#3a414a" fill="#3a414a"/><path d="M1483.2 700c30.63 0 55.47 23.28 55.47 52s-24.84 52-55.47 52h-166.4c-30.63 0-55.47-23.28-55.47-52s24.84-52 55.47-52z" stroke="#000" stroke-opacity="0" fill="#ff80df"/><g><use xlink:href="#I" transform="matrix(1,0,0,1,1266.3333333333335,705) translate(9.713107638888886 45.109375)"/><use xlink:href="#R" transform="matrix(1,0,0,1,1266.3333333333335,705) translate(67.58919270833333 45.109375)"/><use xlink:href="#S" transform="matrix(1,0,0,1,1266.3333333333335,705) translate(152.66970486111111 45.109375)"/><use xlink:href="#T" transform="matrix(1,0,0,1,1266.3333333333335,705) translate(200.67751736111111 45.109375)"/><use xlink:href="#U" transform="matrix(1,0,0,1,1266.3333333333335,705) translate(77.05740017361111 61.109375)"/><use xlink:href="#V" transform="matrix(1,0,0,1,1266.3333333333335,705) translate(134.66677517361111 61.109375)"/></g><path d="M1448 920c17.67 0 32 17.9 32 40s-14.33 40-32 40h-96c-17.67 0-32-17.9-32-40s14.33-40 32-40z" stroke="#000" stroke-opacity="0" fill="#ff80df"/><g><use xlink:href="#W" transform="matrix(1,0,0,1,1325.0000000000005,925) translate(17.746913580246904 39.65277777777778)"/></g><path d="M1400 1000.5v43.12" stroke="#3a414a" fill="none"/><path d="M1400.5 1000.5h-1v-.5h1z" stroke="#3a414a" stroke-width=".05" fill="#3a414a"/><path d="M1400 1058.38l-4.64-14.26h9.28z" stroke="#3a414a" fill="#3a414a"/><path d="M1483.2 1060c30.63 0 55.47 23.28 55.47 52s-24.84 52-55.47 52h-166.4c-30.63 0-55.47-23.28-55.47-52s24.84-52 55.47-52z" stroke="#000" stroke-opacity="0" fill="#ff80df"/><g><use xlink:href="#I" transform="matrix(1,0,0,1,1266.3333333333335,1065) translate(9.713107638888886 45.109375)"/><use xlink:href="#X" transform="matrix(1,0,0,1,1266.3333333333335,1065) translate(67.58919270833333 45.109375)"/><use xlink:href="#Y" transform="matrix(1,0,0,1,1266.3333333333335,1065) translate(143.06814236111111 45.109375)"/><use xlink:href="#Z" transform="matrix(1,0,0,1,1266.3333333333335,1065) translate(210.27907986111111 45.109375)"/><use xlink:href="#aa" transform="matrix(1,0,0,1,1266.3333333333335,1065) translate(96.26052517361111 61.109375)"/><use xlink:href="#ab" transform="matrix(1,0,0,1,1266.3333333333335,1065) translate(125.06521267361111 61.109375)"/></g><path d="M926.67 920c17.67 0 32 17.9 32 40s-14.33 40-32 40h-96c-17.68 0-32-17.9-32-40s14.32-40 32-40z" stroke="#000" stroke-opacity="0" fill="#ff80df"/><g><use xlink:href="#ac" transform="matrix(1,0,0,1,803.666666666667,925) translate(-2.6234567901234556 39.44444444444444)"/></g><path d="M878.67 1000.5v43.12" stroke="#3a414a" fill="none"/><path d="M879.17 1000.5h-1v-.5h1z" stroke="#3a414a" stroke-width=".05" fill="#3a414a"/><path d="M878.67 1058.38l-4.64-14.26h9.27z" stroke="#3a414a" fill="#3a414a"/><path d="M961.87 1060c30.63 0 55.46 23.28 55.46 52s-24.83 52-55.46 52h-166.4c-30.64 0-55.47-23.28-55.47-52s24.83-52 55.47-52z" stroke="#000" stroke-opacity="0" fill="#ff80df"/><g><use xlink:href="#I" transform="matrix(1,0,0,1,745.0000000000001,1065) translate(28.916232638888886 45.109375)"/><use xlink:href="#ad" transform="matrix(1,0,0,1,745.0000000000001,1065) translate(86.79231770833333 45.109375)"/><use xlink:href="#aa" transform="matrix(1,0,0,1,745.0000000000001,1065) translate(171.87282986111111 45.109375)"/><use xlink:href="#ae" transform="matrix(1,0,0,1,745.0000000000001,1065) translate(200.67751736111111 45.109375)"/><use xlink:href="#Y" transform="matrix(1,0,0,1,745.0000000000001,1065) translate(72.25661892361111 61.109375)"/><use xlink:href="#af" transform="matrix(1,0,0,1,745.0000000000001,1065) translate(139.46755642361111 61.109375)"/></g><defs><path fill="#3a414a" d="M101-234c-31-9-42 10-38 44h38v23H63V0H32v-167H5v-23h27c-7-52 17-82 69-68v24" id="ag"/><path fill="#3a414a" d="M27 0v-27h64v-190l-56 39v-29l58-41h29v221h61V0H27" id="ah"/><path fill="#3a414a" d="M87 75C49 33 22-17 22-94c0-76 28-126 65-167h31c-38 41-64 92-64 168S80 34 118 75H87" id="ai"/><path fill="#3a414a" d="M59-47c-2 24 18 29 38 22v24C64 9 27 4 27-40v-127H5v-23h24l9-43h21v43h35v23H59v120" id="aj"/><path fill="#3a414a" d="M33-261c38 41 65 92 65 168S71 34 33 75H2C39 34 66-17 66-93S39-220 2-261h31" id="ak"/><g id="a"><use transform="matrix(0.06172839506172839,0,0,0.06172839506172839,0,0)" xlink:href="#ag"/><use transform="matrix(0.06172839506172839,0,0,0.06172839506172839,6.172839506172839,0)" xlink:href="#ah"/><use transform="matrix(0.06172839506172839,0,0,0.06172839506172839,18.51851851851852,0)" xlink:href="#ai"/><use transform="matrix(0.06172839506172839,0,0,0.06172839506172839,25.864197530864196,0)" xlink:href="#aj"/><use transform="matrix(0.06172839506172839,0,0,0.06172839506172839,32.03703703703704,0)" xlink:href="#ak"/></g><path fill="#3a414a" d="M24-231v-30h32v30H24zM24 0v-190h32V0H24" id="al"/><g id="b"><use transform="matrix(0.04320987654320987,0,0,0.04320987654320987,0,0)" xlink:href="#al"/><use transform="matrix(0.04320987654320987,0,0,0.04320987654320987,3.4135802469135794,0)" xlink:href="#ag"/></g><path fill="#3a414a" d="M141 0L90-78 38 0H4l68-98-65-92h35l48 74 47-74h35l-64 92 68 98h-35" id="am"/><g id="c"><use transform="matrix(0.04320987654320987,0,0,0.04320987654320987,0,0)" xlink:href="#ai"/><use transform="matrix(0.04320987654320987,0,0,0.04320987654320987,5.141975308641975,0)" xlink:href="#am"/></g><path fill="#3a414a" d="M18-27v-27l151-64-151-65v-27l175 74v36" id="an"/><use transform="matrix(0.04320987654320987,0,0,0.04320987654320987,0,0)" xlink:href="#an" id="d"/><path fill="#3a414a" d="M101-251c82-7 93 87 43 132L82-64C71-53 59-42 53-27h129V0H18c2-99 128-94 128-182 0-28-16-43-45-43s-46 15-49 41l-32-3c6-41 34-60 81-64" id="ao"/><path fill="#3a414a" d="M54-142c48-35 137-8 131 61C196 18 31 33 14-55l32-4c7 23 22 37 52 37 35-1 51-22 54-58 4-55-73-65-99-34H22l8-134h141v27H59" id="ap"/><path fill="#3a414a" d="M101-251c68 0 85 55 85 127S166 4 100 4C33 4 14-52 14-124c0-73 17-127 87-127zm-1 229c47 0 54-49 54-102s-4-102-53-102c-51 0-55 48-55 102 0 53 5 102 54 102" id="aq"/><g id="e"><use transform="matrix(0.04320987654320987,0,0,0.04320987654320987,0,0)" xlink:href="#ao"/><use transform="matrix(0.04320987654320987,0,0,0.04320987654320987,8.641975308641973,0)" xlink:href="#ap"/><use transform="matrix(0.04320987654320987,0,0,0.04320987654320987,17.283950617283946,0)" xlink:href="#aq"/><use transform="matrix(0.04320987654320987,0,0,0.04320987654320987,25.925925925925917,0)" xlink:href="#ak"/></g><path fill="#333" d="M146-102V0H94v-102L6-248h54l60 105 60-105h54" id="ar"/><path fill="#333" d="M185-48c-13 30-37 53-82 52C43 2 14-33 14-96s30-98 90-98c62 0 83 45 84 108H66c0 31 8 55 39 56 18 0 30-7 34-22zm-45-69c5-46-57-63-70-21-2 6-4 13-4 21h74" id="as"/><path fill="#333" d="M137-138c1-29-70-34-71-4 15 46 118 7 119 86 1 83-164 76-172 9l43-7c4 19 20 25 44 25 33 8 57-30 24-41C81-84 22-81 20-136c-2-80 154-74 161-7" id="at"/><g id="f"><use transform="matrix(0.04938271604938272,0,0,0.04938271604938272,0,0)" xlink:href="#ar"/><use transform="matrix(0.04938271604938272,0,0,0.04938271604938272,10.864197530864198,0)" xlink:href="#as"/><use transform="matrix(0.04938271604938272,0,0,0.04938271604938272,20.74074074074074,0)" xlink:href="#at"/></g><path fill="#3a414a" d="M114-163C36-179 61-72 57 0H25l-1-190h30c1 12-1 29 2 39 6-27 23-49 58-41v29" id="au"/><path fill="#3a414a" d="M100-194c63 0 86 42 84 106H49c0 40 14 67 53 68 26 1 43-12 49-29l28 8c-11 28-37 45-77 45C44 4 14-33 15-96c1-61 26-98 85-98zm52 81c6-60-76-77-97-28-3 7-6 17-6 28h103" id="av"/><path fill="#3a414a" d="M84 4C-5 8 30-112 23-190h32v120c0 31 7 50 39 49 72-2 45-101 50-169h31l1 190h-30c-1-10 1-25-2-33-11 22-28 36-60 37" id="aw"/><path fill="#3a414a" d="M117-194c89-4 53 116 60 194h-32v-121c0-31-8-49-39-48C34-167 62-67 57 0H25l-1-190h30c1 10-1 24 2 32 11-22 29-35 61-36" id="ax"/><g id="g"><use transform="matrix(0.06172839506172839,0,0,0.06172839506172839,0,0)" xlink:href="#au"/><use transform="matrix(0.06172839506172839,0,0,0.06172839506172839,7.345679012345679,0)" xlink:href="#av"/><use transform="matrix(0.06172839506172839,0,0,0.06172839506172839,19.691358024691358,0)" xlink:href="#aj"/><use transform="matrix(0.06172839506172839,0,0,0.06172839506172839,25.864197530864196,0)" xlink:href="#aw"/><use transform="matrix(0.06172839506172839,0,0,0.06172839506172839,38.20987654320987,0)" xlink:href="#au"/><use transform="matrix(0.06172839506172839,0,0,0.06172839506172839,45.55555555555555,0)" xlink:href="#ax"/></g><path fill="#3a414a" d="M126-127c33 6 58 20 58 59 0 88-139 92-164 29-3-8-5-16-6-25l32-3c6 27 21 44 54 44 32 0 52-15 52-46 0-38-36-46-79-43v-28c39 1 72-4 72-42 0-27-17-43-46-43-28 0-47 15-49 41l-32-3c6-42 35-63 81-64 48-1 79 21 79 65 0 36-21 52-52 59" id="ay"/><g id="h"><use transform="matrix(0.06172839506172839,0,0,0.06172839506172839,0,0)" xlink:href="#ay"/><use transform="matrix(0.06172839506172839,0,0,0.06172839506172839,12.345679012345679,0)" xlink:href="#aq"/></g><g id="i"><use transform="matrix(0.04320987654320987,0,0,0.04320987654320987,0,0)" xlink:href="#ao"/><use transform="matrix(0.04320987654320987,0,0,0.04320987654320987,8.641975308641973,0)" xlink:href="#aq"/><use transform="matrix(0.04320987654320987,0,0,0.04320987654320987,17.283950617283946,0)" xlink:href="#ap"/><use transform="matrix(0.04320987654320987,0,0,0.04320987654320987,25.925925925925917,0)" xlink:href="#ak"/></g><path fill="#282c33" d="M114-163C36-179 61-72 57 0H25l-1-190h30c1 12-1 29 2 39 6-27 23-49 58-41v29" id="az"/><path fill="#282c33" d="M100-194c63 0 86 42 84 106H49c0 40 14 67 53 68 26 1 43-12 49-29l28 8c-11 28-37 45-77 45C44 4 14-33 15-96c1-61 26-98 85-98zm52 81c6-60-76-77-97-28-3 7-6 17-6 28h103" id="aA"/><path fill="#282c33" d="M59-47c-2 24 18 29 38 22v24C64 9 27 4 27-40v-127H5v-23h24l9-43h21v43h35v23H59v120" id="aB"/><path fill="#282c33" d="M84 4C-5 8 30-112 23-190h32v120c0 31 7 50 39 49 72-2 45-101 50-169h31l1 190h-30c-1-10 1-25-2-33-11 22-28 36-60 37" id="aC"/><path fill="#282c33" d="M117-194c89-4 53 116 60 194h-32v-121c0-31-8-49-39-48C34-167 62-67 57 0H25l-1-190h30c1 10-1 24 2 32 11-22 29-35 61-36" id="aD"/><g id="j"><use transform="matrix(0.06172839506172839,0,0,0.06172839506172839,0,0)" xlink:href="#az"/><use transform="matrix(0.06172839506172839,0,0,0.06172839506172839,7.345679012345679,0)" xlink:href="#aA"/><use transform="matrix(0.06172839506172839,0,0,0.06172839506172839,19.691358024691358,0)" xlink:href="#aB"/><use transform="matrix(0.06172839506172839,0,0,0.06172839506172839,25.864197530864196,0)" xlink:href="#aC"/><use transform="matrix(0.06172839506172839,0,0,0.06172839506172839,38.20987654320987,0)" xlink:href="#az"/><use transform="matrix(0.06172839506172839,0,0,0.06172839506172839,45.55555555555555,0)" xlink:href="#aD"/></g><path fill="#282c33" d="M134-131c28 9 52 24 51 62-1 50-34 73-85 73S17-19 16-69c0-36 21-54 49-61-75-25-45-126 34-121 46 3 78 18 79 63 0 33-17 51-44 57zm-34-11c31 1 46-15 46-44 0-28-17-43-47-42-29 0-46 13-45 42 1 28 16 44 46 44zm1 122c35 0 51-18 51-52 0-30-18-46-53-46-33 0-51 17-51 47 0 34 19 51 53 51" id="aE"/><path fill="#282c33" d="M101-251c68 0 85 55 85 127S166 4 100 4C33 4 14-52 14-124c0-73 17-127 87-127zm-1 229c47 0 54-49 54-102s-4-102-53-102c-51 0-55 48-55 102 0 53 5 102 54 102" id="aF"/><path fill="#282c33" d="M64 0c3-98 48-159 88-221H18v-27h164v26C143-157 98-101 97 0H64" id="aG"/><path fill="#282c33" d="M33 0v-38h34V0H33" id="aH"/><path fill="#282c33" d="M54-142c48-35 137-8 131 61C196 18 31 33 14-55l32-4c7 23 22 37 52 37 35-1 51-22 54-58 4-55-73-65-99-34H22l8-134h141v27H59" id="aI"/><g id="k"><use transform="matrix(0.06172839506172839,0,0,0.06172839506172839,0,0)" xlink:href="#aE"/><use transform="matrix(0.06172839506172839,0,0,0.06172839506172839,12.345679012345679,0)" xlink:href="#aF"/><use transform="matrix(0.06172839506172839,0,0,0.06172839506172839,24.691358024691358,0)" xlink:href="#aG"/><use transform="matrix(0.06172839506172839,0,0,0.06172839506172839,37.03703703703704,0)" xlink:href="#aH"/><use transform="matrix(0.06172839506172839,0,0,0.06172839506172839,43.20987654320988,0)" xlink:href="#aI"/></g><path fill="#282c33" d="M16-82v-28h88v28H16" id="aJ"/><use transform="matrix(0.06172839506172839,0,0,0.06172839506172839,0,0)" xlink:href="#aJ" id="l"/><path fill="#282c33" d="M126-127c33 6 58 20 58 59 0 88-139 92-164 29-3-8-5-16-6-25l32-3c6 27 21 44 54 44 32 0 52-15 52-46 0-38-36-46-79-43v-28c39 1 72-4 72-42 0-27-17-43-46-43-28 0-47 15-49 41l-32-3c6-42 35-63 81-64 48-1 79 21 79 65 0 36-21 52-52 59" id="aK"/><path fill="#282c33" d="M27 0v-27h64v-190l-56 39v-29l58-41h29v221h61V0H27" id="aL"/><g id="m"><use transform="matrix(0.06172839506172839,0,0,0.06172839506172839,0,0)" xlink:href="#aK"/><use transform="matrix(0.06172839506172839,0,0,0.06172839506172839,12.345679012345679,0)" xlink:href="#aH"/><use transform="matrix(0.06172839506172839,0,0,0.06172839506172839,18.51851851851852,0)" xlink:href="#aL"/><use transform="matrix(0.06172839506172839,0,0,0.06172839506172839,29.19753086419753,0)" xlink:href="#aL"/></g><path fill="#282c33" d="M80-196l47-18 7 23-49 13 32 44-20 13-27-46-27 45-21-12 33-44-49-13 8-23 47 19-2-53h23" id="aM"/><use transform="matrix(0.06172839506172839,0,0,0.06172839506172839,0,0)" xlink:href="#aM" id="n"/><path fill="#282c33" d="M141 0L90-78 38 0H4l68-98-65-92h35l48 74 47-74h35l-64 92 68 98h-35" id="aN"/><use transform="matrix(0.06172839506172839,0,0,0.06172839506172839,0,0)" xlink:href="#aN" id="o"/><g id="p"><use transform="matrix(0.04320987654320987,0,0,0.04320987654320987,0,0)" xlink:href="#ao"/><use transform="matrix(0.04320987654320987,0,0,0.04320987654320987,8.641975308641973,0)" xlink:href="#aq"/><use transform="matrix(0.04320987654320987,0,0,0.04320987654320987,17.283950617283946,0)" xlink:href="#aq"/><use transform="matrix(0.04320987654320987,0,0,0.04320987654320987,25.925925925925917,0)" xlink:href="#ak"/></g><path fill="#3a414a" d="M64 0c3-98 48-159 88-221H18v-27h164v26C143-157 98-101 97 0H64" id="aO"/><g id="q"><use transform="matrix(0.06172839506172839,0,0,0.06172839506172839,0,0)" xlink:href="#ah"/><use transform="matrix(0.06172839506172839,0,0,0.06172839506172839,12.345679012345679,0)" xlink:href="#aO"/><use transform="matrix(0.06172839506172839,0,0,0.06172839506172839,24.691358024691358,0)" xlink:href="#aq"/></g><path fill="#333" d="M175 0L67-191c6 58 2 128 3 191H24v-248h59L193-55c-6-58-2-129-3-193h46V0h-61" id="aP"/><path fill="#333" d="M110-194c64 0 96 36 96 99 0 64-35 99-97 99-61 0-95-36-95-99 0-62 34-99 96-99zm-1 164c35 0 45-28 45-65 0-40-10-65-43-65-34 0-45 26-45 65 0 36 10 65 43 65" id="aQ"/><g id="r"><use transform="matrix(0.04938271604938272,0,0,0.04938271604938272,0,0)" xlink:href="#aP"/><use transform="matrix(0.04938271604938272,0,0,0.04938271604938272,12.790123456790125,0)" xlink:href="#aQ"/></g><g id="s"><use transform="matrix(0.06172839506172839,0,0,0.06172839506172839,0,0)" xlink:href="#ay"/><use transform="matrix(0.06172839506172839,0,0,0.06172839506172839,12.345679012345679,0)" xlink:href="#aq"/></g><path fill="#3a414a" d="M16-82v-28h88v28H16" id="aR"/><use transform="matrix(0.06172839506172839,0,0,0.06172839506172839,0,0)" xlink:href="#aR" id="t"/><path fill="#3a414a" d="M33 0v-38h34V0H33" id="aS"/><g id="u"><use transform="matrix(0.06172839506172839,0,0,0.06172839506172839,0,0)" xlink:href="#aq"/><use transform="matrix(0.06172839506172839,0,0,0.06172839506172839,12.345679012345679,0)" xlink:href="#aS"/><use transform="matrix(0.06172839506172839,0,0,0.06172839506172839,18.51851851851852,0)" xlink:href="#aO"/></g><path fill="#3a414a" d="M80-196l47-18 7 23-49 13 32 44-20 13-27-46-27 45-21-12 33-44-49-13 8-23 47 19-2-53h23" id="aT"/><use transform="matrix(0.06172839506172839,0,0,0.06172839506172839,0,0)" xlink:href="#aT" id="v"/><use transform="matrix(0.06172839506172839,0,0,0.06172839506172839,0,0)" xlink:href="#am" id="w"/><g id="x"><use transform="matrix(0.06172839506172839,0,0,0.06172839506172839,0,0)" xlink:href="#ag"/><use transform="matrix(0.06172839506172839,0,0,0.06172839506172839,6.172839506172839,0)" xlink:href="#ao"/><use transform="matrix(0.06172839506172839,0,0,0.06172839506172839,18.51851851851852,0)" xlink:href="#ai"/><use transform="matrix(0.06172839506172839,0,0,0.06172839506172839,25.864197530864196,0)" xlink:href="#aj"/><use transform="matrix(0.06172839506172839,0,0,0.06172839506172839,32.03703703703704,0)" xlink:href="#ak"/></g><g id="y"><use transform="matrix(0.04320987654320987,0,0,0.04320987654320987,0,0)" xlink:href="#al"/><use transform="matrix(0.04320987654320987,0,0,0.04320987654320987,3.4135802469135794,0)" xlink:href="#ag"/></g><g id="z"><use transform="matrix(0.04320987654320987,0,0,0.04320987654320987,0,0)" xlink:href="#ai"/><use transform="matrix(0.04320987654320987,0,0,0.04320987654320987,5.141975308641975,0)" xlink:href="#am"/></g><use transform="matrix(0.04320987654320987,0,0,0.04320987654320987,0,0)" xlink:href="#an" id="A"/><g id="B"><use transform="matrix(0.04320987654320987,0,0,0.04320987654320987,0,0)" xlink:href="#ao"/><use transform="matrix(0.04320987654320987,0,0,0.04320987654320987,8.641975308641973,0)" xlink:href="#aq"/><use transform="matrix(0.04320987654320987,0,0,0.04320987654320987,17.283950617283946,0)" xlink:href="#aq"/><use transform="matrix(0.04320987654320987,0,0,0.04320987654320987,25.925925925925917,0)" xlink:href="#ak"/></g><g id="C"><use transform="matrix(0.04938271604938272,0,0,0.04938271604938272,0,0)" xlink:href="#ar"/><use transform="matrix(0.04938271604938272,0,0,0.04938271604938272,10.864197530864198,0)" xlink:href="#as"/><use transform="matrix(0.04938271604938272,0,0,0.04938271604938272,20.74074074074074,0)" xlink:href="#at"/></g><g id="D"><use transform="matrix(0.06172839506172839,0,0,0.06172839506172839,0,0)" xlink:href="#au"/><use transform="matrix(0.06172839506172839,0,0,0.06172839506172839,7.345679012345679,0)" xlink:href="#av"/><use transform="matrix(0.06172839506172839,0,0,0.06172839506172839,19.691358024691358,0)" xlink:href="#aj"/><use transform="matrix(0.06172839506172839,0,0,0.06172839506172839,25.864197530864196,0)" xlink:href="#aw"/><use transform="matrix(0.06172839506172839,0,0,0.06172839506172839,38.20987654320987,0)" xlink:href="#au"/><use transform="matrix(0.06172839506172839,0,0,0.06172839506172839,45.55555555555555,0)" xlink:href="#ax"/></g><use transform="matrix(0.06172839506172839,0,0,0.06172839506172839,0,0)" xlink:href="#aq" id="E"/><g id="F"><use transform="matrix(0.04938271604938272,0,0,0.04938271604938272,0,0)" xlink:href="#aP"/><use transform="matrix(0.04938271604938272,0,0,0.04938271604938272,12.790123456790125,0)" xlink:href="#aQ"/></g><g id="G"><use transform="matrix(0.06172839506172839,0,0,0.06172839506172839,0,0)" xlink:href="#aR"/><use transform="matrix(0.06172839506172839,0,0,0.06172839506172839,7.345679012345679,0)" xlink:href="#ah"/></g><path fill="#3a414a" d="M177-190C167-65 218 103 67 71c-23-6-38-20-44-43l32-5c15 47 100 32 89-28v-30C133-14 115 1 83 1 29 1 15-40 15-95c0-56 16-97 71-98 29-1 48 16 59 35 1-10 0-23 2-32h30zM94-22c36 0 50-32 50-73 0-42-14-75-50-75-39 0-46 34-46 75s6 73 46 73" id="aU"/><path fill="#3a414a" d="M30-248c87 1 191-15 191 75 0 78-77 80-158 76V0H30v-248zm33 125c57 0 124 11 124-50 0-59-68-47-124-48v98" id="aV"/><path fill="#3a414a" d="M106-169C34-169 62-67 57 0H25v-261h32l-1 103c12-21 28-36 61-36 89 0 53 116 60 194h-32v-121c2-32-8-49-39-48" id="aW"/><path fill="#3a414a" d="M135-143c-3-34-86-38-87 0 15 53 115 12 119 90S17 21 10-45l28-5c4 36 97 45 98 0-10-56-113-15-118-90-4-57 82-63 122-42 12 7 21 19 24 35" id="aX"/><path fill="#3a414a" d="M108 0H70L1-190h34L89-25l56-165h34" id="aY"/><path fill="#3a414a" d="M100-194c62-1 85 37 85 99 1 63-27 99-86 99S16-35 15-95c0-66 28-99 85-99zM99-20c44 1 53-31 53-75 0-43-8-75-51-75s-53 32-53 75 10 74 51 75" id="aZ"/><path fill="#3a414a" d="M68-38c1 34 0 65-14 84H32c9-13 17-26 17-46H33v-38h35" id="ba"/><g id="H"><use transform="matrix(0.06172839506172839,0,0,0.06172839506172839,0,0)" xlink:href="#aU"/><use transform="matrix(0.06172839506172839,0,0,0.06172839506172839,12.345679012345679,0)" xlink:href="#av"/><use transform="matrix(0.06172839506172839,0,0,0.06172839506172839,24.691358024691358,0)" xlink:href="#aj"/><use transform="matrix(0.06172839506172839,0,0,0.06172839506172839,30.864197530864196,0)" xlink:href="#aV"/><use transform="matrix(0.06172839506172839,0,0,0.06172839506172839,45.67901234567901,0)" xlink:href="#aW"/><use transform="matrix(0.06172839506172839,0,0,0.06172839506172839,58.02469135802469,0)" xlink:href="#al"/><use transform="matrix(0.06172839506172839,0,0,0.06172839506172839,62.901234567901234,0)" xlink:href="#ai"/><use transform="matrix(0.06172839506172839,0,0,0.06172839506172839,70.24691358024691,0)" xlink:href="#aX"/><use transform="matrix(0.06172839506172839,0,0,0.06172839506172839,81.35802469135803,0)" xlink:href="#av"/><use transform="matrix(0.06172839506172839,0,0,0.06172839506172839,93.70370370370371,0)" xlink:href="#au"/><use transform="matrix(0.06172839506172839,0,0,0.06172839506172839,101.0493827160494,0)" xlink:href="#aY"/><use transform="matrix(0.06172839506172839,0,0,0.06172839506172839,112.16049382716051,0)" xlink:href="#aZ"/><use transform="matrix(0.06172839506172839,0,0,0.06172839506172839,124.50617283950619,0)" xlink:href="#ba"/><use transform="matrix(0.06172839506172839,0,0,0.06172839506172839,130.67901234567904,0)" xlink:href="#al"/><use transform="matrix(0.06172839506172839,0,0,0.06172839506172839,135.55555555555557,0)" xlink:href="#ak"/></g><path d="M839-1102c70 0 148 7 206 17v167c-112-18-268-36-363 15-129 69-208 203-208 395V0H294c-10-367 32-789-52-1082h171c21 75 41 161 48 250h5c67-152 152-270 373-270" id="bb"/><path d="M617-1102c355 0 481 238 477 599H322c5 222 84 388 301 388 144 0 244-59 284-166l158 45C1002-72 854 20 623 20c-342 0-490-220-490-568 0-346 151-554 484-554zm291 461c-18-192-90-328-289-328-194 0-287 128-295 328h584" id="bc"/><path d="M682 16c-209 0-323-80-324-285v-671H190v-142h170l58-282h120v282h432v142H538v652c2 114 60 155 182 155 106 0 209-16 297-34v137C921-4 806 16 682 16" id="bd"/><path d="M528 20c-247 0-343-132-343-381v-721h180v686c-4 177 45 284 224 277 194-8 279-136 279-336v-627h181c3 360-6 732 6 1082H885c-4-54-7-126-8-185h-3C809-64 714 20 528 20" id="be"/><path d="M706-1102c241 0 344 136 343 381V0H868v-695c1-168-57-273-220-268-190 6-283 138-283 336V0H185c-3-360 6-732-6-1082h170c4 54 7 126 8 185h3c63-121 164-204 346-205" id="bf"/><g id="I"><use transform="matrix(0.006727430555555555,0,0,0.006727430555555555,0,0)" xlink:href="#bb"/><use transform="matrix(0.006727430555555555,0,0,0.006727430555555555,8.268012152777777,0)" xlink:href="#bc"/><use transform="matrix(0.006727430555555555,0,0,0.006727430555555555,16.536024305555554,0)" xlink:href="#bd"/><use transform="matrix(0.006727430555555555,0,0,0.006727430555555555,24.80403645833333,0)" xlink:href="#be"/><use transform="matrix(0.006727430555555555,0,0,0.006727430555555555,33.07204861111111,0)" xlink:href="#bb"/><use transform="matrix(0.006727430555555555,0,0,0.006727430555555555,41.340060763888886,0)" xlink:href="#bf"/></g><path d="M891-1484c-201 251-362 514-362 954 0 441 161 704 362 955H701C500 176 342-90 342-532c0-440 159-704 359-952h190" id="bg"/><path d="M1000-272c3 95 12 159 101 161 21 0 41-3 59-7V-6c-44 10-86 16-139 16-141 2-191-84-197-217h-6C748-76 648 20 446 20c-207 0-318-120-318-322 0-266 194-348 454-354l236-4c12-191-40-305-222-305-140 0-220 47-232 172l-188-17c33-204 181-292 423-292 255 0 401 118 401 364v466zm-683-27c0 109 63 184 175 182 166-3 259-96 306-217 24-65 20-120 20-200-232 7-501-28-501 235" id="bh"/><path d="M631 20c-350 0-501-215-501-562 0-355 162-560 502-560 250 0 399 118 446 323l-192 14c-23-124-109-196-262-196-242 0-305 171-305 415 1 245 61 427 304 427 151 0 248-77 267-215l190 12C1039-107 883 20 631 20" id="bi"/><path d="M615-1102c343 0 484 203 482 560-1 347-147 562-488 562-336 0-475-219-479-562-4-349 156-560 485-560zm-8 989c240 0 301-180 301-429 0-245-55-427-290-427-236 0-299 181-299 427 0 243 61 429 288 429" id="bj"/><path d="M873-819c-18-114-119-146-250-146-163 0-245 50-245 151 0 151 170 148 294 185 182 54 388 94 388 320 0 240-189 325-439 329-245 4-410-69-454-268l159-31c24 133 136 168 295 165 144-2 270-31 270-171 0-164-195-160-331-202-167-52-350-87-350-299 0-218 173-315 413-313 220 2 373 77 412 260" id="bk"/><path fill="#24292f" d="M891-1484c-201 251-362 514-362 954 0 441 161 704 362 955H701C500 176 342-90 342-532c0-440 159-704 359-952h190" id="bl"/><path fill="#24292f" d="M745-142h380V0H143v-142h422v-798H246v-142h499v940zM545-1292v-192h200v192H545" id="bm"/><g id="J"><use transform="matrix(0.006727430555555555,0,0,0.006727430555555555,0,0)" xlink:href="#bg"/><use transform="matrix(0.006727430555555555,0,0,0.006727430555555555,8.268012152777777,0)" xlink:href="#bh"/><use transform="matrix(0.006727430555555555,0,0,0.006727430555555555,16.536024305555554,0)" xlink:href="#bi"/><use transform="matrix(0.006727430555555555,0,0,0.006727430555555555,24.80403645833333,0)" xlink:href="#bj"/><use transform="matrix(0.006727430555555555,0,0,0.006727430555555555,33.07204861111111,0)" xlink:href="#bk"/><use transform="matrix(0.006727430555555555,0,0,0.006727430555555555,41.340060763888886,0)" xlink:href="#bl"/><use transform="matrix(0.006727430555555555,0,0,0.006727430555555555,49.608072916666664,0)" xlink:href="#bl"/><use transform="matrix(0.006727430555555555,0,0,0.006727430555555555,57.87608506944444,0)" xlink:href="#bl"/><use transform="matrix(0.006727430555555555,0,0,0.006727430555555555,66.14409722222221,0)" xlink:href="#bm"/></g><path fill="#24292f" d="M334-464v-160h560v160H334" id="bn"/><use transform="matrix(0.006727430555555555,0,0,0.006727430555555555,0,0)" xlink:href="#bn" id="K"/><path d="M809-709c168 33 285 134 285 331 0 277-191 398-480 398-287 0-481-120-481-396 0-192 118-296 281-331v-4c-145-39-248-139-248-313 0-238 192-346 444-346 211 0 357 75 422 217 19 41 27 86 27 131 0 172-101 274-250 309v4zm-197-70c168 0 260-73 260-233 0-158-100-224-262-224-160 0-260 68-260 224 0 155 97 232 262 233zm4 664c194 1 291-91 291-280 0-172-115-249-297-249-178 0-291 85-291 253 0 186 106 275 297 276" id="bo"/><path d="M496 0v-299h235V0H496" id="bp"/><path d="M353-779c69-51 166-92 291-90 218 3 357 100 423 255 21 52 32 109 32 170 0 305-189 464-500 464-268 0-424-116-471-335l182-21c35 130 124 212 293 209 198-4 309-114 309-313 0-182-118-282-305-282-120 0-198 45-262 101H169l47-728h801v145H382" id="bq"/><g id="L"><use transform="matrix(0.006727430555555555,0,0,0.006727430555555555,0,0)" xlink:href="#bo"/><use transform="matrix(0.006727430555555555,0,0,0.006727430555555555,8.268012152777777,0)" xlink:href="#bp"/><use transform="matrix(0.006727430555555555,0,0,0.006727430555555555,16.536024305555554,0)" xlink:href="#bq"/></g><path fill="#24292f" d="M671-1188l264-103 45 132-282 73 185 250-119 72-150-258-156 256-119-72 189-248-280-73 45-134 267 107-12-297h136" id="br"/><use transform="matrix(0.006727430555555555,0,0,0.006727430555555555,0,0)" xlink:href="#br" id="M"/><path d="M709-1193V0H519v-1193H76v-156h1076v156H709" id="bs"/><path d="M648-963c-190 6-283 138-283 336V0H185v-1484h181c-2 197 6 404-9 587h3c62-120 159-205 339-205 242 0 351 135 350 381V0H868v-695c1-168-57-273-220-268" id="bt"/><path fill="#24292f" d="M873-819c-18-114-119-146-250-146-163 0-245 50-245 151 0 151 170 148 294 185 182 54 388 94 388 320 0 240-189 325-439 329-245 4-410-69-454-268l159-31c24 133 136 168 295 165 144-2 270-31 270-171 0-164-195-160-331-202-167-52-350-87-350-299 0-218 173-315 413-313 220 2 373 77 412 260" id="bu"/><path fill="#24292f" d="M617-1102c355 0 481 238 477 599H322c5 222 84 388 301 388 144 0 244-59 284-166l158 45C1002-72 854 20 623 20c-342 0-490-220-490-568 0-346 151-554 484-554zm291 461c-18-192-90-328-289-328-194 0-287 128-295 328h584" id="bv"/><path fill="#24292f" d="M839-1102c70 0 148 7 206 17v167c-112-18-268-36-363 15-129 69-208 203-208 395V0H294c-10-367 32-789-52-1082h171c21 75 41 161 48 250h5c67-152 152-270 373-270" id="bw"/><path fill="#24292f" d="M715 0H502L69-1082h202c94 253 197 500 285 758 19 57 36 126 52 183 96-335 234-626 350-941h201" id="bx"/><path fill="#24292f" d="M615-1102c343 0 484 203 482 560-1 347-147 562-488 562-336 0-475-219-479-562-4-349 156-560 485-560zm-8 989c240 0 301-180 301-429 0-245-55-427-290-427-236 0-299 181-299 427 0 243 61 429 288 429" id="by"/><path fill="#24292f" d="M496 0v-299h235V0H496" id="bz"/><path d="M865-914c-3-187-2-380-2-570h180v1261c0 76 1 155 6 223H877c-8-49-9-116-10-174h-5C801-44 708 26 530 26c-135 0-234-46-297-139s-95-232-95-419c0-377 131-566 392-566 176 0 271 63 335 184zm-286-51c-222 0-255 197-255 427 0 229 31 425 253 425 237 0 286-195 286-441 0-238-52-411-284-411" id="bA"/><path fill="#24292f" d="M528-1484c201 248 357 511 357 952 0 442-156 709-357 957H336C537 174 700-89 700-530c0-440-163-703-364-954h192" id="bB"/><g id="N"><use transform="matrix(0.006727430555555555,0,0,0.006727430555555555,0,0)" xlink:href="#bi"/><use transform="matrix(0.006727430555555555,0,0,0.006727430555555555,8.268012152777777,0)" xlink:href="#bj"/><use transform="matrix(0.006727430555555555,0,0,0.006727430555555555,16.536024305555554,0)" xlink:href="#bk"/><use transform="matrix(0.006727430555555555,0,0,0.006727430555555555,24.80403645833333,0)" xlink:href="#bl"/><use transform="matrix(0.006727430555555555,0,0,0.006727430555555555,33.07204861111111,0)" xlink:href="#bd"/><use transform="matrix(0.006727430555555555,0,0,0.006727430555555555,41.340060763888886,0)" xlink:href="#bj"/><use transform="matrix(0.006727430555555555,0,0,0.006727430555555555,49.608072916666664,0)" xlink:href="#bs"/><use transform="matrix(0.006727430555555555,0,0,0.006727430555555555,57.87608506944444,0)" xlink:href="#bt"/><use transform="matrix(0.006727430555555555,0,0,0.006727430555555555,66.14409722222221,0)" xlink:href="#bc"/><use transform="matrix(0.006727430555555555,0,0,0.006727430555555555,74.41210937499999,0)" xlink:href="#bd"/><use transform="matrix(0.006727430555555555,0,0,0.006727430555555555,82.68012152777776,0)" xlink:href="#bh"/><use transform="matrix(0.006727430555555555,0,0,0.006727430555555555,90.94813368055553,0)" xlink:href="#bl"/><use transform="matrix(0.006727430555555555,0,0,0.006727430555555555,99.2161458333333,0)" xlink:href="#bu"/><use transform="matrix(0.006727430555555555,0,0,0.006727430555555555,107.48415798611107,0)" xlink:href="#bv"/><use transform="matrix(0.006727430555555555,0,0,0.006727430555555555,115.75217013888883,0)" xlink:href="#bw"/><use transform="matrix(0.006727430555555555,0,0,0.006727430555555555,124.02018229166661,0)" xlink:href="#bx"/><use transform="matrix(0.006727430555555555,0,0,0.006727430555555555,132.2881944444444,0)" xlink:href="#by"/><use transform="matrix(0.006727430555555555,0,0,0.006727430555555555,140.55620659722217,0)" xlink:href="#bz"/><use transform="matrix(0.006727430555555555,0,0,0.006727430555555555,148.82421874999994,0)" xlink:href="#bb"/><use transform="matrix(0.006727430555555555,0,0,0.006727430555555555,157.09223090277771,0)" xlink:href="#bc"/><use transform="matrix(0.006727430555555555,0,0,0.006727430555555555,165.3602430555555,0)" xlink:href="#bh"/><use transform="matrix(0.006727430555555555,0,0,0.006727430555555555,173.62825520833326,0)" xlink:href="#bA"/><use transform="matrix(0.006727430555555555,0,0,0.006727430555555555,181.89626736111103,0)" xlink:href="#bl"/><use transform="matrix(0.006727430555555555,0,0,0.006727430555555555,190.1642795138888,0)" xlink:href="#bB"/><use transform="matrix(0.006727430555555555,0,0,0.006727430555555555,198.43229166666657,0)" xlink:href="#bB"/><use transform="matrix(0.006727430555555555,0,0,0.006727430555555555,206.70030381944434,0)" xlink:href="#bB"/><use transform="matrix(0.006727430555555555,0,0,0.006727430555555555,214.96831597222211,0)" xlink:href="#bB"/></g><path fill="#24292f" d="M114 20l821-1504h178L296 20H114" id="bC"/><use transform="matrix(0.006727430555555555,0,0,0.006727430555555555,0,0)" xlink:href="#bC" id="O"/><path d="M148-1120c216-7 379-89 463-229h166v1204h353V0H157v-145h439v-1021c-79 124-254 184-448 194v-148" id="bD"/><path d="M672-881c271 0 424 163 424 435 0 291-160 466-455 466-367 0-490-287-490-662 0-324 85-568 293-680 129-70 351-59 460 16 73 50 125 123 153 223l-172 31c-31-108-107-172-232-172-259 0-316 252-323 529 59-113 178-186 342-186zm-37 756c186 0 278-124 278-313s-96-304-284-304c-163 0-281 93-281 261 0 157 65 270 168 327 35 19 75 29 119 29" id="bE"/><g id="P"><use transform="matrix(0.006727430555555555,0,0,0.006727430555555555,0,0)" xlink:href="#bD"/><use transform="matrix(0.006727430555555555,0,0,0.006727430555555555,8.268012152777777,0)" xlink:href="#bE"/><use transform="matrix(0.006727430555555555,0,0,0.006727430555555555,16.536024305555554,0)" xlink:href="#bB"/><use transform="matrix(0.006727430555555555,0,0,0.006727430555555555,24.80403645833333,0)" xlink:href="#bB"/><use transform="matrix(0.006727430555555555,0,0,0.006727430555555555,33.07204861111111,0)" xlink:href="#bB"/></g><g id="Q"><use transform="matrix(0.06172839506172839,0,0,0.06172839506172839,0,0)" xlink:href="#aj"/><use transform="matrix(0.06172839506172839,0,0,0.06172839506172839,6.172839506172839,0)" xlink:href="#aZ"/><use transform="matrix(0.06172839506172839,0,0,0.06172839506172839,18.51851851851852,0)" xlink:href="#aV"/><use transform="matrix(0.06172839506172839,0,0,0.06172839506172839,33.33333333333333,0)" xlink:href="#aW"/><use transform="matrix(0.06172839506172839,0,0,0.06172839506172839,45.679012345679006,0)" xlink:href="#al"/><use transform="matrix(0.06172839506172839,0,0,0.06172839506172839,50.55555555555555,0)" xlink:href="#ai"/><use transform="matrix(0.06172839506172839,0,0,0.06172839506172839,57.90123456790123,0)" xlink:href="#aX"/><use transform="matrix(0.06172839506172839,0,0,0.06172839506172839,69.01234567901234,0)" xlink:href="#av"/><use transform="matrix(0.06172839506172839,0,0,0.06172839506172839,81.35802469135803,0)" xlink:href="#au"/><use transform="matrix(0.06172839506172839,0,0,0.06172839506172839,88.70370370370371,0)" xlink:href="#aY"/><use transform="matrix(0.06172839506172839,0,0,0.06172839506172839,99.81481481481482,0)" xlink:href="#aZ"/><use transform="matrix(0.06172839506172839,0,0,0.06172839506172839,112.16049382716051,0)" xlink:href="#ba"/><use transform="matrix(0.06172839506172839,0,0,0.06172839506172839,118.33333333333334,0)" xlink:href="#al"/><use transform="matrix(0.06172839506172839,0,0,0.06172839506172839,123.20987654320989,0)" xlink:href="#ak"/></g><path d="M904-1102c199 0 220 177 220 381V0H956v-686c-3-114 0-215-60-264-70-33-125-4-158 71-26 56-39 140-39 252V0H531v-686c-3-114-1-215-61-264-78-41-136 24-157 84-24 69-39 159-39 259V0H105c-3-360 6-732-6-1082h149c6 50 3 123 8 175 36-100 83-195 216-195 135 0 166 79 196 196 42-105 93-196 236-196" id="bF"/><path d="M698-1104c312 3 392 244 392 558 0 315-82 566-392 566-169 0-277-65-331-184h-5c8 188 2 394 4 589H185V-858c0-76-1-156-6-224h175c6 52 9 120 10 178h4c58-122 150-202 330-200zm-49 991c225 0 255-203 255-433 0-225-32-419-253-419-236 0-285 192-285 441 0 237 53 411 283 411" id="bG"/><path fill="#24292f" d="M1000-272c3 95 12 159 101 161 21 0 41-3 59-7V-6c-44 10-86 16-139 16-141 2-191-84-197-217h-6C748-76 648 20 446 20c-207 0-318-120-318-322 0-266 194-348 454-354l236-4c12-191-40-305-222-305-140 0-220 47-232 172l-188-17c33-204 181-292 423-292 255 0 401 118 401 364v466zm-683-27c0 109 63 184 175 182 166-3 259-96 306-217 24-65 20-120 20-200-232 7-501-28-501 235" id="bH"/><path fill="#24292f" d="M259 363l169-662h265L382 363H259" id="bI"/><g id="R"><use transform="matrix(0.006727430555555555,0,0,0.006727430555555555,0,0)" xlink:href="#bg"/><use transform="matrix(0.0078125,0,0,0.0078125,8.268012152777777,0)" xlink:href="#bn"/><use transform="matrix(0.0078125,0,0,0.0078125,17.86957465277778,0)" xlink:href="#bF"/><use transform="matrix(0.0078125,0,0,0.0078125,27.47113715277778,0)" xlink:href="#bh"/><use transform="matrix(0.0078125,0,0,0.0078125,37.07269965277778,0)" xlink:href="#bG"/><use transform="matrix(0.0078125,0,0,0.0078125,46.67426215277778,0)" xlink:href="#bl"/><use transform="matrix(0.0078125,0,0,0.0078125,56.27582465277778,0)" xlink:href="#bH"/><use transform="matrix(0.0078125,0,0,0.0078125,65.87738715277777,0)" xlink:href="#bI"/></g><g id="S"><use transform="matrix(0.0078125,0,0,0.0078125,0,0)" xlink:href="#bD"/><use transform="matrix(0.0078125,0,0,0.0078125,9.6015625,0)" xlink:href="#bp"/><use transform="matrix(0.0078125,0,0,0.0078125,19.203125,0)" xlink:href="#bq"/><use transform="matrix(0.0078125,0,0,0.0078125,28.8046875,0)" xlink:href="#bI"/></g><path d="M1060-1016c0 191-128 285-295 323v4c154 18 262 91 313 209 14 35 21 72 21 110 0 277-194 390-478 390-292 0-457-129-493-382l186-17c24 161 121 250 307 250 172 1 298-80 291-247-8-208-220-239-446-233v-156c217 9 409-34 409-232 0-152-102-225-264-225-159 0-264 88-278 233l-181-14c33-239 196-367 461-367 264 0 447 102 447 354" id="bJ"/><path d="M937-319V0H757v-319H103v-140l635-890h199v888h188v142H937zm-180-835L257-461h500v-693" id="bK"/><g id="T"><use transform="matrix(0.0078125,0,0,0.0078125,0,0)" xlink:href="#bn"/><use transform="matrix(0.0078125,0,0,0.0078125,9.6015625,0)" xlink:href="#bJ"/><use transform="matrix(0.0078125,0,0,0.0078125,19.203125,0)" xlink:href="#bp"/><use transform="matrix(0.0078125,0,0,0.0078125,28.8046875,0)" xlink:href="#bD"/><use transform="matrix(0.0078125,0,0,0.0078125,38.40625,0)" xlink:href="#bK"/><use transform="matrix(0.0078125,0,0,0.0078125,48.0078125,0)" xlink:href="#bI"/></g><g id="U"><use transform="matrix(0.0078125,0,0,0.0078125,0,0)" xlink:href="#bJ"/><use transform="matrix(0.0078125,0,0,0.0078125,9.6015625,0)" xlink:href="#bp"/><use transform="matrix(0.0078125,0,0,0.0078125,19.203125,0)" xlink:href="#bD"/><use transform="matrix(0.0078125,0,0,0.0078125,28.8046875,0)" xlink:href="#bK"/><use transform="matrix(0.0078125,0,0,0.0078125,38.40625,0)" xlink:href="#bI"/></g><g id="V"><use transform="matrix(0.0078125,0,0,0.0078125,0,0)" xlink:href="#bn"/><use transform="matrix(0.0078125,0,0,0.0078125,9.6015625,0)" xlink:href="#bD"/><use transform="matrix(0.0078125,0,0,0.0078125,19.203125,0)" xlink:href="#bp"/><use transform="matrix(0.0078125,0,0,0.0078125,28.8046875,0)" xlink:href="#bq"/><use transform="matrix(0.0078125,0,0,0.0078125,38.40625,0)" xlink:href="#bB"/><use transform="matrix(0.006727430555555555,0,0,0.006727430555555555,48.0078125,0)" xlink:href="#bB"/></g><path fill="#3a414a" d="M190 0L58-211 59 0H30v-248h39L202-35l-2-213h31V0h-41" id="bL"/><g id="W"><use transform="matrix(0.06172839506172839,0,0,0.06172839506172839,0,0)" xlink:href="#aj"/><use transform="matrix(0.06172839506172839,0,0,0.06172839506172839,6.172839506172839,0)" xlink:href="#aZ"/><use transform="matrix(0.06172839506172839,0,0,0.06172839506172839,18.51851851851852,0)" xlink:href="#bL"/><use transform="matrix(0.06172839506172839,0,0,0.06172839506172839,34.50617283950617,0)" xlink:href="#ai"/><use transform="matrix(0.06172839506172839,0,0,0.06172839506172839,41.85185185185185,0)" xlink:href="#aX"/><use transform="matrix(0.06172839506172839,0,0,0.06172839506172839,52.96296296296296,0)" xlink:href="#av"/><use transform="matrix(0.06172839506172839,0,0,0.06172839506172839,65.30864197530865,0)" xlink:href="#au"/><use transform="matrix(0.06172839506172839,0,0,0.06172839506172839,72.65432098765433,0)" xlink:href="#aY"/><use transform="matrix(0.06172839506172839,0,0,0.06172839506172839,83.76543209876544,0)" xlink:href="#aZ"/><use transform="matrix(0.06172839506172839,0,0,0.06172839506172839,96.11111111111113,0)" xlink:href="#ba"/><use transform="matrix(0.06172839506172839,0,0,0.06172839506172839,102.28395061728396,0)" xlink:href="#al"/><use transform="matrix(0.06172839506172839,0,0,0.06172839506172839,107.16049382716051,0)" xlink:href="#ak"/></g><g id="X"><use transform="matrix(0.006727430555555555,0,0,0.006727430555555555,0,0)" xlink:href="#bg"/><use transform="matrix(0.0078125,0,0,0.0078125,8.268012152777777,0)" xlink:href="#bF"/><use transform="matrix(0.0078125,0,0,0.0078125,17.86957465277778,0)" xlink:href="#bh"/><use transform="matrix(0.0078125,0,0,0.0078125,27.47113715277778,0)" xlink:href="#bG"/><use transform="matrix(0.0078125,0,0,0.0078125,37.07269965277778,0)" xlink:href="#bl"/><use transform="matrix(0.0078125,0,0,0.0078125,46.67426215277778,0)" xlink:href="#bH"/><use transform="matrix(0.0078125,0,0,0.0078125,56.27582465277778,0)" xlink:href="#bI"/></g><path d="M611-1370c266 0 451 106 451 368 0 147-77 243-154 327-132 144-316 255-451 395-42 44-75 87-96 134h723V0H144v-117c124-264 387-411 582-603 73-72 151-147 151-271 0-161-104-231-266-231-163 0-249 90-268 238l-184-17c35-233 185-369 452-369" id="bM"/><g id="Y"><use transform="matrix(0.0078125,0,0,0.0078125,0,0)" xlink:href="#bn"/><use transform="matrix(0.0078125,0,0,0.0078125,9.6015625,0)" xlink:href="#bM"/><use transform="matrix(0.0078125,0,0,0.0078125,19.203125,0)" xlink:href="#bp"/><use transform="matrix(0.0078125,0,0,0.0078125,28.8046875,0)" xlink:href="#bJ"/><use transform="matrix(0.0078125,0,0,0.0078125,38.40625,0)" xlink:href="#bq"/><use transform="matrix(0.0078125,0,0,0.0078125,48.0078125,0)" xlink:href="#bI"/></g><g id="Z"><use transform="matrix(0.0078125,0,0,0.0078125,0,0)" xlink:href="#bM"/><use transform="matrix(0.0078125,0,0,0.0078125,9.6015625,0)" xlink:href="#bp"/><use transform="matrix(0.0078125,0,0,0.0078125,19.203125,0)" xlink:href="#bJ"/><use transform="matrix(0.0078125,0,0,0.0078125,28.8046875,0)" xlink:href="#bq"/><use transform="matrix(0.0078125,0,0,0.0078125,38.40625,0)" xlink:href="#bI"/></g><path d="M1065-1013c47 164 49 500-1 665C999-130 875 20 611 20c-377 0-484-300-487-695-2-245 41-425 141-551 77-98 191-144 352-144 261 0 386 140 448 357zM741-155c199-92 203-504 159-785-26-168-96-284-283-284-281 0-308 256-311 549-2 181 18 324 80 428 46 77 115 118 227 120 47 0 90-10 128-28" id="bN"/><g id="aa"><use transform="matrix(0.0078125,0,0,0.0078125,0,0)" xlink:href="#bN"/><use transform="matrix(0.0078125,0,0,0.0078125,9.6015625,0)" xlink:href="#bI"/></g><g id="ab"><use transform="matrix(0.0078125,0,0,0.0078125,0,0)" xlink:href="#bD"/><use transform="matrix(0.0078125,0,0,0.0078125,9.6015625,0)" xlink:href="#bo"/><use transform="matrix(0.0078125,0,0,0.0078125,19.203125,0)" xlink:href="#bN"/><use transform="matrix(0.0078125,0,0,0.0078125,28.8046875,0)" xlink:href="#bB"/><use transform="matrix(0.006727430555555555,0,0,0.006727430555555555,38.40625,0)" xlink:href="#bB"/></g><path fill="#3a414a" d="M127-220V0H93v-220H8v-28h204v28h-85" id="bO"/><path fill="#3a414a" d="M141-36C126-15 110 5 73 4 37 3 15-17 15-53c-1-64 63-63 125-63 3-35-9-54-41-54-24 1-41 7-42 31l-33-3c5-37 33-52 76-52 45 0 72 20 72 64v82c-1 20 7 32 28 27v20c-31 9-61-2-59-35zM48-53c0 20 12 33 32 33 41-3 63-29 60-74-43 2-92-5-92 41" id="bP"/><g id="ac"><use transform="matrix(0.06172839506172839,0,0,0.06172839506172839,0,0)" xlink:href="#aj"/><use transform="matrix(0.06172839506172839,0,0,0.06172839506172839,6.172839506172839,0)" xlink:href="#aZ"/><use transform="matrix(0.06172839506172839,0,0,0.06172839506172839,18.51851851851852,0)" xlink:href="#bO"/><use transform="matrix(0.06172839506172839,0,0,0.06172839506172839,32.03703703703704,0)" xlink:href="#aW"/><use transform="matrix(0.06172839506172839,0,0,0.06172839506172839,44.382716049382715,0)" xlink:href="#av"/><use transform="matrix(0.06172839506172839,0,0,0.06172839506172839,56.72839506172839,0)" xlink:href="#aj"/><use transform="matrix(0.06172839506172839,0,0,0.06172839506172839,62.901234567901234,0)" xlink:href="#bP"/><use transform="matrix(0.06172839506172839,0,0,0.06172839506172839,75.24691358024691,0)" xlink:href="#ai"/><use transform="matrix(0.06172839506172839,0,0,0.06172839506172839,82.5925925925926,0)" xlink:href="#aX"/><use transform="matrix(0.06172839506172839,0,0,0.06172839506172839,93.70370370370371,0)" xlink:href="#av"/><use transform="matrix(0.06172839506172839,0,0,0.06172839506172839,106.0493827160494,0)" xlink:href="#au"/><use transform="matrix(0.06172839506172839,0,0,0.06172839506172839,113.39506172839508,0)" xlink:href="#aY"/><use transform="matrix(0.06172839506172839,0,0,0.06172839506172839,124.50617283950619,0)" xlink:href="#aZ"/><use transform="matrix(0.06172839506172839,0,0,0.06172839506172839,136.85185185185188,0)" xlink:href="#ba"/><use transform="matrix(0.06172839506172839,0,0,0.06172839506172839,143.0246913580247,0)" xlink:href="#al"/><use transform="matrix(0.06172839506172839,0,0,0.06172839506172839,147.90123456790124,0)" xlink:href="#ak"/></g><path fill="#24292f" d="M706-1102c241 0 344 136 343 381V0H868v-695c1-168-57-273-220-268-190 6-283 138-283 336V0H185c-3-360 6-732-6-1082h170c4 54 7 126 8 185h3c63-121 164-204 346-205" id="bQ"/><g id="ad"><use transform="matrix(0.006727430555555555,0,0,0.006727430555555555,0,0)" xlink:href="#bg"/><use transform="matrix(0.0078125,0,0,0.0078125,8.268012152777777,0)" xlink:href="#bn"/><use transform="matrix(0.0078125,0,0,0.0078125,17.86957465277778,0)" xlink:href="#bF"/><use transform="matrix(0.0078125,0,0,0.0078125,27.47113715277778,0)" xlink:href="#bh"/><use transform="matrix(0.0078125,0,0,0.0078125,37.07269965277778,0)" xlink:href="#bG"/><use transform="matrix(0.0078125,0,0,0.0078125,46.67426215277778,0)" xlink:href="#bl"/><use transform="matrix(0.0078125,0,0,0.0078125,56.27582465277778,0)" xlink:href="#bQ"/><use transform="matrix(0.0078125,0,0,0.0078125,65.87738715277777,0)" xlink:href="#bI"/></g><g id="ae"><use transform="matrix(0.0078125,0,0,0.0078125,0,0)" xlink:href="#bD"/><use transform="matrix(0.0078125,0,0,0.0078125,9.6015625,0)" xlink:href="#bo"/><use transform="matrix(0.0078125,0,0,0.0078125,19.203125,0)" xlink:href="#bN"/><use transform="matrix(0.0078125,0,0,0.0078125,28.8046875,0)" xlink:href="#bI"/></g><g id="af"><use transform="matrix(0.0078125,0,0,0.0078125,0,0)" xlink:href="#bM"/><use transform="matrix(0.0078125,0,0,0.0078125,9.6015625,0)" xlink:href="#bp"/><use transform="matrix(0.0078125,0,0,0.0078125,19.203125,0)" xlink:href="#bJ"/><use transform="matrix(0.0078125,0,0,0.0078125,28.8046875,0)" xlink:href="#bq"/><use transform="matrix(0.0078125,0,0,0.0078125,38.40625,0)" xlink:href="#bB"/><use transform="matrix(0.006727430555555555,0,0,0.006727430555555555,48.0078125,0)" xlink:href="#bB"/></g></defs></g></svg>