<?xml version="1.0" encoding="UTF-8" standalone="no"?>
<svg
   width="126mm"
   height="65mm"
   viewBox="0 0 126 65"
   version="1.1"
   preserveAspectRatio="xMidYMid meet"
   id="svg27"
   sodipodi:docname="c'est bon.svg"
   inkscape:version="1.1.1 (3bf5ae0d25, 2021-09-20)"
   xmlns:inkscape="http://www.inkscape.org/namespaces/inkscape"
   xmlns:sodipodi="http://sodipodi.sourceforge.net/DTD/sodipodi-0.dtd"
   xmlns="http://www.w3.org/2000/svg"
   xmlns:svg="http://www.w3.org/2000/svg">
  <defs
     id="defs31" />
  <sodipodi:namedview
     id="namedview29"
     pagecolor="#ffffff"
     bordercolor="#666666"
     borderopacity="1.0"
     inkscape:pageshadow="2"
     inkscape:pageopacity="0.0"
     inkscape:pagecheckerboard="0"
     inkscape:document-units="mm"
     showgrid="false"
     inkscape:zoom="6.7236789"
     inkscape:cx="156.3876"
     inkscape:cy="67.596922"
     inkscape:window-width="2560"
     inkscape:window-height="1406"
     inkscape:window-x="-11"
     inkscape:window-y="-11"
     inkscape:window-maximized="1"
     inkscape:current-layer="svg27" />
  <g
     id="svgGroup"
     stroke-linecap="round"
     fill-rule="evenodd"
     font-size="9pt"
     stroke="#000"
     stroke-width="0.25mm"
     fill="none"
     style="stroke:#000;stroke-width:0.25mm;fill:none">
    <path
       d="M 0 34 L 0 40.5 L 3 40.5 L 3 46.5 L 0 46.5 L 0 52.5 L 3 52.5 L 3 58.5 L 0 58.5 L 0 65 L 8.5 65 L 8.5 62 L 14.5 62 L 14.5 65 L 20.5 65 L 20.5 62 L 26.5 62 L 26.5 65 L 32.5 65 L 32.5 62 L 38.5 62 L 38.5 65 L 44.5 65 L 47 65 L 47 58.5 L 44 58.5 L 44 52.5 L 47 52.5 L 47 46.5 L 44 46.5 L 44 40.5 L 47 40.5 L 47 34 L 0 34 Z"
       id="front_outsideCutPath"
       stroke="#FF0000"
       stroke-width="0.1"
       style="stroke:#FF0000;stroke-width:0.1"
       vector-effect="non-scaling-stroke" />
    <path
       d="M 53 34 L 53 40.5 L 50 40.5 L 50 46.5 L 53 46.5 L 53 52.5 L 50 52.5 L 50 58.5 L 53 58.5 L 53 65 L 54 65 L 54 62 L 60 62 L 60 65 L 66 65 L 66 62 L 72 62 L 72 65 L 73 65 L 73 58.5 L 76 58.5 L 76 52.5 L 73 52.5 L 73 46.5 L 76 46.5 L 76 40.5 L 73 40.5 L 73 34 L 53 34 Z"
       id="left_outsideCutPath"
       stroke="#FF0000"
       stroke-width="0.1"
       style="stroke:#FF0000;stroke-width:0.1"
       vector-effect="non-scaling-stroke" />
    <path
       d="M 0 0 L 0 6.5 L 3 6.5 L 3 12.5 L 0 12.5 L 0 18.5 L 3 18.5 L 3 24.5 L 0 24.5 L 0 31 L 8.5 31 L 8.5 28 L 14.5 28 L 14.5 31 L 20.5 31 L 20.5 28 L 26.5 28 L 26.5 31 L 32.5 31 L 32.5 28 L 38.5 28 L 38.5 31 L 44.5 31 L 47 31 L 47 24.5 L 44 24.5 L 44 18.5 L 47 18.5 L 47 12.5 L 44 12.5 L 44 6.5 L 47 6.5 L 47 0 L 0 0 Z"
       id="back_outsideCutPath"
       stroke="#FF0000"
       stroke-width="0.1"
       style="stroke:#FF0000;stroke-width:0.1"
       vector-effect="non-scaling-stroke" />
    <path
       d="M 53 0 L 53 6.5 L 50 6.5 L 50 12.5 L 53 12.5 L 53 18.5 L 50 18.5 L 50 24.5 L 53 24.5 L 53 31 L 54 31 L 54 28 L 60 28 L 60 31 L 66 31 L 66 28 L 72 28 L 72 31 L 73 31 L 73 24.5 L 76 24.5 L 76 18.5 L 73 18.5 L 73 12.5 L 76 12.5 L 76 6.5 L 73 6.5 L 73 0 L 53 0 Z"
       id="right_outsideCutPath"
       stroke="#FF0000"
       stroke-width="0.1"
       style="stroke:#FF0000;stroke-width:0.1"
       vector-effect="non-scaling-stroke" />
    <path
       d="M 82 42 L 82 43 L 79 43 L 79 49 L 82 49 L 82 55 L 79 55 L 79 61 L 82 61 L 82 62 L 87.5 62 L 87.5 65 L 93.5 65 L 93.5 62 L 99.5 62 L 99.5 65 L 105.5 65 L 105.5 62 L 111.5 62 L 111.5 65 L 117.5 65 L 117.5 62 L 123 62 L 123 61 L 126 61 L 126 55 L 123 55 L 123 49 L 126 49 L 126 43 L 123 43 L 123 42 L 117.5 42 L 117.5 39 L 111.5 39 L 111.5 42 L 105.5 42 L 105.5 39 L 99.5 39 L 99.5 42 L 93.5 42 L 93.5 39 L 87.5 39 L 87.5 42 L 82 42 Z"
       id="bottom_outsideCutPath"
       stroke="#FF0000"
       stroke-width="0.1"
       style="stroke:#FF0000;stroke-width:0.1"
       vector-effect="non-scaling-stroke" />
  </g>
</svg>
