<?xml version="1.0" encoding="UTF-8" standalone="no"?>
<svg
   width="416mm"
   height="150mm"
   viewBox="0 0 416 150"
   version="1.1"
   preserveAspectRatio="xMidYMid meet"
   id="svg13"
   sodipodi:docname="corps.svg"
   inkscape:version="1.1.1 (3bf5ae0d25, 2021-09-20)"
   xmlns:inkscape="http://www.inkscape.org/namespaces/inkscape"
   xmlns:sodipodi="http://sodipodi.sourceforge.net/DTD/sodipodi-0.dtd"
   xmlns="http://www.w3.org/2000/svg"
   xmlns:svg="http://www.w3.org/2000/svg">
  <defs
     id="defs17" />
  <sodipodi:namedview
     id="namedview15"
     pagecolor="#ffffff"
     bordercolor="#666666"
     borderopacity="1.0"
     inkscape:pageshadow="2"
     inkscape:pageopacity="0.0"
     inkscape:pagecheckerboard="0"
     inkscape:document-units="mm"
     showgrid="false"
     inkscape:zoom="0.91698733"
     inkscape:cx="1061.6286"
     inkscape:cy="314.07195"
     inkscape:window-width="2560"
     inkscape:window-height="1406"
     inkscape:window-x="-11"
     inkscape:window-y="-11"
     inkscape:window-maximized="1"
     inkscape:current-layer="svg13" />
  <g
     id="svgGroup"
     stroke-linecap="round"
     fill-rule="evenodd"
     font-size="9pt"
     stroke="#000"
     stroke-width="0.25mm"
     fill="none"
     style="stroke:#000000;stroke-width:0.25mm;fill:none;stroke-opacity:1">
    <path
       d="M 0 120 L 0 131.25 L 3 131.25 L 3 138.75 L 0 138.75 L 0 146.25 L 0 150 L 8.75 150 L 8.75 147 L 16.25 147 L 16.25 150 L 23.75 150 L 23.75 147 L 31.25 147 L 31.25 150 L 38.75 150 L 38.75 147 L 46.25 147 L 46.25 150 L 53.75 150 L 53.75 147 L 61.25 147 L 61.25 150 L 68.75 150 L 68.75 147 L 76.25 147 L 76.25 150 L 83.75 150 L 83.75 147 L 91.25 147 L 91.25 150 L 98.75 150 L 98.75 147 L 106.25 147 L 106.25 150 L 113.75 150 L 113.75 147 L 121.25 147 L 121.25 150 L 130 150 L 130 138.75 L 127 138.75 L 127 131.25 L 130 131.25 L 130 123.75 L 130 120 L 0 120 Z"
       id="front_outsideCutPath"
       stroke="#FF0000"
       stroke-width="0.1"
       style="stroke:#000000;stroke-width:0.1;stroke-opacity:1"
       vector-effect="non-scaling-stroke" />
    <path
       d="M 69.373 137.266 L 68.886 137.266 L 68.886 135.189 A 1.375 1.375 0 0 0 68.87 134.973 Q 68.833 134.739 68.708 134.603 A 0.548 0.548 0 0 0 68.483 134.459 Q 68.394 134.428 68.286 134.417 A 1.289 1.289 0 0 0 68.148 134.41 A 1.472 1.472 0 0 0 67.873 134.434 Q 67.719 134.463 67.601 134.528 A 0.686 0.686 0 0 0 67.41 134.682 A 0.795 0.795 0 0 0 67.271 134.924 Q 67.188 135.145 67.177 135.476 A 3.116 3.116 0 0 0 67.175 135.581 L 67.175 137.266 L 66.689 137.266 L 66.689 134.055 L 67.084 134.055 L 67.164 134.495 L 67.187 134.495 A 0.985 0.985 0 0 1 67.573 134.144 A 1.184 1.184 0 0 1 67.606 134.127 A 1.317 1.317 0 0 1 68.075 134.002 A 1.592 1.592 0 0 1 68.207 133.997 A 1.92 1.92 0 0 1 68.533 134.022 Q 68.71 134.053 68.85 134.12 A 0.874 0.874 0 0 1 69.08 134.276 A 0.843 0.843 0 0 1 69.285 134.599 Q 69.334 134.732 69.356 134.896 A 2.122 2.122 0 0 1 69.373 135.171 L 69.373 137.266 Z M 60.03 134.055 L 60.03 134.433 L 59.212 134.433 L 59.212 137.266 L 58.726 137.266 L 58.726 134.433 L 58.152 134.433 L 58.152 134.213 L 58.726 134.038 L 58.726 133.859 Q 58.726 132.837 59.497 132.697 A 1.478 1.478 0 0 1 59.76 132.675 A 1.566 1.566 0 0 1 59.982 132.692 Q 60.09 132.708 60.21 132.737 A 3.148 3.148 0 0 1 60.358 132.778 L 60.232 133.167 A 2.362 2.362 0 0 0 60.048 133.116 Q 59.882 133.077 59.751 133.077 A 0.656 0.656 0 0 0 59.593 133.094 A 0.421 0.421 0 0 0 59.344 133.26 Q 59.212 133.443 59.212 133.847 L 59.212 134.055 L 60.03 134.055 Z M 71.848 136.865 L 71.848 137.237 A 0.478 0.478 0 0 1 71.791 137.259 Q 71.731 137.279 71.644 137.295 A 1.819 1.819 0 0 1 71.615 137.3 A 2.108 2.108 0 0 1 71.478 137.318 Q 71.404 137.325 71.338 137.325 A 1.27 1.27 0 0 1 70.964 137.274 Q 70.553 137.147 70.445 136.7 A 1.529 1.529 0 0 1 70.407 136.343 L 70.407 134.433 L 69.947 134.433 L 69.947 134.199 L 70.407 133.997 L 70.612 133.311 L 70.893 133.311 L 70.893 134.055 L 71.825 134.055 L 71.825 134.433 L 70.893 134.433 L 70.893 136.323 A 0.979 0.979 0 0 0 70.907 136.495 Q 70.924 136.589 70.961 136.664 A 0.472 0.472 0 0 0 71.031 136.768 A 0.452 0.452 0 0 0 71.308 136.916 A 0.65 0.65 0 0 0 71.409 136.923 Q 71.538 136.923 71.658 136.904 A 2.631 2.631 0 0 0 71.728 136.892 Q 71.795 136.88 71.842 136.867 A 0.726 0.726 0 0 0 71.848 136.865 Z M 62.464 134.032 L 62.397 134.483 Q 62.231 134.446 62.098 134.44 A 1.141 1.141 0 0 0 62.045 134.439 A 0.843 0.843 0 0 0 61.423 134.708 A 1.153 1.153 0 0 0 61.379 134.755 A 1.111 1.111 0 0 0 61.111 135.379 A 1.476 1.476 0 0 0 61.102 135.543 L 61.102 137.266 L 60.616 137.266 L 60.616 134.055 L 61.017 134.055 L 61.073 134.65 L 61.096 134.65 A 1.642 1.642 0 0 1 61.28 134.387 A 1.255 1.255 0 0 1 61.527 134.166 A 0.969 0.969 0 0 1 62.081 133.997 A 2.233 2.233 0 0 1 62.28 134.005 A 1.63 1.63 0 0 1 62.464 134.032 Z M 65.792 136.146 A 2.512 2.512 0 0 0 65.836 135.658 A 2.854 2.854 0 0 0 65.835 135.58 Q 65.816 134.87 65.439 134.445 Q 65.042 133.997 64.369 133.997 A 1.889 1.889 0 0 0 64.029 134.026 A 1.286 1.286 0 0 0 63.279 134.435 A 1.344 1.344 0 0 0 63.114 134.663 Q 62.987 134.885 62.931 135.169 A 2.525 2.525 0 0 0 62.886 135.658 A 2.433 2.433 0 0 0 62.917 136.052 A 1.799 1.799 0 0 0 63.068 136.542 Q 63.25 136.92 63.583 137.122 A 1.354 1.354 0 0 0 63.894 137.261 A 1.562 1.562 0 0 0 64.348 137.325 Q 65.045 137.325 65.441 136.884 Q 65.704 136.591 65.792 136.146 Z M 63.39 135.658 A 2.463 2.463 0 0 0 63.414 136.009 Q 63.466 136.372 63.636 136.595 A 0.797 0.797 0 0 0 64.155 136.901 A 1.208 1.208 0 0 0 64.36 136.917 A 1.13 1.13 0 0 0 64.658 136.88 A 0.786 0.786 0 0 0 65.085 136.597 A 1.044 1.044 0 0 0 65.248 136.28 Q 65.295 136.134 65.316 135.955 A 2.562 2.562 0 0 0 65.333 135.658 A 2.427 2.427 0 0 0 65.31 135.312 Q 65.257 134.948 65.085 134.727 A 0.8 0.8 0 0 0 64.588 134.431 A 1.227 1.227 0 0 0 64.354 134.41 A 1.157 1.157 0 0 0 64.066 134.443 A 0.775 0.775 0 0 0 63.633 134.723 A 1.006 1.006 0 0 0 63.477 135.025 Q 63.431 135.164 63.409 135.334 A 2.57 2.57 0 0 0 63.39 135.658 Z"
       id="front_labelLayer"
       stroke="#777777"
       fill="#777777"
       style="stroke:#000000;fill:#777777;stroke-opacity:1"
       vector-effect="non-scaling-stroke" />
    <path
       d="M 136 120 L 136 131.25 L 133 131.25 L 133 138.75 L 136 138.75 L 136 146.25 L 136 150 L 144.25 150 L 144.25 147 L 151.75 147 L 151.75 150 L 159.25 150 L 159.25 147 L 166.75 147 L 166.75 150 L 174.25 150 L 174.25 147 L 181.75 147 L 181.75 150 L 189.25 150 L 189.25 147 L 196.75 147 L 196.75 150 L 204.25 150 L 204.25 147 L 211.75 147 L 211.75 150 L 219.25 150 L 219.25 147 L 226.75 147 L 226.75 150 L 234.25 150 L 234.25 147 L 241.75 147 L 241.75 150 L 249.25 150 L 249.25 147 L 256.75 147 L 256.75 150 L 264.25 150 L 264.25 147 L 271.75 147 L 271.75 150 L 279.25 150 L 280 150 L 280 138.75 L 283 138.75 L 283 131.25 L 280 131.25 L 280 123.75 L 280 120 L 136 120 Z"
       id="left_outsideCutPath"
       stroke="#FF0000"
       stroke-width="0.1"
       style="stroke:#000000;stroke-width:0.1;stroke-opacity:1"
       vector-effect="non-scaling-stroke" />
    <path
       d="M 210.134 134.055 L 210.134 134.433 L 209.317 134.433 L 209.317 137.266 L 208.831 137.266 L 208.831 134.433 L 208.256 134.433 L 208.256 134.213 L 208.831 134.038 L 208.831 133.859 Q 208.831 132.837 209.601 132.697 A 1.478 1.478 0 0 1 209.865 132.675 A 1.566 1.566 0 0 1 210.086 132.692 Q 210.194 132.708 210.314 132.737 A 3.148 3.148 0 0 1 210.462 132.778 L 210.336 133.167 A 2.362 2.362 0 0 0 210.153 133.116 Q 209.987 133.077 209.856 133.077 A 0.656 0.656 0 0 0 209.698 133.094 A 0.421 0.421 0 0 0 209.449 133.26 Q 209.317 133.443 209.317 133.847 L 209.317 134.055 L 210.134 134.055 Z M 207.858 135.441 L 207.858 135.748 L 205.646 135.748 A 1.952 1.952 0 0 0 205.68 136.075 Q 205.715 136.253 205.786 136.394 A 0.913 0.913 0 0 0 205.932 136.607 A 0.884 0.884 0 0 0 206.396 136.868 A 1.339 1.339 0 0 0 206.695 136.9 A 2.569 2.569 0 0 0 207.657 136.709 A 2.943 2.943 0 0 0 207.72 136.683 L 207.72 137.117 Q 207.462 137.228 207.232 137.276 Q 207.054 137.314 206.817 137.322 A 3.962 3.962 0 0 1 206.677 137.325 A 1.89 1.89 0 0 1 206.204 137.269 A 1.338 1.338 0 0 1 205.554 136.891 A 1.431 1.431 0 0 1 205.211 136.262 Q 205.142 136.003 205.142 135.687 Q 205.142 135.054 205.396 134.633 A 1.44 1.44 0 0 1 205.524 134.454 A 1.246 1.246 0 0 1 206.433 134.001 A 1.719 1.719 0 0 1 206.551 133.997 A 1.482 1.482 0 0 1 206.968 134.052 A 1.127 1.127 0 0 1 207.506 134.393 A 1.36 1.36 0 0 1 207.814 135.015 A 1.979 1.979 0 0 1 207.858 135.441 Z M 212.197 136.865 L 212.197 137.237 A 0.478 0.478 0 0 1 212.14 137.259 Q 212.08 137.279 211.993 137.295 A 1.819 1.819 0 0 1 211.964 137.3 A 2.108 2.108 0 0 1 211.826 137.318 Q 211.752 137.325 211.687 137.325 A 1.27 1.27 0 0 1 211.313 137.274 Q 210.901 137.147 210.794 136.7 A 1.529 1.529 0 0 1 210.755 136.343 L 210.755 134.433 L 210.295 134.433 L 210.295 134.199 L 210.755 133.997 L 210.96 133.311 L 211.242 133.311 L 211.242 134.055 L 212.173 134.055 L 212.173 134.433 L 211.242 134.433 L 211.242 136.323 A 0.979 0.979 0 0 0 211.256 136.495 Q 211.273 136.589 211.31 136.664 A 0.472 0.472 0 0 0 211.379 136.768 A 0.452 0.452 0 0 0 211.657 136.916 A 0.65 0.65 0 0 0 211.757 136.923 Q 211.886 136.923 212.006 136.904 A 2.631 2.631 0 0 0 212.077 136.892 Q 212.144 136.88 212.19 136.867 A 0.726 0.726 0 0 0 212.197 136.865 Z M 204.29 132.707 L 204.29 137.266 L 203.803 137.266 L 203.803 132.707 L 204.29 132.707 Z M 205.658 135.353 L 207.336 135.353 Q 207.336 135.042 207.243 134.829 A 0.752 0.752 0 0 0 207.131 134.648 A 0.666 0.666 0 0 0 206.73 134.42 A 0.999 0.999 0 0 0 206.545 134.404 A 0.959 0.959 0 0 0 206.268 134.442 A 0.741 0.741 0 0 0 205.929 134.656 A 0.961 0.961 0 0 0 205.738 134.978 Q 205.689 135.11 205.667 135.27 A 1.837 1.837 0 0 0 205.658 135.353 Z"
       id="left_labelLayer"
       stroke="#777777"
       fill="#777777"
       style="stroke:#000000;fill:#777777;stroke-opacity:1"
       vector-effect="non-scaling-stroke" />
    <path
       d="M 0 87 L 0 98.25 L 3 98.25 L 3 105.75 L 0 105.75 L 0 113.25 L 0 117 L 8.75 117 L 8.75 114 L 16.25 114 L 16.25 117 L 23.75 117 L 23.75 114 L 31.25 114 L 31.25 117 L 38.75 117 L 38.75 114 L 46.25 114 L 46.25 117 L 53.75 117 L 53.75 114 L 61.25 114 L 61.25 117 L 68.75 117 L 68.75 114 L 76.25 114 L 76.25 117 L 83.75 117 L 83.75 114 L 91.25 114 L 91.25 117 L 98.75 117 L 98.75 114 L 106.25 114 L 106.25 117 L 113.75 117 L 113.75 114 L 121.25 114 L 121.25 117 L 130 117 L 130 105.75 L 127 105.75 L 127 98.25 L 130 98.25 L 130 90.75 L 130 87 L 0 87 Z"
       id="back_outsideCutPath"
       stroke="#FF0000"
       stroke-width="0.1"
       style="stroke:#000000;stroke-width:1;stroke-miterlimit:4;stroke-dasharray:none;stroke-opacity:1"
       vector-effect="non-scaling-stroke" />
    <path
       d="m 59.267,103.837 h -0.036 l -0.102,0.413 H 58.78 v -4.559 h 0.487 v 1.108 c -7.7e-5,0.11403 -0.0021,0.22804 -0.006,0.342 -0.0033,0.108 -0.0087,0.21033 -0.016,0.307 -6.57e-4,0.006 -0.0013,0.0127 -0.002,0.019 h 0.024 c 0.226,-0.32067 0.561667,-0.481 1.007,-0.481 0.141622,-0.001 0.282716,0.0175 0.419,0.056 0.222521,0.0636 0.419667,0.19507 0.564,0.376 0.187333,0.23067 0.299667,0.53833 0.337,0.923 0.0092,0.10007 0.01351,0.20052 0.013,0.301 0.0012,0.16042 -0.01121,0.32066 -0.037,0.479 -0.052,0.30333 -0.157333,0.55333 -0.316,0.75 -0.235333,0.292 -0.562,0.438 -0.98,0.438 -0.124783,3.8e-4 -0.249109,-0.0151 -0.37,-0.046 -0.06916,-0.0177 -0.136731,-0.0411 -0.202,-0.07 -0.173957,-0.0781 -0.324069,-0.20092 -0.435,-0.356 z m 5.165,0.413 -0.097,-0.457 h -0.023 c -0.05089,0.0643 -0.105663,0.12539 -0.164,0.183 -0.058,0.0573 -0.116333,0.106 -0.175,0.146 -0.04417,0.0308 -0.09102,0.0576 -0.14,0.08 -0.07446,0.0327 -0.152248,0.0572 -0.232,0.073 -0.109333,0.0227 -0.231,0.034 -0.365,0.034 -0.101725,6.9e-4 -0.203253,-0.009 -0.303,-0.029 -0.124,-0.026 -0.233667,-0.069 -0.329,-0.129 -0.04119,-0.0262 -0.08,-0.056 -0.116,-0.089 -0.122022,-0.11197 -0.206238,-0.25908 -0.241,-0.421 -0.02066,-0.0915 -0.03073,-0.18516 -0.03,-0.279 0,-0.62733 0.485667,-0.96567 1.457,-1.015 0.03265,-0.002 0.06532,-0.003 0.098,-0.004 l 0.545,-0.018 v -0.199 c 0,-0.252 -0.054,-0.438 -0.162,-0.558 -0.08667,-0.096 -0.214667,-0.15367 -0.384,-0.173 -0.04517,-0.005 -0.09057,-0.007 -0.136,-0.007 -0.215333,0 -0.453333,0.053 -0.714,0.159 -0.0656,0.0269 -0.130297,0.0559 -0.194,0.087 l -0.15,-0.372 c 0.137726,-0.0743 0.28285,-0.13394 0.433,-0.178 0.02886,-0.009 0.05786,-0.0165 0.087,-0.024 0.185088,-0.0487 0.375623,-0.0735 0.567,-0.074 0.104742,-6.6e-4 0.20938,0.007 0.313,0.022 0.228667,0.0353 0.408,0.113 0.538,0.233 0.09003,0.0849 0.158294,0.19017 0.199,0.307 0.03067,0.084 0.05233,0.178 0.065,0.282 -0.110914,0.68638 0.521944,2.42 -0.347,2.42 z m 3.504,-3.103 -0.15,0.414 c -0.07676,-0.0308 -0.155221,-0.0572 -0.235,-0.079 -0.03845,-0.0102 -0.07712,-0.0196 -0.116,-0.028 -0.05061,-0.0116 -0.101644,-0.0213 -0.153,-0.029 -0.06667,-0.009 -0.128,-0.014 -0.184,-0.014 -0.150115,-0.003 -0.299296,0.0245 -0.438,0.082 -0.360667,0.15933 -0.541,0.548 -0.541,1.166 0.0059,0.60633 0.192908,1.01294 0.739,1.207 0.06833,0.0121 0.137604,0.0181 0.207,0.018 0.268,0 0.542667,-0.0577 0.824,-0.173 v 0.431 c -0.107345,0.0542 -0.221306,0.0942 -0.339,0.119 -0.142,0.032 -0.299667,0.048 -0.473,0.048 -0.148866,0.001 -0.29731,-0.016 -0.442,-0.051 -0.246179,-0.058 -0.468564,-0.19032 -0.637,-0.379 -0.135868,-0.15535 -0.235899,-0.33868 -0.293,-0.537 -0.04333,-0.142 -0.071,-0.29867 -0.083,-0.47 -0.0048,-0.0689 -0.0071,-0.13794 -0.007,-0.207 0,-0.53733 0.129333,-0.95233 0.388,-1.245 0.181008,-0.20348 0.423116,-0.34278 0.69,-0.397 0.136673,-0.0295 0.276177,-0.0439 0.416,-0.043 0.15567,2e-4 0.310876,0.017 0.463,0.05 0.04531,0.01 0.09032,0.0207 0.135,0.033 0.092,0.0253 0.168333,0.0533 0.229,0.084 z m -7.732,0.247 c -0.08887,-9.7e-4 -0.177624,0.007 -0.265,0.023 -0.1,0.02 -0.188333,0.0523 -0.265,0.097 -0.0728,0.0423 -0.136663,0.0983 -0.188,0.165 -0.128667,0.16733 -0.200667,0.43533 -0.216,0.804 -0.0021,0.053 -0.0031,0.10598 -0.003,0.159 0,0.38267 0.054,0.673 0.162,0.871 0.01842,0.0339 0.03948,0.0664 0.063,0.097 0.09125,0.11573 0.216437,0.2 0.358,0.241 0.08,0.0253 0.168667,0.041 0.266,0.047 0.03329,0.002 0.06664,0.003 0.1,0.003 0.09297,9.2e-4 0.185583,-0.0115 0.275,-0.037 0.161455,-0.046 0.300956,-0.1486 0.393,-0.289 0.06053,-0.0923 0.107039,-0.19306 0.138,-0.299 0.02867,-0.0947 0.05,-0.19933 0.064,-0.314 0.01237,-0.10822 0.01838,-0.21707 0.018,-0.326 2.61e-4,-0.10959 -0.0057,-0.2191 -0.018,-0.328 -0.02733,-0.23867 -0.08733,-0.43 -0.18,-0.574 -0.0071,-0.0112 -0.0144,-0.0222 -0.022,-0.033 -0.107548,-0.15069 -0.269772,-0.25334 -0.452,-0.286 -0.07509,-0.0147 -0.151484,-0.0218 -0.228,-0.021 z m 4.102,1.567 v -0.29 l -0.487,0.02 c -0.322667,0.0113 -0.570333,0.0553 -0.743,0.132 -0.03211,0.0141 -0.06319,0.0305 -0.093,0.049 -0.170667,0.106 -0.256,0.27133 -0.256,0.496 -5.47e-4,0.0538 0.0052,0.1075 0.017,0.16 0.01933,0.0813 0.05467,0.15 0.106,0.206 0.01131,0.0124 0.02333,0.024 0.036,0.035 0.106667,0.092 0.255667,0.138 0.447,0.138 0.261333,0 0.474333,-0.062 0.639,-0.186 0.0259,-0.0195 0.05061,-0.0405 0.074,-0.063 0.173333,-0.166 0.26,-0.39833 0.26,-0.697 z"
       id="back_labelLayer"
       stroke="#777777"
       fill="#777777"
       style="fill:#777777;stroke:#000000;stroke-opacity:1"
       vector-effect="non-scaling-stroke"
       sodipodi:nodetypes="cccccccccccccccccccscccccccccccccccsccsccccccccccccccccccccccccccccccccccccccccccccccccsccsccccccccsccccccscsscs" />
    <path
       d="M 136 87 L 136 98.25 L 133 98.25 L 133 105.75 L 136 105.75 L 136 113.25 L 136 117 L 144.25 117 L 144.25 114 L 151.75 114 L 151.75 117 L 159.25 117 L 159.25 114 L 166.75 114 L 166.75 117 L 174.25 117 L 174.25 114 L 181.75 114 L 181.75 117 L 189.25 117 L 189.25 114 L 196.75 114 L 196.75 117 L 204.25 117 L 204.25 114 L 211.75 114 L 211.75 117 L 219.25 117 L 219.25 114 L 226.75 114 L 226.75 117 L 234.25 117 L 234.25 114 L 241.75 114 L 241.75 117 L 249.25 117 L 249.25 114 L 256.75 114 L 256.75 117 L 264.25 117 L 264.25 114 L 271.75 114 L 271.75 117 L 279.25 117 L 280 117 L 280 105.75 L 283 105.75 L 283 98.25 L 280 98.25 L 280 90.75 L 280 87 L 136 87 Z"
       id="right_outsideCutPath"
       stroke="#FF0000"
       stroke-width="0.1"
       style="stroke:#000000;stroke-width:0.1;stroke-opacity:1"
       vector-effect="non-scaling-stroke" />
    <path
       d="M 211.731 103.559 L 211.245 103.559 L 211.245 101.481 A 1.375 1.375 0 0 0 211.229 101.266 Q 211.192 101.031 211.066 100.895 A 0.548 0.548 0 0 0 210.841 100.752 Q 210.753 100.721 210.644 100.709 A 1.289 1.289 0 0 0 210.506 100.702 A 1.472 1.472 0 0 0 210.231 100.726 Q 210.079 100.755 209.961 100.82 A 0.681 0.681 0 0 0 209.767 100.978 A 0.809 0.809 0 0 0 209.629 101.221 Q 209.534 101.478 209.534 101.88 L 209.534 103.559 L 209.047 103.559 L 209.047 99 L 209.534 99 L 209.534 100.38 A 4.375 4.375 0 0 1 209.531 100.548 Q 209.528 100.627 209.522 100.694 A 1.902 1.902 0 0 1 209.51 100.793 L 209.54 100.793 A 0.972 0.972 0 0 1 209.88 100.465 A 1.187 1.187 0 0 1 209.948 100.428 A 1.248 1.248 0 0 1 210.358 100.307 A 1.578 1.578 0 0 1 210.553 100.295 A 1.973 1.973 0 0 1 210.885 100.321 Q 211.232 100.38 211.437 100.575 A 0.847 0.847 0 0 1 211.645 100.903 Q 211.696 101.039 211.716 101.208 A 2.103 2.103 0 0 1 211.731 101.464 L 211.731 103.559 Z M 207.278 100.348 L 208.388 100.348 L 208.388 100.655 L 207.793 100.726 A 0.79 0.79 0 0 1 207.862 100.827 Q 207.892 100.88 207.919 100.943 A 1.499 1.499 0 0 1 207.94 100.994 A 0.936 0.936 0 0 1 207.995 101.217 A 1.202 1.202 0 0 1 208.004 101.367 A 1.115 1.115 0 0 1 207.953 101.713 A 0.902 0.902 0 0 1 207.682 102.12 A 1.079 1.079 0 0 1 207.258 102.344 Q 207.052 102.401 206.797 102.401 A 1.563 1.563 0 0 1 206.617 102.391 A 1.32 1.32 0 0 1 206.528 102.378 Q 206.351 102.472 206.274 102.593 A 0.366 0.366 0 0 0 206.217 102.791 Q 206.217 102.923 206.326 102.986 A 0.341 0.341 0 0 0 206.401 103.017 Q 206.481 103.04 206.601 103.046 A 1.85 1.85 0 0 0 206.698 103.049 L 207.266 103.049 A 1.991 1.991 0 0 1 207.568 103.07 Q 207.727 103.095 207.854 103.147 A 0.879 0.879 0 0 1 208.067 103.269 A 0.711 0.711 0 0 1 208.332 103.722 A 1.069 1.069 0 0 1 208.347 103.907 A 1.053 1.053 0 0 1 208.287 104.271 Q 208.187 104.545 207.919 104.72 A 1.458 1.458 0 0 1 207.543 104.891 Q 207.184 105 206.671 105 Q 206.258 105 205.969 104.899 A 1.13 1.13 0 0 1 205.7 104.766 A 0.775 0.775 0 0 1 205.45 104.494 Q 205.359 104.325 205.359 104.103 Q 205.359 103.811 205.546 103.597 A 0.849 0.849 0 0 1 205.838 103.384 A 1.204 1.204 0 0 1 206.074 103.307 A 0.505 0.505 0 0 1 205.878 103.148 A 0.599 0.599 0 0 1 205.867 103.134 A 0.451 0.451 0 0 1 205.784 102.89 A 0.558 0.558 0 0 1 205.784 102.861 A 0.556 0.556 0 0 1 205.812 102.682 A 0.493 0.493 0 0 1 205.877 102.554 Q 205.948 102.454 206.081 102.359 A 1.528 1.528 0 0 1 206.173 102.299 A 0.853 0.853 0 0 1 205.803 102.002 A 1.057 1.057 0 0 1 205.768 101.95 A 1.005 1.005 0 0 1 205.613 101.466 A 1.227 1.227 0 0 1 205.611 101.388 A 1.405 1.405 0 0 1 205.648 101.055 A 0.924 0.924 0 0 1 205.927 100.575 A 1.033 1.033 0 0 1 206.324 100.356 Q 206.481 100.308 206.671 100.294 A 2.148 2.148 0 0 1 206.824 100.289 A 1.864 1.864 0 0 1 207.07 100.305 A 1.42 1.42 0 0 1 207.278 100.348 Z M 214.207 103.157 L 214.207 103.529 A 0.478 0.478 0 0 1 214.15 103.552 Q 214.089 103.572 214.003 103.587 A 1.819 1.819 0 0 1 213.974 103.592 A 2.108 2.108 0 0 1 213.836 103.61 Q 213.762 103.617 213.697 103.617 A 1.27 1.27 0 0 1 213.322 103.567 Q 212.911 103.44 212.803 102.993 A 1.529 1.529 0 0 1 212.765 102.636 L 212.765 100.726 L 212.305 100.726 L 212.305 100.491 L 212.765 100.289 L 212.97 99.603 L 213.251 99.603 L 213.251 100.348 L 214.183 100.348 L 214.183 100.726 L 213.251 100.726 L 213.251 102.615 A 0.979 0.979 0 0 0 213.266 102.787 Q 213.282 102.882 213.319 102.956 A 0.472 0.472 0 0 0 213.389 103.061 A 0.452 0.452 0 0 0 213.667 103.208 A 0.65 0.65 0 0 0 213.767 103.216 Q 213.896 103.216 214.016 103.197 A 2.631 2.631 0 0 0 214.086 103.185 Q 214.153 103.172 214.2 103.159 A 0.726 0.726 0 0 0 214.207 103.157 Z M 203.642 100.324 L 203.575 100.775 Q 203.409 100.739 203.275 100.733 A 1.141 1.141 0 0 0 203.223 100.731 A 0.843 0.843 0 0 0 202.601 101 A 1.153 1.153 0 0 0 202.557 101.048 A 1.111 1.111 0 0 0 202.289 101.671 A 1.476 1.476 0 0 0 202.28 101.836 L 202.28 103.559 L 201.793 103.559 L 201.793 100.348 L 202.195 100.348 L 202.25 100.942 L 202.274 100.942 A 1.642 1.642 0 0 1 202.458 100.68 A 1.255 1.255 0 0 1 202.705 100.459 A 0.969 0.969 0 0 1 203.258 100.289 A 2.233 2.233 0 0 1 203.458 100.298 A 1.63 1.63 0 0 1 203.642 100.324 Z M 204.729 100.348 L 204.729 103.559 L 204.243 103.559 L 204.243 100.348 L 204.729 100.348 Z M 207.111 103.485 L 206.528 103.485 A 1.118 1.118 0 0 0 206.326 103.502 Q 206.136 103.537 206.012 103.644 Q 205.828 103.802 205.828 104.098 A 0.488 0.488 0 0 0 205.86 104.279 Q 205.906 104.396 206.019 104.474 A 0.571 0.571 0 0 0 206.047 104.493 A 0.779 0.779 0 0 0 206.239 104.575 Q 206.419 104.628 206.673 104.628 A 2.498 2.498 0 0 0 206.677 104.628 Q 207.224 104.628 207.518 104.482 A 0.808 0.808 0 0 0 207.584 104.445 A 0.709 0.709 0 0 0 207.749 104.307 A 0.532 0.532 0 0 0 207.878 103.948 A 0.658 0.658 0 0 0 207.866 103.818 Q 207.851 103.742 207.817 103.686 A 0.307 0.307 0 0 0 207.717 103.586 Q 207.595 103.509 207.307 103.491 A 3.094 3.094 0 0 0 207.111 103.485 Z M 206.091 101.376 A 0.949 0.949 0 0 0 206.111 101.575 Q 206.152 101.768 206.282 101.886 Q 206.472 102.059 206.812 102.059 A 1.059 1.059 0 0 0 207.089 102.025 Q 207.524 101.907 207.524 101.367 Q 207.524 100.793 207.07 100.674 A 1.058 1.058 0 0 0 206.803 100.644 Q 206.541 100.644 206.371 100.752 A 0.56 0.56 0 0 0 206.276 100.828 Q 206.119 100.985 206.096 101.27 A 1.279 1.279 0 0 0 206.091 101.376 Z M 204.209 99.388 A 0.539 0.539 0 0 0 204.202 99.478 Q 204.202 99.642 204.284 99.722 A 0.273 0.273 0 0 0 204.382 99.785 A 0.309 0.309 0 0 0 204.489 99.803 Q 204.606 99.803 204.691 99.722 A 0.237 0.237 0 0 0 204.737 99.661 Q 204.758 99.621 204.768 99.57 A 0.503 0.503 0 0 0 204.776 99.478 Q 204.776 99.397 204.756 99.338 A 0.246 0.246 0 0 0 204.691 99.234 Q 204.606 99.155 204.489 99.155 A 0.371 0.371 0 0 0 204.464 99.156 A 0.281 0.281 0 0 0 204.284 99.233 A 0.227 0.227 0 0 0 204.233 99.304 Q 204.216 99.341 204.209 99.388 Z"
       id="right_labelLayer"
       stroke="#777777"
       fill="#777777"
       style="stroke:#000000;fill:#777777;stroke-opacity:1"
       vector-effect="non-scaling-stroke" />
    <path
       d="M 289 3 L 289 11.25 L 286 11.25 L 286 18.75 L 289 18.75 L 289 26.25 L 286 26.25 L 286 33.75 L 289 33.75 L 289 41.25 L 286 41.25 L 286 48.75 L 289 48.75 L 289 56.25 L 286 56.25 L 286 63.75 L 289 63.75 L 289 71.25 L 286 71.25 L 286 78.75 L 289 78.75 L 289 86.25 L 286 86.25 L 286 93.75 L 289 93.75 L 289 101.25 L 286 101.25 L 286 108.75 L 289 108.75 L 289 116.25 L 286 116.25 L 286 123.75 L 289 123.75 L 289 131.25 L 286 131.25 L 286 138.75 L 289 138.75 L 289 146.25 L 289 147 L 294.75 147 L 294.75 150 L 302.25 150 L 302.25 147 L 309.75 147 L 309.75 150 L 317.25 150 L 317.25 147 L 324.75 147 L 324.75 150 L 332.25 150 L 332.25 147 L 339.75 147 L 339.75 150 L 347.25 150 L 347.25 147 L 354.75 147 L 354.75 150 L 362.25 150 L 362.25 147 L 369.75 147 L 369.75 150 L 377.25 150 L 377.25 147 L 384.75 147 L 384.75 150 L 392.25 150 L 392.25 147 L 399.75 147 L 399.75 150 L 407.25 150 L 407.25 147 L 413 147 L 413 138.75 L 416 138.75 L 416 131.25 L 413 131.25 L 413 123.75 L 416 123.75 L 416 116.25 L 413 116.25 L 413 108.75 L 416 108.75 L 416 101.25 L 413 101.25 L 413 93.75 L 416 93.75 L 416 86.25 L 413 86.25 L 413 78.75 L 416 78.75 L 416 71.25 L 413 71.25 L 413 63.75 L 416 63.75 L 416 56.25 L 413 56.25 L 413 48.75 L 416 48.75 L 416 41.25 L 413 41.25 L 413 33.75 L 416 33.75 L 416 26.25 L 413 26.25 L 413 18.75 L 416 18.75 L 416 11.25 L 413 11.25 L 413 3.75 L 413 3 L 407.25 3 L 407.25 0 L 399.75 0 L 399.75 3 L 392.25 3 L 392.25 0 L 384.75 0 L 384.75 3 L 377.25 3 L 377.25 0 L 369.75 0 L 369.75 3 L 362.25 3 L 362.25 0 L 354.75 0 L 354.75 3 L 347.25 3 L 347.25 0 L 339.75 0 L 339.75 3 L 332.25 3 L 332.25 0 L 324.75 0 L 324.75 3 L 317.25 3 L 317.25 0 L 309.75 0 L 309.75 3 L 302.25 3 L 302.25 0 L 294.75 0 L 294.75 3 L 289 3 Z"
       id="bottom_outsideCutPath"
       stroke="#FF0000"
       stroke-width="0.1"
       style="stroke:#000000;stroke-width:0.1;stroke-opacity:1"
       vector-effect="non-scaling-stroke" />
    <path
       d="M 393.77 84.75 L 391.663 84.75 L 391.663 75.698 A 6.217 6.217 0 0 0 391.6 74.784 Q 391.531 74.317 391.384 73.941 A 2.547 2.547 0 0 0 390.952 73.203 A 2.218 2.218 0 0 0 389.921 72.537 Q 389.554 72.418 389.106 72.385 A 4.892 4.892 0 0 0 388.743 72.372 Q 387.363 72.372 386.489 72.927 A 2.791 2.791 0 0 0 385.836 73.502 Q 384.896 74.632 384.896 76.98 L 384.896 84.75 L 382.789 84.75 L 382.789 75.698 A 6.217 6.217 0 0 0 382.726 74.784 Q 382.657 74.317 382.51 73.941 A 2.547 2.547 0 0 0 382.078 73.203 Q 381.463 72.484 380.248 72.387 A 4.935 4.935 0 0 0 379.856 72.372 Q 378.474 72.372 377.608 72.95 A 2.762 2.762 0 0 0 376.956 73.559 Q 376.035 74.746 376.035 77.45 L 376.035 84.75 L 373.928 84.75 L 373.928 70.836 L 375.642 70.836 L 375.984 72.74 L 376.086 72.74 Q 376.683 71.724 377.768 71.153 A 5.003 5.003 0 0 1 379.744 70.599 A 6.043 6.043 0 0 1 380.199 70.582 A 6.9 6.9 0 0 1 381.752 70.743 Q 382.707 70.964 383.374 71.487 A 3.598 3.598 0 0 1 384.465 72.943 L 384.566 72.943 Q 385.188 71.851 386.369 71.216 Q 387.55 70.582 389.06 70.582 A 7.326 7.326 0 0 1 390.389 70.694 Q 391.78 70.951 392.596 71.794 A 3.629 3.629 0 0 1 393.375 73.069 Q 393.77 74.126 393.77 75.673 L 393.77 84.75 Z M 310.337 82.96 L 310.185 82.96 L 309.74 84.75 L 308.229 84.75 L 308.229 64.996 L 310.337 64.996 L 310.337 69.795 A 43.938 43.938 0 0 1 310.313 71.279 Q 310.288 72.028 310.235 72.689 L 310.337 72.689 A 4.791 4.791 0 0 1 313.834 70.658 A 7.198 7.198 0 0 1 314.704 70.607 A 6.441 6.441 0 0 1 316.517 70.849 A 4.822 4.822 0 0 1 318.963 72.48 Q 320.48 74.352 320.48 77.78 Q 320.48 80.199 319.719 81.856 A 5.923 5.923 0 0 1 318.951 83.106 A 4.989 4.989 0 0 1 315.405 84.97 A 7.148 7.148 0 0 1 314.704 85.004 A 6.392 6.392 0 0 1 313.098 84.808 A 5.562 5.562 0 0 1 312.222 84.502 A 4.668 4.668 0 0 1 310.337 82.96 Z M 346.265 83.01 L 346.265 84.623 A 2.073 2.073 0 0 1 346.019 84.72 Q 345.714 84.821 345.255 84.896 Q 344.633 84.996 344.127 85.003 A 5.405 5.405 0 0 1 344.056 85.004 A 5.504 5.504 0 0 1 342.434 84.785 Q 340.018 84.04 340.018 80.751 L 340.018 72.473 L 338.025 72.473 L 338.025 71.458 L 340.018 70.582 L 340.907 67.611 L 342.126 67.611 L 342.126 70.836 L 346.163 70.836 L 346.163 72.473 L 342.126 72.473 L 342.126 80.662 Q 342.126 81.545 342.42 82.14 A 2.044 2.044 0 0 0 342.723 82.591 A 1.958 1.958 0 0 0 343.926 83.232 A 2.817 2.817 0 0 0 344.36 83.264 Q 344.919 83.264 345.439 83.182 Q 345.936 83.103 346.236 83.019 A 3.167 3.167 0 0 0 346.265 83.01 Z M 355.443 83.01 L 355.443 84.623 A 2.073 2.073 0 0 1 355.197 84.72 Q 354.892 84.821 354.434 84.896 Q 353.812 84.996 353.306 85.003 A 5.405 5.405 0 0 1 353.234 85.004 A 5.504 5.504 0 0 1 351.612 84.785 Q 349.197 84.04 349.197 80.751 L 349.197 72.473 L 347.204 72.473 L 347.204 71.458 L 349.197 70.582 L 350.086 67.611 L 351.305 67.611 L 351.305 70.836 L 355.342 70.836 L 355.342 72.473 L 351.305 72.473 L 351.305 80.662 Q 351.305 81.545 351.599 82.14 A 2.044 2.044 0 0 0 351.901 82.591 A 1.958 1.958 0 0 0 353.105 83.232 A 2.817 2.817 0 0 0 353.539 83.264 Q 354.098 83.264 354.618 83.182 Q 355.115 83.103 355.415 83.019 A 3.167 3.167 0 0 0 355.443 83.01 Z M 336.172 77.78 Q 336.172 81.182 334.458 83.093 Q 332.744 85.004 329.723 85.004 A 6.768 6.768 0 0 1 327.756 84.727 A 5.868 5.868 0 0 1 326.409 84.128 A 5.705 5.705 0 0 1 324.328 81.914 A 6.926 6.926 0 0 1 324.175 81.614 A 7.796 7.796 0 0 1 323.52 79.488 A 10.543 10.543 0 0 1 323.388 77.78 A 10.942 10.942 0 0 1 323.58 75.664 Q 323.959 73.74 325.089 72.48 A 5.574 5.574 0 0 1 328.341 70.708 A 8.185 8.185 0 0 1 329.811 70.582 A 7.081 7.081 0 0 1 331.89 70.872 A 5.517 5.517 0 0 1 334.452 72.524 Q 336.084 74.367 336.167 77.445 A 12.368 12.368 0 0 1 336.172 77.78 Z M 370.233 77.78 Q 370.233 81.182 368.519 83.093 Q 366.806 85.004 363.784 85.004 A 6.768 6.768 0 0 1 361.818 84.727 A 5.868 5.868 0 0 1 360.471 84.128 A 5.705 5.705 0 0 1 358.39 81.914 A 6.926 6.926 0 0 1 358.236 81.614 A 7.796 7.796 0 0 1 357.582 79.488 A 10.543 10.543 0 0 1 357.449 77.78 A 10.942 10.942 0 0 1 357.641 75.664 Q 358.021 73.74 359.15 72.48 A 5.574 5.574 0 0 1 362.403 70.708 A 8.185 8.185 0 0 1 363.873 70.582 A 7.081 7.081 0 0 1 365.952 70.872 A 5.517 5.517 0 0 1 368.513 72.524 Q 370.146 74.367 370.229 77.445 A 12.368 12.368 0 0 1 370.233 77.78 Z M 325.571 77.78 A 10.672 10.672 0 0 0 325.673 79.304 Q 325.785 80.078 326.02 80.705 A 4.421 4.421 0 0 0 326.638 81.842 A 3.454 3.454 0 0 0 328.887 83.167 A 5.234 5.234 0 0 0 329.773 83.239 A 4.895 4.895 0 0 0 331.065 83.078 A 3.407 3.407 0 0 0 332.915 81.849 A 4.524 4.524 0 0 0 333.62 80.477 Q 333.827 79.843 333.918 79.069 A 11.101 11.101 0 0 0 333.988 77.78 A 10.515 10.515 0 0 0 333.889 76.282 Q 333.779 75.519 333.547 74.901 A 4.339 4.339 0 0 0 332.915 73.749 A 3.467 3.467 0 0 0 330.76 72.463 A 5.315 5.315 0 0 0 329.748 72.372 Q 327.679 72.372 326.625 73.73 Q 325.866 74.708 325.654 76.377 A 11.136 11.136 0 0 0 325.571 77.78 Z M 359.633 77.78 A 10.672 10.672 0 0 0 359.734 79.304 Q 359.846 80.078 360.082 80.705 A 4.421 4.421 0 0 0 360.699 81.842 A 3.454 3.454 0 0 0 362.949 83.167 A 5.234 5.234 0 0 0 363.835 83.239 A 4.895 4.895 0 0 0 365.126 83.078 A 3.407 3.407 0 0 0 366.977 81.849 A 4.524 4.524 0 0 0 367.681 80.477 Q 367.889 79.843 367.979 79.069 A 11.101 11.101 0 0 0 368.05 77.78 A 10.515 10.515 0 0 0 367.95 76.282 Q 367.84 75.519 367.608 74.901 A 4.339 4.339 0 0 0 366.977 73.749 A 3.467 3.467 0 0 0 364.822 72.463 A 5.315 5.315 0 0 0 363.81 72.372 Q 361.74 72.372 360.686 73.73 Q 359.928 74.708 359.715 76.377 A 11.136 11.136 0 0 0 359.633 77.78 Z M 312.103 72.895 A 2.803 2.803 0 0 0 311.289 73.61 Q 310.337 74.847 310.337 77.78 A 13.934 13.934 0 0 0 310.406 79.22 Q 310.557 80.673 311.042 81.557 A 3.179 3.179 0 0 0 311.314 81.976 Q 312.191 83.108 314.016 83.225 A 6.776 6.776 0 0 0 314.45 83.239 A 4.201 4.201 0 0 0 315.643 83.079 A 3.031 3.031 0 0 0 317.345 81.823 A 4.838 4.838 0 0 0 317.943 80.529 Q 318.131 79.914 318.219 79.169 A 12.075 12.075 0 0 0 318.297 77.755 A 12.451 12.451 0 0 0 318.221 76.336 Q 318.043 74.784 317.441 73.847 A 3.496 3.496 0 0 0 317.345 73.705 A 3.073 3.073 0 0 0 315.388 72.466 A 4.874 4.874 0 0 0 314.399 72.372 Q 312.996 72.372 312.103 72.895 Z"
       id="bottom_labelLayer"
       stroke="#777777"
       fill="#777777"
       style="stroke:#000000;fill:#777777;stroke-opacity:1"
       vector-effect="non-scaling-stroke" />
  </g>
  <ellipse
     style="fill:#ff0000;fill-opacity:0;fill-rule:evenodd;stroke:#000000;stroke-width:0.2;stroke-miterlimit:4;stroke-dasharray:none;stroke-opacity:1"
     id="path1789"
     cx="25.190348"
     cy="100.27571"
     rx="2.3312404"
     ry="2.2341053" />
  <ellipse
     style="fill:#ff0000;fill-opacity:0;fill-rule:evenodd;stroke:#000000;stroke-width:0.2;stroke-miterlimit:4;stroke-dasharray:none;stroke-opacity:1"
     id="path1789-6"
     cx="9.5192308"
     cy="100.24334"
     rx="2.3312404"
     ry="2.2341053" />
  <ellipse
     style="fill:#ff0000;fill-opacity:0;fill-rule:evenodd;stroke:#000000;stroke-width:0.2;stroke-miterlimit:4;stroke-dasharray:none;stroke-opacity:1"
     id="path1789-9"
     cx="25.19035"
     cy="133.54446"
     rx="2.3312404"
     ry="2.2341053" />
  <ellipse
     style="fill:#ff0000;fill-opacity:0;fill-rule:evenodd;stroke:#000000;stroke-width:0.2;stroke-miterlimit:4;stroke-dasharray:none;stroke-opacity:1"
     id="path1789-6-7"
     cx="9.5192308"
     cy="133.51207"
     rx="2.3312404"
     ry="2.2341053" />
  <ellipse
     style="fill:#ff0000;fill-opacity:0;fill-rule:evenodd;stroke:#000000;stroke-width:0.2;stroke-miterlimit:4;stroke-dasharray:none;stroke-opacity:1"
     id="path1789-4"
     cx="120.12363"
     cy="133.47969"
     rx="2.3312404"
     ry="2.2341053" />
  <ellipse
     style="fill:#ff0000;fill-opacity:0;fill-rule:evenodd;stroke:#000000;stroke-width:0.2;stroke-miterlimit:4;stroke-dasharray:none;stroke-opacity:1"
     id="path1789-6-8"
     cx="104.45251"
     cy="133.44733"
     rx="2.3312404"
     ry="2.2341053" />
  <ellipse
     style="fill:#ff0000;fill-opacity:0;fill-rule:evenodd;stroke:#000000;stroke-width:0.2;stroke-miterlimit:4;stroke-dasharray:none;stroke-opacity:1"
     id="path1789-4-4"
     cx="120.18839"
     cy="100.77757"
     rx="2.3312404"
     ry="2.2341053" />
  <ellipse
     style="fill:#ff0000;fill-opacity:0;fill-rule:evenodd;stroke:#000000;stroke-width:0.2;stroke-miterlimit:4;stroke-dasharray:none;stroke-opacity:1"
     id="path1789-6-8-5"
     cx="104.51727"
     cy="100.74521"
     rx="2.3312404"
     ry="2.2341053" />
  <ellipse
     style="fill:#ff0000;fill-opacity:0;fill-rule:evenodd;stroke:#000000;stroke-width:0.2;stroke-miterlimit:4;stroke-dasharray:none;stroke-opacity:1"
     id="path1789-4-0"
     cx="368.64911"
     cy="32.620682"
     rx="2.3312404"
     ry="2.2341053" />
  <ellipse
     style="fill:#ff0000;fill-opacity:0;fill-rule:evenodd;stroke:#000000;stroke-width:0.2;stroke-miterlimit:4;stroke-dasharray:none;stroke-opacity:1"
     id="path1789-6-8-2"
     cx="333.3576"
     cy="33.165386"
     rx="2.3312404"
     ry="2.2341053" />
  <ellipse
     style="fill:#ff0000;fill-opacity:0;fill-rule:evenodd;stroke:#000000;stroke-width:0.2;stroke-miterlimit:4;stroke-dasharray:none;stroke-opacity:1"
     id="path1789-4-0-6"
     cx="367.06213"
     cy="129.28006"
     rx="2.3312404"
     ry="2.2341053" />
  <ellipse
     style="fill:#ff0000;fill-opacity:0;fill-rule:evenodd;stroke:#000000;stroke-width:0.2;stroke-miterlimit:4;stroke-dasharray:none;stroke-opacity:1"
     id="path1789-6-8-2-4"
     cx="332.92477"
     cy="128.67062"
     rx="2.3312404"
     ry="2.2341053" />
</svg>
